<ttFont>
    <TTGlyph name=".notdef" xMin="47" yMin="23" xMax="465" yMax="458">
      <contour>
        <pt x="47" y="458" on="1"/>
        <pt x="465" y="458" on="1"/>
        <pt x="465" y="23" on="1"/>
        <pt x="47" y="23" on="1"/>
      </contour>
      <contour>
        <pt x="344" y="154" on="1"/>
        <pt x="344" y="328" on="1"/>
        <pt x="170" y="328" on="1"/>
        <pt x="170" y="154" on="1"/>
      </contour>
    </TTGlyph>
    <TTGlyph name="A" xMin="-20" yMin="0" xMax="757" yMax="690">
      <contour>
        <pt x="-20" y="32" on="1"/>
        <pt x="-2" y="46" on="0"/>
        <pt x="40" y="72" on="0"/>
        <pt x="64" y="84" on="1"/>
        <pt x="271" y="598" on="1"/>
        <pt x="254" y="645" on="1"/>
        <pt x="436" y="690" on="1"/>
        <pt x="686" y="67" on="1"/>
        <pt x="757" y="55" on="1"/>
        <pt x="756" y="0" on="1"/>
        <pt x="394" y="0" on="1"/>
        <pt x="388" y="32" on="1"/>
        <pt x="404" y="45" on="0"/>
        <pt x="442" y="69" on="0"/>
        <pt x="463" y="79" on="1"/>
        <pt x="432" y="162" on="1"/>
        <pt x="228" y="162" on="1"/>
        <pt x="193" y="69" on="1"/>
        <pt x="274" y="55" on="1"/>
        <pt x="273" y="0" on="1"/>
        <pt x="-14" y="0" on="1"/>
      </contour>
      <contour>
        <pt x="262" y="254" on="1"/>
        <pt x="398" y="254" on="1"/>
        <pt x="330" y="439" on="1"/>
      </contour>
    </TTGlyph>
    <TTGlyph name="AE" xMin="-20" yMin="0" xMax="932" yMax="666">
      <contour>
        <pt x="-20" y="33" on="1"/>
        <pt x="0" y="49" on="0"/>
        <pt x="55" y="80" on="0"/>
        <pt x="77" y="91" on="1"/>
        <pt x="337" y="598" on="1"/>
        <pt x="260" y="611" on="1"/>
        <pt x="261" y="666" on="1"/>
        <pt x="928" y="666" on="1"/>
        <pt x="929" y="649" on="0"/>
        <pt x="927" y="597" on="0"/>
        <pt x="921" y="538" on="0"/>
        <pt x="913" y="477" on="0"/>
        <pt x="907" y="451" on="1"/>
        <pt x="792" y="451" on="1"/>
        <pt x="772" y="556" on="1"/>
        <pt x="620" y="566" on="1"/>
        <pt x="620" y="375" on="1"/>
        <pt x="831" y="393" on="1"/>
        <pt x="831" y="278" on="1"/>
        <pt x="620" y="287" on="1"/>
        <pt x="620" y="108" on="1"/>
        <pt x="779" y="118" on="1"/>
        <pt x="817" y="227" on="1"/>
        <pt x="932" y="218" on="1"/>
        <pt x="933" y="196" on="0"/>
        <pt x="931" y="140" on="0"/>
        <pt x="928" y="82" on="0"/>
        <pt x="923" y="24" on="0"/>
        <pt x="920" y="0" on="1"/>
        <pt x="903" y="1" on="1"/>
        <pt x="903" y="0" on="1"/>
        <pt x="339" y="0" on="1"/>
        <pt x="333" y="33" on="1"/>
        <pt x="350" y="47" on="0"/>
        <pt x="396" y="74" on="0"/>
        <pt x="418" y="85" on="1"/>
        <pt x="418" y="162" on="1"/>
        <pt x="241" y="162" on="1"/>
        <pt x="194" y="69" on="1"/>
        <pt x="274" y="55" on="1"/>
        <pt x="273" y="0" on="1"/>
        <pt x="-14" y="0" on="1"/>
      </contour>
      <contour>
        <pt x="287" y="254" on="1"/>
        <pt x="418" y="254" on="1"/>
        <pt x="418" y="518" on="1"/>
      </contour>
    </TTGlyph>
    <TTGlyph name="Aacute" xMin="-20" yMin="0" xMax="757" yMax="922">
      <component glyphName="A" x="0" y="0" flags="0x204"/>
      <component glyphName="acutecomb.case" x="359" y="0" flags="0x4"/>
    </TTGlyph>
    <TTGlyph name="Abreve" xMin="-20" yMin="0" xMax="757" yMax="895">
      <component glyphName="A" x="0" y="0" flags="0x204"/>
      <component glyphName="uni0306.case" x="361" y="0" flags="0x4"/>
    </TTGlyph>
    <TTGlyph name="Acircumflex" xMin="-20" yMin="0" xMax="757" yMax="944">
      <component glyphName="A" x="0" y="0" flags="0x204"/>
      <component glyphName="uni0302.case" x="360" y="140" flags="0x4"/>
    </TTGlyph>
    <TTGlyph name="Adieresis" xMin="-20" yMin="0" xMax="757" yMax="936">
      <component glyphName="A" x="0" y="0" flags="0x204"/>
      <component glyphName="uni0308.case" x="360" y="176" flags="0x4"/>
    </TTGlyph>
    <TTGlyph name="Agrave" xMin="-20" yMin="0" xMax="757" yMax="922">
      <component glyphName="A" x="0" y="0" flags="0x204"/>
      <component glyphName="gravecomb.case" x="360" y="0" flags="0x4"/>
    </TTGlyph>
    <TTGlyph name="Alpha" xMin="-20" yMin="0" xMax="757" yMax="690">
      <component glyphName="A" x="0" y="0" flags="0x204"/>
    </TTGlyph>
    <TTGlyph name="Alphaacute" xMin="-20" yMin="0" xMax="757" yMax="690">
      <component glyphName="Alpha" x="0" y="0" flags="0x204"/>
      <component glyphName="grAcute.case" x="16" y="0" flags="0x4"/>
    </TTGlyph>
    <TTGlyph name="Alphaasper" xMin="-20" yMin="0" xMax="757" yMax="690">
      <component glyphName="Alpha" x="0" y="0" flags="0x204"/>
      <component glyphName="asper.case" x="-31" y="0" flags="0x4"/>
    </TTGlyph>
    <TTGlyph name="Alphaasperacute" xMin="-190" yMin="0" xMax="757" yMax="690">
      <component glyphName="Alpha" x="0" y="0" flags="0x204"/>
      <component glyphName="asperacute.case" x="-180" y="0" flags="0x4"/>
    </TTGlyph>
    <TTGlyph name="Alphaasperacuteiotasub" xMin="-190" yMin="-222" xMax="757" yMax="690">
      <component glyphName="Alpha" x="0" y="0" flags="0x204"/>
      <component glyphName="asperacute.case" x="-180" y="0" flags="0x4"/>
      <component glyphName="iotaadscript.case" x="227" y="0" flags="0x4"/>
    </TTGlyph>
    <TTGlyph name="Alphaaspergrave" xMin="-198" yMin="0" xMax="757" yMax="690">
      <component glyphName="Alpha" x="0" y="0" flags="0x204"/>
      <component glyphName="aspergrave.case" x="-188" y="0" flags="0x4"/>
    </TTGlyph>
    <TTGlyph name="Alphaaspergraveiotasub" xMin="-198" yMin="-222" xMax="757" yMax="690">
      <component glyphName="Alpha" x="0" y="0" flags="0x204"/>
      <component glyphName="aspergrave.case" x="-188" y="0" flags="0x4"/>
      <component glyphName="iotaadscript.case" x="227" y="0" flags="0x4"/>
    </TTGlyph>
    <TTGlyph name="Alphaasperiotasub" xMin="-20" yMin="-222" xMax="757" yMax="690">
      <component glyphName="Alpha" x="0" y="0" flags="0x204"/>
      <component glyphName="asper.case" x="-31" y="0" flags="0x4"/>
      <component glyphName="iotaadscript.case" x="227" y="0" flags="0x4"/>
    </TTGlyph>
    <TTGlyph name="Alphaaspertilde" xMin="-275" yMin="0" xMax="757" yMax="690">
      <component glyphName="Alpha" x="0" y="0" flags="0x204"/>
      <component glyphName="aspertilde.case" x="-55" y="0" flags="0x4"/>
    </TTGlyph>
    <TTGlyph name="Alphaaspertildeiotasub" xMin="-275" yMin="-222" xMax="757" yMax="690">
      <component glyphName="Alpha" x="0" y="0" flags="0x204"/>
      <component glyphName="aspertilde.case" x="-55" y="0" flags="0x4"/>
      <component glyphName="iotaadscript.case" x="227" y="0" flags="0x4"/>
    </TTGlyph>
    <TTGlyph name="Alphabreve" xMin="-20" yMin="0" xMax="757" yMax="895">
      <component glyphName="Alpha" x="0" y="0" flags="0x204"/>
      <component glyphName="uni0306.case" x="361" y="0" flags="0x4"/>
    </TTGlyph>
    <TTGlyph name="Alphagrave" xMin="-20" yMin="0" xMax="757" yMax="690">
      <component glyphName="Alpha" x="0" y="0" flags="0x204"/>
      <component glyphName="grGrave.case" x="-46" y="0" flags="0x4"/>
    </TTGlyph>
    <TTGlyph name="Alphaiotasub" xMin="-20" yMin="-222" xMax="757" yMax="690">
      <component glyphName="Alpha" x="0" y="0" flags="0x204"/>
      <component glyphName="iotaadscript.case" x="227" y="0" flags="0x4"/>
    </TTGlyph>
    <TTGlyph name="Alphalenis" xMin="-20" yMin="0" xMax="757" yMax="690">
      <component glyphName="Alpha" x="0" y="0" flags="0x204"/>
      <component glyphName="lenis.case" x="16" y="0" flags="0x4"/>
    </TTGlyph>
    <TTGlyph name="Alphalenisacute" xMin="-176" yMin="0" xMax="757" yMax="690">
      <component glyphName="Alpha" x="0" y="0" flags="0x204"/>
      <component glyphName="lenisacute.case" x="-58" y="0" flags="0x4"/>
    </TTGlyph>
    <TTGlyph name="Alphalenisacuteiotasub" xMin="-176" yMin="-222" xMax="757" yMax="690">
      <component glyphName="Alpha" x="0" y="0" flags="0x204"/>
      <component glyphName="lenisacute.case" x="-58" y="0" flags="0x4"/>
      <component glyphName="iotaadscript.case" x="227" y="0" flags="0x4"/>
    </TTGlyph>
    <TTGlyph name="Alphalenisgrave" xMin="-206" yMin="0" xMax="757" yMax="690">
      <component glyphName="Alpha" x="0" y="0" flags="0x204"/>
      <component glyphName="lenisgrave.case" x="-84" y="0" flags="0x4"/>
    </TTGlyph>
    <TTGlyph name="Alphalenisgraveiotasub" xMin="-206" yMin="-222" xMax="757" yMax="690">
      <component glyphName="Alpha" x="0" y="0" flags="0x204"/>
      <component glyphName="lenisgrave.case" x="-84" y="0" flags="0x4"/>
      <component glyphName="iotaadscript.case" x="227" y="0" flags="0x4"/>
    </TTGlyph>
    <TTGlyph name="Alphalenisiotasub" xMin="-20" yMin="-222" xMax="757" yMax="690">
      <component glyphName="Alpha" x="0" y="0" flags="0x204"/>
      <component glyphName="lenis.case" x="16" y="0" flags="0x4"/>
      <component glyphName="iotaadscript.case" x="227" y="0" flags="0x4"/>
    </TTGlyph>
    <TTGlyph name="Alphalenistilde" xMin="-275" yMin="0" xMax="757" yMax="690">
      <component glyphName="Alpha" x="0" y="0" flags="0x204"/>
      <component glyphName="lenistilde.case" x="-55" y="0" flags="0x4"/>
    </TTGlyph>
    <TTGlyph name="Alphalenistildeiotasub" xMin="-275" yMin="-222" xMax="757" yMax="690">
      <component glyphName="Alpha" x="0" y="0" flags="0x204"/>
      <component glyphName="lenistilde.case" x="-55" y="0" flags="0x4"/>
      <component glyphName="iotaadscript.case" x="227" y="0" flags="0x4"/>
    </TTGlyph>
    <TTGlyph name="Alphawithmacron" xMin="-20" yMin="0" xMax="757" yMax="851">
      <component glyphName="Alpha" x="0" y="0" flags="0x204"/>
      <component glyphName="uni0304.case" x="359" y="0" flags="0x4"/>
    </TTGlyph>
    <TTGlyph name="Alphawithtonos" xMin="-20" yMin="0" xMax="757" yMax="690">
      <component glyphName="Alpha" x="0" y="0" flags="0x204"/>
      <component glyphName="tonos.case" x="16" y="0" flags="0x4"/>
    </TTGlyph>
    <TTGlyph name="Amacron" xMin="-20" yMin="0" xMax="757" yMax="851">
      <component glyphName="A" x="0" y="0" flags="0x204"/>
      <component glyphName="uni0304.case" x="359" y="0" flags="0x4"/>
    </TTGlyph>
    <TTGlyph name="Aogonek" xMin="-20" yMin="-295" xMax="757" yMax="690">
      <component glyphName="A" x="0" y="0" flags="0x204"/>
      <component glyphName="uni0328.case" x="718" y="-9" flags="0x4"/>
    </TTGlyph>
    <TTGlyph name="Aring" xMin="-20" yMin="0" xMax="757" yMax="965">
      <component glyphName="A" x="0" y="0" flags="0x204"/>
      <component glyphName="uni030A.case" x="360" y="0" flags="0x4"/>
    </TTGlyph>
    <TTGlyph name="Atilde" xMin="-20" yMin="0" xMax="757" yMax="915">
      <component glyphName="A" x="0" y="0" flags="0x204"/>
      <component glyphName="tildecomb.case" x="360" y="0" flags="0x4"/>
    </TTGlyph>
    <TTGlyph name="B" xMin="22" yMin="0" xMax="689" yMax="674">
      <contour>
        <pt x="22" y="32" on="1"/>
        <pt x="41" y="46" on="0"/>
        <pt x="83" y="72" on="0"/>
        <pt x="107" y="84" on="1"/>
        <pt x="107" y="599" on="1"/>
        <pt x="36" y="611" on="1"/>
        <pt x="37" y="666" on="1"/>
        <pt x="74" y="668" on="0"/>
        <pt x="172" y="671" on="0"/>
        <pt x="272" y="673" on="0"/>
        <pt x="366" y="674" on="0"/>
        <pt x="400" y="674" on="1"/>
        <pt x="465" y="674" on="0"/>
        <pt x="563" y="643" on="0"/>
        <pt x="628" y="595" on="0"/>
        <pt x="661" y="532" on="0"/>
        <pt x="661" y="501" on="1"/>
        <pt x="661" y="480" on="0"/>
        <pt x="647" y="434" on="0"/>
        <pt x="617" y="392" on="0"/>
        <pt x="573" y="358" on="0"/>
        <pt x="543" y="350" on="1"/>
        <pt x="615" y="334" on="0"/>
        <pt x="689" y="242" on="0"/>
        <pt x="689" y="185" on="1"/>
        <pt x="689" y="151" on="0"/>
        <pt x="660" y="84" on="0"/>
        <pt x="594" y="32" on="0"/>
        <pt x="484" y="0" on="0"/>
        <pt x="404" y="0" on="1"/>
        <pt x="28" y="0" on="1"/>
      </contour>
      <contour>
        <pt x="399" y="577" on="1"/>
        <pt x="317" y="562" on="1"/>
        <pt x="317" y="384" on="1"/>
        <pt x="360" y="384" on="1"/>
        <pt x="410" y="384" on="0"/>
        <pt x="455" y="442" on="0"/>
        <pt x="455" y="476" on="1"/>
        <pt x="455" y="506" on="0"/>
        <pt x="425" y="568" on="0"/>
      </contour>
      <contour>
        <pt x="378" y="93" on="1"/>
        <pt x="403" y="90" on="0"/>
        <pt x="440" y="106" on="0"/>
        <pt x="464" y="134" on="0"/>
        <pt x="476" y="172" on="0"/>
        <pt x="476" y="191" on="1"/>
        <pt x="476" y="211" on="0"/>
        <pt x="463" y="252" on="0"/>
        <pt x="439" y="285" on="0"/>
        <pt x="405" y="306" on="0"/>
        <pt x="384" y="306" on="1"/>
        <pt x="317" y="306" on="1"/>
        <pt x="317" y="101" on="1"/>
      </contour>
    </TTGlyph>
    <TTGlyph name="Beta" xMin="22" yMin="0" xMax="689" yMax="674">
      <component glyphName="B" x="0" y="0" flags="0x204"/>
    </TTGlyph>
    <TTGlyph name="C" xMin="8" yMin="-17" xMax="608" yMax="686">
      <contour>
        <pt x="394" y="-17" on="1"/>
        <pt x="282" y="-22" on="0"/>
        <pt x="133" y="39" on="0"/>
        <pt x="44" y="140" on="0"/>
        <pt x="8" y="266" on="0"/>
        <pt x="8" y="324" on="1"/>
        <pt x="8" y="392" on="0"/>
        <pt x="52" y="522" on="0"/>
        <pt x="142" y="624" on="0"/>
        <pt x="279" y="686" on="0"/>
        <pt x="371" y="686" on="1"/>
        <pt x="451" y="686" on="0"/>
        <pt x="554" y="644" on="0"/>
        <pt x="589" y="620" on="1"/>
        <pt x="590" y="603" on="0"/>
        <pt x="587" y="550" on="0"/>
        <pt x="579" y="493" on="0"/>
        <pt x="569" y="436" on="0"/>
        <pt x="563" y="415" on="1"/>
        <pt x="439" y="415" on="1"/>
        <pt x="403" y="558" on="1"/>
        <pt x="378" y="567" on="0"/>
        <pt x="324" y="579" on="0"/>
        <pt x="293" y="582" on="1"/>
        <pt x="254" y="540" on="0"/>
        <pt x="216" y="414" on="0"/>
        <pt x="216" y="350" on="1"/>
        <pt x="216" y="300" on="0"/>
        <pt x="239" y="212" on="0"/>
        <pt x="285" y="148" on="0"/>
        <pt x="355" y="110" on="0"/>
        <pt x="402" y="110" on="1"/>
        <pt x="577" y="164" on="1"/>
        <pt x="608" y="71" on="1"/>
      </contour>
    </TTGlyph>
    <TTGlyph name="Cacute" xMin="8" yMin="-17" xMax="608" yMax="922">
      <component glyphName="C" x="0" y="0" flags="0x204"/>
      <component glyphName="acutecomb.case" x="341" y="0" flags="0x4"/>
    </TTGlyph>
    <TTGlyph name="Ccaron" xMin="8" yMin="-17" xMax="608" yMax="937">
      <component glyphName="C" x="0" y="0" flags="0x204"/>
      <component glyphName="uni030C.case" x="342" y="140" flags="0x4"/>
    </TTGlyph>
    <TTGlyph name="Ccedilla" xMin="8" yMin="-273" xMax="608" yMax="686">
      <component glyphName="C" x="0" y="0" flags="0x204"/>
      <component glyphName="uni0327.case" x="342" y="0" flags="0x4"/>
    </TTGlyph>
    <TTGlyph name="Chi" xMin="-6" yMin="0" xMax="749" yMax="666">
      <component glyphName="X" x="0" y="0" flags="0x204"/>
    </TTGlyph>
    <TTGlyph name="D" xMin="22" yMin="0" xMax="749" yMax="674">
      <contour>
        <pt x="22" y="32" on="1"/>
        <pt x="41" y="46" on="0"/>
        <pt x="83" y="72" on="0"/>
        <pt x="107" y="84" on="1"/>
        <pt x="107" y="599" on="1"/>
        <pt x="36" y="611" on="1"/>
        <pt x="37" y="666" on="1"/>
        <pt x="124" y="670" on="0"/>
        <pt x="295" y="674" on="0"/>
        <pt x="382" y="674" on="1"/>
        <pt x="474" y="674" on="0"/>
        <pt x="613" y="614" on="0"/>
        <pt x="704" y="519" on="0"/>
        <pt x="749" y="399" on="0"/>
        <pt x="749" y="339" on="1"/>
        <pt x="749" y="273" on="0"/>
        <pt x="705" y="150" on="0"/>
        <pt x="616" y="57" on="0"/>
        <pt x="480" y="0" on="0"/>
        <pt x="390" y="0" on="1"/>
        <pt x="28" y="0" on="1"/>
      </contour>
      <contour>
        <pt x="424" y="577" on="1"/>
        <pt x="317" y="562" on="1"/>
        <pt x="317" y="110" on="1"/>
        <pt x="333" y="105" on="0"/>
        <pt x="363" y="100" on="0"/>
        <pt x="376" y="100" on="1"/>
        <pt x="416" y="100" on="0"/>
        <pt x="475" y="140" on="0"/>
        <pt x="513" y="204" on="0"/>
        <pt x="532" y="286" on="0"/>
        <pt x="532" y="327" on="1"/>
        <pt x="532" y="364" on="0"/>
        <pt x="517" y="438" on="0"/>
        <pt x="490" y="505" on="0"/>
        <pt x="449" y="559" on="0"/>
      </contour>
    </TTGlyph>
    <TTGlyph name="Dcaron" xMin="22" yMin="0" xMax="749" yMax="937">
      <component glyphName="D" x="0" y="0" flags="0x204"/>
      <component glyphName="uni030C.case" x="381" y="140" flags="0x4"/>
    </TTGlyph>
    <TTGlyph name="Dcroat" xMin="12" yMin="0" xMax="749" yMax="674">
      <contour>
        <pt x="22" y="32" on="1"/>
        <pt x="41" y="46" on="0"/>
        <pt x="83" y="72" on="0"/>
        <pt x="107" y="84" on="1"/>
        <pt x="107" y="262" on="1"/>
        <pt x="18" y="262" on="1"/>
        <pt x="12" y="299" on="1"/>
        <pt x="55" y="342" on="1"/>
        <pt x="107" y="342" on="1"/>
        <pt x="107" y="599" on="1"/>
        <pt x="36" y="611" on="1"/>
        <pt x="37" y="666" on="1"/>
        <pt x="124" y="670" on="0"/>
        <pt x="295" y="674" on="0"/>
        <pt x="382" y="674" on="1"/>
        <pt x="474" y="674" on="0"/>
        <pt x="613" y="614" on="0"/>
        <pt x="704" y="519" on="0"/>
        <pt x="749" y="399" on="0"/>
        <pt x="749" y="339" on="1"/>
        <pt x="749" y="273" on="0"/>
        <pt x="705" y="150" on="0"/>
        <pt x="616" y="57" on="0"/>
        <pt x="480" y="0" on="0"/>
        <pt x="390" y="0" on="1"/>
        <pt x="28" y="0" on="1"/>
      </contour>
      <contour>
        <pt x="400" y="262" on="1"/>
        <pt x="317" y="262" on="1"/>
        <pt x="317" y="110" on="1"/>
        <pt x="333" y="105" on="0"/>
        <pt x="363" y="100" on="0"/>
        <pt x="376" y="100" on="1"/>
        <pt x="416" y="100" on="0"/>
        <pt x="475" y="140" on="0"/>
        <pt x="513" y="204" on="0"/>
        <pt x="532" y="286" on="0"/>
        <pt x="532" y="327" on="1"/>
        <pt x="532" y="364" on="0"/>
        <pt x="517" y="438" on="0"/>
        <pt x="490" y="505" on="0"/>
        <pt x="449" y="559" on="0"/>
        <pt x="424" y="577" on="1"/>
        <pt x="317" y="562" on="1"/>
        <pt x="317" y="342" on="1"/>
        <pt x="437" y="342" on="1"/>
        <pt x="443" y="305" on="1"/>
      </contour>
    </TTGlyph>
    <TTGlyph name="Delta" xMin="17" yMin="0" xMax="676" yMax="690">
      <contour>
        <pt x="17" y="87" on="1"/>
        <pt x="252" y="603" on="1"/>
        <pt x="235" y="645" on="1"/>
        <pt x="417" y="690" on="1"/>
        <pt x="676" y="104" on="1"/>
        <pt x="632" y="0" on="1"/>
        <pt x="56" y="0" on="1"/>
      </contour>
      <contour>
        <pt x="311" y="461" on="1"/>
        <pt x="174" y="126" on="1"/>
        <pt x="447" y="130" on="1"/>
      </contour>
    </TTGlyph>
    <TTGlyph name="E" xMin="22" yMin="0" xMax="620" yMax="666">
      <contour>
        <pt x="22" y="32" on="1"/>
        <pt x="41" y="46" on="0"/>
        <pt x="83" y="72" on="0"/>
        <pt x="107" y="84" on="1"/>
        <pt x="107" y="598" on="1"/>
        <pt x="31" y="611" on="1"/>
        <pt x="32" y="666" on="1"/>
        <pt x="617" y="666" on="1"/>
        <pt x="618" y="649" on="0"/>
        <pt x="616" y="597" on="0"/>
        <pt x="610" y="538" on="0"/>
        <pt x="602" y="477" on="0"/>
        <pt x="596" y="451" on="1"/>
        <pt x="481" y="451" on="1"/>
        <pt x="461" y="557" on="1"/>
        <pt x="317" y="567" on="1"/>
        <pt x="317" y="376" on="1"/>
        <pt x="520" y="393" on="1"/>
        <pt x="520" y="278" on="1"/>
        <pt x="317" y="286" on="1"/>
        <pt x="317" y="101" on="1"/>
        <pt x="466" y="114" on="1"/>
        <pt x="505" y="227" on="1"/>
        <pt x="620" y="218" on="1"/>
        <pt x="621" y="196" on="0"/>
        <pt x="619" y="140" on="0"/>
        <pt x="616" y="82" on="0"/>
        <pt x="611" y="24" on="0"/>
        <pt x="608" y="0" on="1"/>
        <pt x="607" y="0" on="1"/>
        <pt x="607" y="0" on="1"/>
        <pt x="28" y="0" on="1"/>
      </contour>
    </TTGlyph>
    <TTGlyph name="Eacute" xMin="22" yMin="0" xMax="620" yMax="922">
      <component glyphName="E" x="0" y="0" flags="0x204"/>
      <component glyphName="acutecomb.case" x="331" y="0" flags="0x4"/>
    </TTGlyph>
    <TTGlyph name="Ecaron" xMin="22" yMin="0" xMax="620" yMax="937">
      <component glyphName="E" x="0" y="0" flags="0x204"/>
      <component glyphName="uni030C.case" x="332" y="140" flags="0x4"/>
    </TTGlyph>
    <TTGlyph name="Ecircumflex" xMin="22" yMin="0" xMax="620" yMax="944">
      <component glyphName="E" x="0" y="0" flags="0x204"/>
      <component glyphName="uni0302.case" x="332" y="140" flags="0x4"/>
    </TTGlyph>
    <TTGlyph name="Edieresis" xMin="22" yMin="0" xMax="620" yMax="936">
      <component glyphName="E" x="0" y="0" flags="0x204"/>
      <component glyphName="uni0308.case" x="332" y="176" flags="0x4"/>
    </TTGlyph>
    <TTGlyph name="Edotaccent" xMin="22" yMin="0" xMax="620" yMax="936">
      <component glyphName="E" x="0" y="0" flags="0x204"/>
      <component glyphName="uni0307.case" x="332" y="176" flags="0x4"/>
    </TTGlyph>
    <TTGlyph name="Egrave" xMin="22" yMin="0" xMax="620" yMax="922">
      <component glyphName="E" x="0" y="0" flags="0x204"/>
      <component glyphName="gravecomb.case" x="332" y="0" flags="0x4"/>
    </TTGlyph>
    <TTGlyph name="Emacron" xMin="22" yMin="0" xMax="620" yMax="851">
      <component glyphName="E" x="0" y="0" flags="0x204"/>
      <component glyphName="uni0304.case" x="331" y="0" flags="0x4"/>
    </TTGlyph>
    <TTGlyph name="Eogonek" xMin="22" yMin="-297" xMax="632" yMax="666">
      <component glyphName="E" x="0" y="0" flags="0x204"/>
      <component glyphName="uni0328.case" x="642" y="-11" flags="0x4"/>
    </TTGlyph>
    <TTGlyph name="Epsilon" xMin="22" yMin="0" xMax="620" yMax="666">
      <component glyphName="E" x="0" y="0" flags="0x204"/>
    </TTGlyph>
    <TTGlyph name="Epsilonacute" xMin="-200" yMin="0" xMax="620" yMax="676">
      <component glyphName="Epsilon" x="0" y="0" flags="0x204"/>
      <component glyphName="grAcute.case" x="-180" y="0" flags="0x4"/>
    </TTGlyph>
    <TTGlyph name="Epsilonasper" xMin="-189" yMin="0" xMax="620" yMax="678">
      <component glyphName="Epsilon" x="0" y="0" flags="0x204"/>
      <component glyphName="asper.case" x="-227" y="0" flags="0x4"/>
    </TTGlyph>
    <TTGlyph name="Epsilonasperacute" xMin="-386" yMin="0" xMax="620" yMax="678">
      <component glyphName="Epsilon" x="0" y="0" flags="0x204"/>
      <component glyphName="asperacute.case" x="-376" y="0" flags="0x4"/>
    </TTGlyph>
    <TTGlyph name="Epsilonaspergrave" xMin="-394" yMin="0" xMax="620" yMax="678">
      <component glyphName="Epsilon" x="0" y="0" flags="0x204"/>
      <component glyphName="aspergrave.case" x="-384" y="0" flags="0x4"/>
    </TTGlyph>
    <TTGlyph name="Epsilongrave" xMin="-202" yMin="0" xMax="620" yMax="676">
      <component glyphName="Epsilon" x="0" y="0" flags="0x204"/>
      <component glyphName="grGrave.case" x="-242" y="0" flags="0x4"/>
    </TTGlyph>
    <TTGlyph name="Epsilonlenis" xMin="-193" yMin="0" xMax="620" yMax="678">
      <component glyphName="Epsilon" x="0" y="0" flags="0x204"/>
      <component glyphName="lenis.case" x="-180" y="0" flags="0x4"/>
    </TTGlyph>
    <TTGlyph name="Epsilonlenisacute" xMin="-372" yMin="0" xMax="620" yMax="678">
      <component glyphName="Epsilon" x="0" y="0" flags="0x204"/>
      <component glyphName="lenisacute.case" x="-254" y="0" flags="0x4"/>
    </TTGlyph>
    <TTGlyph name="Epsilonlenisgrave" xMin="-402" yMin="0" xMax="620" yMax="678">
      <component glyphName="Epsilon" x="0" y="0" flags="0x204"/>
      <component glyphName="lenisgrave.case" x="-280" y="0" flags="0x4"/>
    </TTGlyph>
    <TTGlyph name="Epsilonwithtonos" xMin="-200" yMin="0" xMax="620" yMax="676">
      <component glyphName="Epsilon" x="0" y="0" flags="0x204"/>
      <component glyphName="tonos.case" x="-180" y="0" flags="0x4"/>
    </TTGlyph>
    <TTGlyph name="Eta" xMin="22" yMin="0" xMax="833" yMax="666">
      <component glyphName="H" x="0" y="0" flags="0x204"/>
    </TTGlyph>
    <TTGlyph name="Etaacute" xMin="-199" yMin="0" xMax="833" yMax="676">
      <component glyphName="Eta" x="0" y="0" flags="0x204"/>
      <component glyphName="grAcute.case" x="-179" y="0" flags="0x4"/>
    </TTGlyph>
    <TTGlyph name="Etaasper" xMin="-188" yMin="0" xMax="833" yMax="678">
      <component glyphName="Eta" x="0" y="0" flags="0x204"/>
      <component glyphName="asper.case" x="-226" y="0" flags="0x4"/>
    </TTGlyph>
    <TTGlyph name="Etaasperacute" xMin="-385" yMin="0" xMax="833" yMax="678">
      <component glyphName="Eta" x="0" y="0" flags="0x204"/>
      <component glyphName="asperacute.case" x="-375" y="0" flags="0x4"/>
    </TTGlyph>
    <TTGlyph name="Etaasperacuteiotasub" xMin="-385" yMin="-222" xMax="833" yMax="678">
      <component glyphName="Eta" x="0" y="0" flags="0x204"/>
      <component glyphName="asperacute.case" x="-375" y="0" flags="0x4"/>
      <component glyphName="iotaadscript.case" x="313" y="0" flags="0x4"/>
    </TTGlyph>
    <TTGlyph name="Etaaspergrave" xMin="-393" yMin="0" xMax="833" yMax="678">
      <component glyphName="Eta" x="0" y="0" flags="0x204"/>
      <component glyphName="aspergrave.case" x="-383" y="0" flags="0x4"/>
    </TTGlyph>
    <TTGlyph name="Etaaspergraveiotasub" xMin="-393" yMin="-222" xMax="833" yMax="678">
      <component glyphName="Eta" x="0" y="0" flags="0x204"/>
      <component glyphName="aspergrave.case" x="-383" y="0" flags="0x4"/>
      <component glyphName="iotaadscript.case" x="313" y="0" flags="0x4"/>
    </TTGlyph>
    <TTGlyph name="Etaasperiotasub" xMin="-188" yMin="-222" xMax="833" yMax="678">
      <component glyphName="Eta" x="0" y="0" flags="0x204"/>
      <component glyphName="asper.case" x="-226" y="0" flags="0x4"/>
      <component glyphName="iotaadscript.case" x="313" y="0" flags="0x4"/>
    </TTGlyph>
    <TTGlyph name="Etaaspertilde" xMin="-470" yMin="0" xMax="833" yMax="678">
      <component glyphName="Eta" x="0" y="0" flags="0x204"/>
      <component glyphName="aspertilde.case" x="-250" y="0" flags="0x4"/>
    </TTGlyph>
    <TTGlyph name="Etaaspertildeiotasub" xMin="-470" yMin="-222" xMax="833" yMax="678">
      <component glyphName="Eta" x="0" y="0" flags="0x204"/>
      <component glyphName="aspertilde.case" x="-250" y="0" flags="0x4"/>
      <component glyphName="iotaadscript.case" x="313" y="0" flags="0x4"/>
    </TTGlyph>
    <TTGlyph name="Etagrave" xMin="-201" yMin="0" xMax="833" yMax="676">
      <component glyphName="Eta" x="0" y="0" flags="0x204"/>
      <component glyphName="grGrave.case" x="-241" y="0" flags="0x4"/>
    </TTGlyph>
    <TTGlyph name="Etaiotasub" xMin="22" yMin="-222" xMax="833" yMax="666">
      <component glyphName="Eta" x="0" y="0" flags="0x204"/>
      <component glyphName="iotaadscript.case" x="313" y="0" flags="0x4"/>
    </TTGlyph>
    <TTGlyph name="Etalenis" xMin="-192" yMin="0" xMax="833" yMax="678">
      <component glyphName="Eta" x="0" y="0" flags="0x204"/>
      <component glyphName="lenis.case" x="-179" y="0" flags="0x4"/>
    </TTGlyph>
    <TTGlyph name="Etalenisacute" xMin="-371" yMin="0" xMax="833" yMax="678">
      <component glyphName="Eta" x="0" y="0" flags="0x204"/>
      <component glyphName="lenisacute.case" x="-253" y="0" flags="0x4"/>
    </TTGlyph>
    <TTGlyph name="Etalenisacuteiotasub" xMin="-371" yMin="-222" xMax="833" yMax="678">
      <component glyphName="Eta" x="0" y="0" flags="0x204"/>
      <component glyphName="lenisacute.case" x="-253" y="0" flags="0x4"/>
      <component glyphName="iotaadscript.case" x="313" y="0" flags="0x4"/>
    </TTGlyph>
    <TTGlyph name="Etalenisgrave" xMin="-401" yMin="0" xMax="833" yMax="678">
      <component glyphName="Eta" x="0" y="0" flags="0x204"/>
      <component glyphName="lenisgrave.case" x="-279" y="0" flags="0x4"/>
    </TTGlyph>
    <TTGlyph name="Etalenisgraveiotasub" xMin="-401" yMin="-222" xMax="833" yMax="678">
      <component glyphName="Eta" x="0" y="0" flags="0x204"/>
      <component glyphName="lenisgrave.case" x="-279" y="0" flags="0x4"/>
      <component glyphName="iotaadscript.case" x="313" y="0" flags="0x4"/>
    </TTGlyph>
    <TTGlyph name="Etalenisiotasub" xMin="-192" yMin="-222" xMax="833" yMax="678">
      <component glyphName="Eta" x="0" y="0" flags="0x204"/>
      <component glyphName="lenis.case" x="-179" y="0" flags="0x4"/>
      <component glyphName="iotaadscript.case" x="313" y="0" flags="0x4"/>
    </TTGlyph>
    <TTGlyph name="Etalenistilde" xMin="-470" yMin="0" xMax="833" yMax="678">
      <component glyphName="Eta" x="0" y="0" flags="0x204"/>
      <component glyphName="lenistilde.case" x="-250" y="0" flags="0x4"/>
    </TTGlyph>
    <TTGlyph name="Etalenistildeiotasub" xMin="-470" yMin="-222" xMax="833" yMax="678">
      <component glyphName="Eta" x="0" y="0" flags="0x204"/>
      <component glyphName="lenistilde.case" x="-250" y="0" flags="0x4"/>
      <component glyphName="iotaadscript.case" x="313" y="0" flags="0x4"/>
    </TTGlyph>
    <TTGlyph name="Etawithtonos" xMin="-199" yMin="0" xMax="833" yMax="676">
      <component glyphName="Eta" x="0" y="0" flags="0x204"/>
      <component glyphName="tonos.case" x="-179" y="0" flags="0x4"/>
    </TTGlyph>
    <TTGlyph name="Eth" xMin="12" yMin="0" xMax="749" yMax="674">
      <component glyphName="Dcroat" x="0" y="0" flags="0x204"/>
    </TTGlyph>
    <TTGlyph name="Euro" xMin="-23" yMin="-22" xMax="656" yMax="670">
      <contour>
        <pt x="-23" y="225" on="1"/>
        <pt x="18" y="274" on="1"/>
        <pt x="88" y="274" on="1"/>
        <pt x="87" y="283" on="0"/>
        <pt x="86" y="301" on="0"/>
        <pt x="86" y="310" on="1"/>
        <pt x="86" y="314" on="0"/>
        <pt x="86" y="325" on="0"/>
        <pt x="86" y="329" on="1"/>
        <pt x="5" y="329" on="1"/>
        <pt x="-1" y="356" on="1"/>
        <pt x="40" y="405" on="1"/>
        <pt x="98" y="405" on="1"/>
        <pt x="111" y="458" on="0"/>
        <pt x="167" y="554" on="0"/>
        <pt x="253" y="627" on="0"/>
        <pt x="369" y="670" on="0"/>
        <pt x="442" y="670" on="1"/>
        <pt x="505" y="670" on="0"/>
        <pt x="616" y="637" on="0"/>
        <pt x="655" y="607" on="1"/>
        <pt x="656" y="607" on="1"/>
        <pt x="649" y="557" on="0"/>
        <pt x="629" y="476" on="0"/>
        <pt x="616" y="442" on="1"/>
        <pt x="526" y="442" on="1"/>
        <pt x="510" y="527" on="1"/>
        <pt x="476" y="543" on="0"/>
        <pt x="408" y="555" on="0"/>
        <pt x="374" y="553" on="1"/>
        <pt x="344" y="526" on="0"/>
        <pt x="303" y="451" on="0"/>
        <pt x="293" y="405" on="1"/>
        <pt x="583" y="405" on="1"/>
        <pt x="589" y="378" on="1"/>
        <pt x="548" y="329" on="1"/>
        <pt x="285" y="329" on="1"/>
        <pt x="285" y="325" on="1"/>
        <pt x="285" y="312" on="0"/>
        <pt x="287" y="286" on="0"/>
        <pt x="288" y="274" on="1"/>
        <pt x="543" y="274" on="1"/>
        <pt x="549" y="247" on="1"/>
        <pt x="508" y="198" on="1"/>
        <pt x="311" y="198" on="1"/>
        <pt x="333" y="157" on="0"/>
        <pt x="414" y="107" on="0"/>
        <pt x="476" y="103" on="1"/>
        <pt x="622" y="141" on="1"/>
        <pt x="652" y="51" on="1"/>
        <pt x="468" y="-22" on="1"/>
        <pt x="383" y="-25" on="0"/>
        <pt x="257" y="10" on="0"/>
        <pt x="170" y="72" on="0"/>
        <pt x="116" y="154" on="0"/>
        <pt x="103" y="198" on="1"/>
        <pt x="-17" y="198" on="1"/>
      </contour>
    </TTGlyph>
    <TTGlyph name="F" xMin="22" yMin="0" xMax="609" yMax="666">
      <contour>
        <pt x="22" y="32" on="1"/>
        <pt x="38" y="45" on="0"/>
        <pt x="77" y="69" on="0"/>
        <pt x="99" y="80" on="1"/>
        <pt x="99" y="598" on="1"/>
        <pt x="23" y="611" on="1"/>
        <pt x="24" y="666" on="1"/>
        <pt x="609" y="666" on="1"/>
        <pt x="610" y="649" on="0"/>
        <pt x="608" y="594" on="0"/>
        <pt x="602" y="532" on="0"/>
        <pt x="594" y="469" on="0"/>
        <pt x="588" y="443" on="1"/>
        <pt x="473" y="443" on="1"/>
        <pt x="452" y="558" on="1"/>
        <pt x="309" y="568" on="1"/>
        <pt x="309" y="357" on="1"/>
        <pt x="528" y="373" on="1"/>
        <pt x="528" y="250" on="1"/>
        <pt x="309" y="261" on="1"/>
        <pt x="309" y="77" on="1"/>
        <pt x="433" y="55" on="1"/>
        <pt x="432" y="0" on="1"/>
        <pt x="28" y="0" on="1"/>
      </contour>
    </TTGlyph>
    <TTGlyph name="G" xMin="8" yMin="-20" xMax="707" yMax="686">
      <contour>
        <pt x="400" y="-20" on="1"/>
        <pt x="287" y="-26" on="0"/>
        <pt x="135" y="37" on="0"/>
        <pt x="46" y="138" on="0"/>
        <pt x="8" y="264" on="0"/>
        <pt x="8" y="321" on="1"/>
        <pt x="8" y="392" on="0"/>
        <pt x="59" y="524" on="0"/>
        <pt x="157" y="625" on="0"/>
        <pt x="301" y="686" on="0"/>
        <pt x="394" y="686" on="1"/>
        <pt x="477" y="686" on="0"/>
        <pt x="591" y="643" on="0"/>
        <pt x="619" y="625" on="1"/>
        <pt x="620" y="608" on="0"/>
        <pt x="618" y="559" on="0"/>
        <pt x="611" y="506" on="0"/>
        <pt x="601" y="452" on="0"/>
        <pt x="595" y="430" on="1"/>
        <pt x="472" y="430" on="1"/>
        <pt x="436" y="560" on="1"/>
        <pt x="406" y="569" on="0"/>
        <pt x="336" y="581" on="0"/>
        <pt x="295" y="582" on="1"/>
        <pt x="255" y="542" on="0"/>
        <pt x="215" y="418" on="0"/>
        <pt x="215" y="353" on="1"/>
        <pt x="215" y="306" on="0"/>
        <pt x="237" y="217" on="0"/>
        <pt x="282" y="148" on="0"/>
        <pt x="351" y="104" on="0"/>
        <pt x="398" y="101" on="1"/>
        <pt x="409" y="100" on="0"/>
        <pt x="433" y="101" on="0"/>
        <pt x="445" y="102" on="1"/>
        <pt x="445" y="219" on="1"/>
        <pt x="420" y="231" on="0"/>
        <pt x="374" y="257" on="0"/>
        <pt x="355" y="272" on="1"/>
        <pt x="361" y="305" on="1"/>
        <pt x="706" y="305" on="1"/>
        <pt x="707" y="258" on="1"/>
        <pt x="631" y="236" on="1"/>
        <pt x="631" y="67" on="1"/>
      </contour>
    </TTGlyph>
    <TTGlyph name="Gamma" xMin="22" yMin="0" xMax="612" yMax="666">
      <contour>
        <pt x="22" y="32" on="1"/>
        <pt x="41" y="46" on="0"/>
        <pt x="83" y="72" on="0"/>
        <pt x="107" y="84" on="1"/>
        <pt x="107" y="598" on="1"/>
        <pt x="31" y="611" on="1"/>
        <pt x="32" y="666" on="1"/>
        <pt x="612" y="666" on="1"/>
        <pt x="613" y="649" on="0"/>
        <pt x="611" y="597" on="0"/>
        <pt x="605" y="538" on="0"/>
        <pt x="597" y="477" on="0"/>
        <pt x="591" y="451" on="1"/>
        <pt x="476" y="451" on="1"/>
        <pt x="456" y="557" on="1"/>
        <pt x="317" y="567" on="1"/>
        <pt x="317" y="77" on="1"/>
        <pt x="441" y="55" on="1"/>
        <pt x="440" y="0" on="1"/>
        <pt x="28" y="0" on="1"/>
      </contour>
    </TTGlyph>
    <TTGlyph name="Gbreve" xMin="8" yMin="-20" xMax="707" yMax="895">
      <component glyphName="G" x="0" y="0" flags="0x204"/>
      <component glyphName="uni0306.case" x="359" y="0" flags="0x4"/>
    </TTGlyph>
    <TTGlyph name="Gcommaaccent" xMin="8" yMin="-331" xMax="707" yMax="686">
      <component glyphName="G" x="0" y="0" flags="0x204"/>
      <component glyphName="uni0326.case" x="358" y="0" flags="0x4"/>
    </TTGlyph>
    <TTGlyph name="H" xMin="22" yMin="0" xMax="833" yMax="666">
      <contour>
        <pt x="22" y="32" on="1"/>
        <pt x="41" y="46" on="0"/>
        <pt x="83" y="72" on="0"/>
        <pt x="107" y="84" on="1"/>
        <pt x="107" y="598" on="1"/>
        <pt x="30" y="611" on="1"/>
        <pt x="31" y="666" on="1"/>
        <pt x="396" y="666" on="1"/>
        <pt x="402" y="634" on="1"/>
        <pt x="383" y="620" on="0"/>
        <pt x="341" y="594" on="0"/>
        <pt x="317" y="582" on="1"/>
        <pt x="317" y="383" on="1"/>
        <pt x="534" y="383" on="1"/>
        <pt x="534" y="598" on="1"/>
        <pt x="457" y="611" on="1"/>
        <pt x="458" y="666" on="1"/>
        <pt x="823" y="666" on="1"/>
        <pt x="829" y="634" on="1"/>
        <pt x="810" y="620" on="0"/>
        <pt x="768" y="594" on="0"/>
        <pt x="744" y="582" on="1"/>
        <pt x="744" y="70" on="1"/>
        <pt x="833" y="55" on="1"/>
        <pt x="832" y="0" on="1"/>
        <pt x="455" y="0" on="1"/>
        <pt x="449" y="32" on="1"/>
        <pt x="468" y="46" on="0"/>
        <pt x="510" y="72" on="0"/>
        <pt x="534" y="84" on="1"/>
        <pt x="534" y="281" on="1"/>
        <pt x="317" y="281" on="1"/>
        <pt x="317" y="70" on="1"/>
        <pt x="406" y="55" on="1"/>
        <pt x="405" y="0" on="1"/>
        <pt x="28" y="0" on="1"/>
      </contour>
    </TTGlyph>
    <TTGlyph name="I" xMin="22" yMin="0" xMax="406" yMax="666">
      <contour>
        <pt x="22" y="32" on="1"/>
        <pt x="41" y="46" on="0"/>
        <pt x="83" y="72" on="0"/>
        <pt x="107" y="84" on="1"/>
        <pt x="107" y="598" on="1"/>
        <pt x="30" y="611" on="1"/>
        <pt x="31" y="666" on="1"/>
        <pt x="396" y="666" on="1"/>
        <pt x="402" y="634" on="1"/>
        <pt x="383" y="620" on="0"/>
        <pt x="341" y="594" on="0"/>
        <pt x="317" y="582" on="1"/>
        <pt x="317" y="70" on="1"/>
        <pt x="406" y="55" on="1"/>
        <pt x="405" y="0" on="1"/>
        <pt x="28" y="0" on="1"/>
      </contour>
    </TTGlyph>
    <TTGlyph name="Iacute" xMin="22" yMin="0" xMax="406" yMax="922">
      <component glyphName="I" x="0" y="0" flags="0x204"/>
      <component glyphName="acutecomb.case" x="212" y="0" flags="0x4"/>
    </TTGlyph>
    <TTGlyph name="Icircumflex" xMin="-8" yMin="0" xMax="438" yMax="944">
      <component glyphName="I" x="0" y="0" flags="0x204"/>
      <component glyphName="uni0302.case" x="213" y="140" flags="0x4"/>
    </TTGlyph>
    <TTGlyph name="Idieresis" xMin="-15" yMin="0" xMax="442" yMax="936">
      <component glyphName="I" x="0" y="0" flags="0x204"/>
      <component glyphName="uni0308.case" x="213" y="176" flags="0x4"/>
    </TTGlyph>
    <TTGlyph name="Idotaccent" xMin="22" yMin="0" xMax="406" yMax="936">
      <component glyphName="I" x="0" y="0" flags="0x204"/>
      <component glyphName="uni0307.case" x="213" y="176" flags="0x4"/>
    </TTGlyph>
    <TTGlyph name="Igrave" xMin="22" yMin="0" xMax="406" yMax="922">
      <component glyphName="I" x="0" y="0" flags="0x204"/>
      <component glyphName="gravecomb.case" x="213" y="0" flags="0x4"/>
    </TTGlyph>
    <TTGlyph name="Imacron" xMin="22" yMin="0" xMax="412" yMax="846">
      <contour>
        <pt x="31" y="821" on="1"/>
        <pt x="60" y="836" on="0"/>
        <pt x="121" y="846" on="0"/>
        <pt x="144" y="846" on="1"/>
        <pt x="407" y="846" on="1"/>
        <pt x="412" y="787" on="1"/>
        <pt x="365" y="737" on="1"/>
        <pt x="37" y="737" on="1"/>
      </contour>
      <contour>
        <pt x="22" y="32" on="1"/>
        <pt x="41" y="46" on="0"/>
        <pt x="83" y="72" on="0"/>
        <pt x="107" y="84" on="1"/>
        <pt x="107" y="598" on="1"/>
        <pt x="30" y="611" on="1"/>
        <pt x="31" y="666" on="1"/>
        <pt x="396" y="666" on="1"/>
        <pt x="402" y="634" on="1"/>
        <pt x="383" y="620" on="0"/>
        <pt x="341" y="594" on="0"/>
        <pt x="317" y="582" on="1"/>
        <pt x="317" y="70" on="1"/>
        <pt x="406" y="55" on="1"/>
        <pt x="405" y="0" on="1"/>
        <pt x="28" y="0" on="1"/>
      </contour>
    </TTGlyph>
    <TTGlyph name="Iogonek" xMin="22" yMin="-295" xMax="406" yMax="666">
      <component glyphName="I" x="0" y="0" flags="0x204"/>
      <component glyphName="uni0328.case" x="350" y="-9" flags="0x4"/>
    </TTGlyph>
    <TTGlyph name="Iota" xMin="22" yMin="0" xMax="406" yMax="666">
      <component glyphName="I" x="0" y="0" flags="0x204"/>
    </TTGlyph>
    <TTGlyph name="Iotaacute" xMin="-200" yMin="0" xMax="406" yMax="676">
      <component glyphName="Iota" x="0" y="0" flags="0x204"/>
      <component glyphName="grAcute.case" x="-180" y="0" flags="0x4"/>
    </TTGlyph>
    <TTGlyph name="Iotaasper" xMin="-189" yMin="0" xMax="406" yMax="678">
      <component glyphName="Iota" x="0" y="0" flags="0x204"/>
      <component glyphName="asper.case" x="-227" y="0" flags="0x4"/>
    </TTGlyph>
    <TTGlyph name="Iotaasperacute" xMin="-386" yMin="0" xMax="406" yMax="678">
      <component glyphName="Iota" x="0" y="0" flags="0x204"/>
      <component glyphName="asperacute.case" x="-376" y="0" flags="0x4"/>
    </TTGlyph>
    <TTGlyph name="Iotaaspergrave" xMin="-394" yMin="0" xMax="406" yMax="678">
      <component glyphName="Iota" x="0" y="0" flags="0x204"/>
      <component glyphName="aspergrave.case" x="-384" y="0" flags="0x4"/>
    </TTGlyph>
    <TTGlyph name="Iotaaspertilde" xMin="-471" yMin="0" xMax="406" yMax="678">
      <component glyphName="Iota" x="0" y="0" flags="0x204"/>
      <component glyphName="aspertilde.case" x="-251" y="0" flags="0x4"/>
    </TTGlyph>
    <TTGlyph name="Iotabreve" xMin="22" yMin="0" xMax="406" yMax="895">
      <component glyphName="Iota" x="0" y="0" flags="0x204"/>
      <component glyphName="uni0306.case" x="214" y="0" flags="0x4"/>
    </TTGlyph>
    <TTGlyph name="Iotadieresis" xMin="-15" yMin="0" xMax="442" yMax="936">
      <component glyphName="Iota" x="0" y="0" flags="0x204"/>
      <component glyphName="uni0308" x="213" y="176" flags="0x4"/>
    </TTGlyph>
    <TTGlyph name="Iotagrave" xMin="-202" yMin="0" xMax="406" yMax="676">
      <component glyphName="Iota" x="0" y="0" flags="0x204"/>
      <component glyphName="grGrave.case" x="-242" y="0" flags="0x4"/>
    </TTGlyph>
    <TTGlyph name="Iotalenis" xMin="-193" yMin="0" xMax="406" yMax="678">
      <component glyphName="Iota" x="0" y="0" flags="0x204"/>
      <component glyphName="lenis.case" x="-180" y="0" flags="0x4"/>
    </TTGlyph>
    <TTGlyph name="Iotalenisacute" xMin="-372" yMin="0" xMax="406" yMax="678">
      <component glyphName="Iota" x="0" y="0" flags="0x204"/>
      <component glyphName="lenisacute.case" x="-254" y="0" flags="0x4"/>
    </TTGlyph>
    <TTGlyph name="Iotalenisgrave" xMin="-402" yMin="0" xMax="406" yMax="678">
      <component glyphName="Iota" x="0" y="0" flags="0x204"/>
      <component glyphName="lenisgrave.case" x="-280" y="0" flags="0x4"/>
    </TTGlyph>
    <TTGlyph name="Iotalenistilde" xMin="-471" yMin="0" xMax="406" yMax="678">
      <component glyphName="Iota" x="0" y="0" flags="0x204"/>
      <component glyphName="lenistilde.case" x="-251" y="0" flags="0x4"/>
    </TTGlyph>
    <TTGlyph name="Iotawithmacron" xMin="10" yMin="0" xMax="436" yMax="851">
      <component glyphName="Iota" x="0" y="0" flags="0x204"/>
      <component glyphName="uni0304.case" x="212" y="0" flags="0x4"/>
    </TTGlyph>
    <TTGlyph name="Iotawithtonos" xMin="-200" yMin="0" xMax="406" yMax="676">
      <component glyphName="Iota" x="0" y="0" flags="0x204"/>
      <component glyphName="tonos.case" x="-180" y="0" flags="0x4"/>
    </TTGlyph>
    <TTGlyph name="J" xMin="-31" yMin="-190" xMax="407" yMax="666">
      <contour>
        <pt x="-31" y="-131" on="1"/>
        <pt x="0" y="-111" on="0"/>
        <pt x="53" y="-65" on="0"/>
        <pt x="91" y="0" on="0"/>
        <pt x="112" y="89" on="0"/>
        <pt x="112" y="152" on="1"/>
        <pt x="112" y="597" on="1"/>
        <pt x="31" y="611" on="1"/>
        <pt x="32" y="666" on="1"/>
        <pt x="401" y="666" on="1"/>
        <pt x="407" y="634" on="1"/>
        <pt x="388" y="620" on="0"/>
        <pt x="346" y="593" on="0"/>
        <pt x="321" y="581" on="1"/>
        <pt x="321" y="177" on="1"/>
        <pt x="321" y="93" on="0"/>
        <pt x="276" y="-27" on="0"/>
        <pt x="193" y="-111" on="0"/>
        <pt x="75" y="-168" on="0"/>
        <pt x="3" y="-190" on="1"/>
      </contour>
    </TTGlyph>
    <TTGlyph name="K" xMin="22" yMin="0" xMax="782" yMax="666">
      <contour>
        <pt x="22" y="32" on="1"/>
        <pt x="41" y="46" on="0"/>
        <pt x="83" y="72" on="0"/>
        <pt x="107" y="84" on="1"/>
        <pt x="107" y="598" on="1"/>
        <pt x="30" y="611" on="1"/>
        <pt x="31" y="666" on="1"/>
        <pt x="396" y="666" on="1"/>
        <pt x="402" y="634" on="1"/>
        <pt x="383" y="620" on="0"/>
        <pt x="341" y="594" on="0"/>
        <pt x="317" y="582" on="1"/>
        <pt x="317" y="389" on="1"/>
        <pt x="514" y="600" on="1"/>
        <pt x="451" y="611" on="1"/>
        <pt x="452" y="666" on="1"/>
        <pt x="732" y="666" on="1"/>
        <pt x="738" y="634" on="1"/>
        <pt x="722" y="621" on="0"/>
        <pt x="667" y="596" on="0"/>
        <pt x="641" y="586" on="1"/>
        <pt x="470" y="406" on="1"/>
        <pt x="719" y="70" on="1"/>
        <pt x="782" y="55" on="1"/>
        <pt x="781" y="0" on="1"/>
        <pt x="518" y="0" on="1"/>
        <pt x="334" y="263" on="1"/>
        <pt x="317" y="245" on="1"/>
        <pt x="317" y="68" on="1"/>
        <pt x="390" y="55" on="1"/>
        <pt x="389" y="0" on="1"/>
        <pt x="28" y="0" on="1"/>
      </contour>
    </TTGlyph>
    <TTGlyph name="KORONIS" xMin="61" yMin="531" xMax="237" yMax="806">
      <component glyphName="lenis" x="0" y="0" flags="0x204"/>
    </TTGlyph>
    <TTGlyph name="Kappa" xMin="22" yMin="0" xMax="782" yMax="666">
      <component glyphName="K" x="0" y="0" flags="0x204"/>
    </TTGlyph>
    <TTGlyph name="Kcommaaccent" xMin="22" yMin="-331" xMax="782" yMax="666">
      <component glyphName="K" x="0" y="0" flags="0x204"/>
      <component glyphName="uni0326.case" x="408" y="0" flags="0x4"/>
    </TTGlyph>
    <TTGlyph name="L" xMin="22" yMin="0" xMax="644" yMax="666">
      <contour>
        <pt x="22" y="32" on="1"/>
        <pt x="41" y="46" on="0"/>
        <pt x="83" y="72" on="0"/>
        <pt x="107" y="84" on="1"/>
        <pt x="107" y="598" on="1"/>
        <pt x="30" y="611" on="1"/>
        <pt x="31" y="666" on="1"/>
        <pt x="396" y="666" on="1"/>
        <pt x="402" y="634" on="1"/>
        <pt x="383" y="620" on="0"/>
        <pt x="341" y="594" on="0"/>
        <pt x="317" y="582" on="1"/>
        <pt x="317" y="101" on="1"/>
        <pt x="475" y="119" on="1"/>
        <pt x="525" y="272" on="1"/>
        <pt x="644" y="261" on="1"/>
        <pt x="645" y="234" on="0"/>
        <pt x="644" y="166" on="0"/>
        <pt x="640" y="96" on="0"/>
        <pt x="634" y="27" on="0"/>
        <pt x="629" y="0" on="1"/>
        <pt x="628" y="0" on="1"/>
        <pt x="628" y="0" on="1"/>
        <pt x="28" y="0" on="1"/>
      </contour>
    </TTGlyph>
    <TTGlyph name="Lacute" xMin="22" yMin="0" xMax="644" yMax="922">
      <component glyphName="L" x="0" y="0" flags="0x204"/>
      <component glyphName="acutecomb.case" x="229" y="0" flags="0x4"/>
    </TTGlyph>
    <TTGlyph name="Lamda" xMin="-20" yMin="0" xMax="757" yMax="690">
      <contour>
        <pt x="-20" y="32" on="1"/>
        <pt x="-2" y="46" on="0"/>
        <pt x="40" y="72" on="0"/>
        <pt x="64" y="84" on="1"/>
        <pt x="271" y="598" on="1"/>
        <pt x="254" y="645" on="1"/>
        <pt x="436" y="690" on="1"/>
        <pt x="686" y="67" on="1"/>
        <pt x="757" y="55" on="1"/>
        <pt x="756" y="0" on="1"/>
        <pt x="394" y="0" on="1"/>
        <pt x="388" y="32" on="1"/>
        <pt x="404" y="45" on="0"/>
        <pt x="442" y="69" on="0"/>
        <pt x="463" y="79" on="1"/>
        <pt x="330" y="439" on="1"/>
        <pt x="193" y="69" on="1"/>
        <pt x="274" y="55" on="1"/>
        <pt x="273" y="0" on="1"/>
        <pt x="-14" y="0" on="1"/>
      </contour>
    </TTGlyph>
    <TTGlyph name="Lcaron" xMin="22" yMin="0" xMax="647" yMax="756">
      <component glyphName="L" x="0" y="0" flags="0x204"/>
      <component glyphName="uni030C.calt" x="470" y="1" flags="0x4"/>
    </TTGlyph>
    <TTGlyph name="Lcommaaccent" xMin="22" yMin="-331" xMax="644" yMax="666">
      <component glyphName="L" x="0" y="0" flags="0x204"/>
      <component glyphName="uni0326.case" x="332" y="0" flags="0x4"/>
    </TTGlyph>
    <TTGlyph name="Lslash" xMin="22" yMin="0" xMax="659" yMax="666">
      <contour>
        <pt x="37" y="32" on="1"/>
        <pt x="56" y="46" on="0"/>
        <pt x="98" y="72" on="0"/>
        <pt x="122" y="84" on="1"/>
        <pt x="122" y="253" on="1"/>
        <pt x="49" y="221" on="1"/>
        <pt x="22" y="283" on="1"/>
        <pt x="122" y="327" on="1"/>
        <pt x="122" y="598" on="1"/>
        <pt x="45" y="611" on="1"/>
        <pt x="46" y="666" on="1"/>
        <pt x="411" y="666" on="1"/>
        <pt x="417" y="634" on="1"/>
        <pt x="398" y="620" on="0"/>
        <pt x="356" y="594" on="0"/>
        <pt x="332" y="582" on="1"/>
        <pt x="332" y="420" on="1"/>
        <pt x="433" y="464" on="1"/>
        <pt x="449" y="439" on="1"/>
        <pt x="432" y="388" on="1"/>
        <pt x="332" y="344" on="1"/>
        <pt x="332" y="101" on="1"/>
        <pt x="490" y="119" on="1"/>
        <pt x="540" y="272" on="1"/>
        <pt x="659" y="261" on="1"/>
        <pt x="660" y="234" on="0"/>
        <pt x="659" y="166" on="0"/>
        <pt x="655" y="96" on="0"/>
        <pt x="649" y="27" on="0"/>
        <pt x="644" y="0" on="1"/>
        <pt x="643" y="0" on="1"/>
        <pt x="643" y="0" on="1"/>
        <pt x="43" y="0" on="1"/>
      </contour>
    </TTGlyph>
    <TTGlyph name="M" xMin="22" yMin="-7" xMax="986" yMax="650">
      <contour>
        <pt x="22" y="32" on="1"/>
        <pt x="41" y="47" on="0"/>
        <pt x="85" y="73" on="0"/>
        <pt x="110" y="86" on="1"/>
        <pt x="120" y="578" on="1"/>
        <pt x="34" y="603" on="1"/>
        <pt x="35" y="650" on="1"/>
        <pt x="362" y="650" on="1"/>
        <pt x="361" y="649" on="1"/>
        <pt x="520" y="203" on="1"/>
        <pt x="689" y="650" on="1"/>
        <pt x="972" y="650" on="1"/>
        <pt x="978" y="618" on="1"/>
        <pt x="959" y="603" on="0"/>
        <pt x="913" y="576" on="0"/>
        <pt x="888" y="563" on="1"/>
        <pt x="896" y="73" on="1"/>
        <pt x="986" y="47" on="1"/>
        <pt x="985" y="0" on="1"/>
        <pt x="617" y="0" on="1"/>
        <pt x="611" y="32" on="1"/>
        <pt x="629" y="46" on="0"/>
        <pt x="672" y="72" on="0"/>
        <pt x="696" y="84" on="1"/>
        <pt x="695" y="264" on="1"/>
        <pt x="709" y="446" on="1"/>
        <pt x="544" y="16" on="1"/>
        <pt x="402" y="-7" on="1"/>
        <pt x="239" y="445" on="1"/>
        <pt x="253" y="264" on="1"/>
        <pt x="252" y="72" on="1"/>
        <pt x="337" y="47" on="1"/>
        <pt x="336" y="0" on="1"/>
        <pt x="28" y="0" on="1"/>
      </contour>
    </TTGlyph>
    <TTGlyph name="Mu" xMin="22" yMin="-7" xMax="986" yMax="650">
      <component glyphName="M" x="0" y="0" flags="0x204"/>
    </TTGlyph>
    <TTGlyph name="N" xMin="22" yMin="-14" xMax="780" yMax="666">
      <contour>
        <pt x="22" y="32" on="1"/>
        <pt x="41" y="46" on="0"/>
        <pt x="83" y="72" on="0"/>
        <pt x="107" y="84" on="1"/>
        <pt x="107" y="596" on="1"/>
        <pt x="32" y="611" on="1"/>
        <pt x="33" y="666" on="1"/>
        <pt x="299" y="666" on="1"/>
        <pt x="299" y="665" on="1"/>
        <pt x="575" y="247" on="1"/>
        <pt x="561" y="370" on="1"/>
        <pt x="561" y="594" on="1"/>
        <pt x="463" y="611" on="1"/>
        <pt x="464" y="666" on="1"/>
        <pt x="774" y="666" on="1"/>
        <pt x="780" y="634" on="1"/>
        <pt x="763" y="621" on="0"/>
        <pt x="724" y="596" on="0"/>
        <pt x="702" y="585" on="1"/>
        <pt x="695" y="0" on="1"/>
        <pt x="516" y="-14" on="1"/>
        <pt x="236" y="399" on="1"/>
        <pt x="249" y="280" on="1"/>
        <pt x="249" y="70" on="1"/>
        <pt x="337" y="55" on="1"/>
        <pt x="336" y="0" on="1"/>
        <pt x="28" y="0" on="1"/>
      </contour>
    </TTGlyph>
    <TTGlyph name="Nacute" xMin="22" yMin="-14" xMax="780" yMax="922">
      <component glyphName="N" x="0" y="0" flags="0x204"/>
      <component glyphName="acutecomb.case" x="380" y="0" flags="0x4"/>
    </TTGlyph>
    <TTGlyph name="Ncaron" xMin="22" yMin="-14" xMax="780" yMax="937">
      <component glyphName="N" x="0" y="0" flags="0x204"/>
      <component glyphName="uni030C.case" x="381" y="140" flags="0x4"/>
    </TTGlyph>
    <TTGlyph name="Ncommaaccent" xMin="22" yMin="-331" xMax="780" yMax="666">
      <component glyphName="N" x="0" y="0" flags="0x204"/>
      <component glyphName="uni0326.case" x="395" y="0" flags="0x4"/>
    </TTGlyph>
    <TTGlyph name="Ntilde" xMin="22" yMin="-14" xMax="780" yMax="915">
      <component glyphName="N" x="0" y="0" flags="0x204"/>
      <component glyphName="tildecomb.case" x="381" y="0" flags="0x4"/>
    </TTGlyph>
    <TTGlyph name="Nu" xMin="22" yMin="-14" xMax="780" yMax="666">
      <component glyphName="N" x="0" y="0" flags="0x204"/>
    </TTGlyph>
    <TTGlyph name="O" xMin="8" yMin="-20" xMax="690" yMax="686">
      <contour>
        <pt x="354" y="-20" on="1"/>
        <pt x="286" y="-20" on="0"/>
        <pt x="160" y="25" on="0"/>
        <pt x="65" y="112" on="0"/>
        <pt x="8" y="243" on="0"/>
        <pt x="8" y="328" on="1"/>
        <pt x="8" y="410" on="0"/>
        <pt x="61" y="543" on="0"/>
        <pt x="153" y="636" on="0"/>
        <pt x="277" y="686" on="0"/>
        <pt x="347" y="686" on="1"/>
        <pt x="416" y="686" on="0"/>
        <pt x="541" y="637" on="0"/>
        <pt x="634" y="545" on="0"/>
        <pt x="690" y="409" on="0"/>
        <pt x="690" y="323" on="1"/>
        <pt x="690" y="238" on="0"/>
        <pt x="635" y="108" on="0"/>
        <pt x="543" y="23" on="0"/>
        <pt x="420" y="-20" on="0"/>
      </contour>
      <contour>
        <pt x="372" y="85" on="1"/>
        <pt x="385" y="85" on="0"/>
        <pt x="402" y="90" on="0"/>
        <pt x="409" y="93" on="1"/>
        <pt x="437" y="123" on="0"/>
        <pt x="471" y="246" on="0"/>
        <pt x="471" y="321" on="1"/>
        <pt x="471" y="370" on="0"/>
        <pt x="455" y="464" on="0"/>
        <pt x="421" y="535" on="0"/>
        <pt x="369" y="579" on="0"/>
        <pt x="334" y="579" on="1"/>
        <pt x="321" y="579" on="0"/>
        <pt x="294" y="572" on="0"/>
        <pt x="283" y="568" on="1"/>
        <pt x="260" y="544" on="0"/>
        <pt x="227" y="432" on="0"/>
        <pt x="227" y="350" on="1"/>
        <pt x="227" y="228" on="0"/>
        <pt x="305" y="85" on="0"/>
      </contour>
    </TTGlyph>
    <TTGlyph name="OE" xMin="8" yMin="-18" xMax="964" yMax="685">
      <contour>
        <pt x="365" y="-18" on="1"/>
        <pt x="301" y="-18" on="0"/>
        <pt x="173" y="24" on="0"/>
        <pt x="72" y="109" on="0"/>
        <pt x="8" y="241" on="0"/>
        <pt x="8" y="330" on="1"/>
        <pt x="8" y="414" on="0"/>
        <pt x="67" y="546" on="0"/>
        <pt x="166" y="637" on="0"/>
        <pt x="296" y="685" on="0"/>
        <pt x="366" y="685" on="1"/>
        <pt x="397" y="685" on="0"/>
        <pt x="456" y="675" on="0"/>
        <pt x="483" y="666" on="1"/>
        <pt x="960" y="666" on="1"/>
        <pt x="961" y="649" on="0"/>
        <pt x="959" y="597" on="0"/>
        <pt x="953" y="538" on="0"/>
        <pt x="945" y="477" on="0"/>
        <pt x="939" y="451" on="1"/>
        <pt x="824" y="451" on="1"/>
        <pt x="804" y="555" on="1"/>
        <pt x="646" y="565" on="1"/>
        <pt x="646" y="376" on="1"/>
        <pt x="848" y="393" on="1"/>
        <pt x="848" y="278" on="1"/>
        <pt x="646" y="286" on="1"/>
        <pt x="646" y="108" on="1"/>
        <pt x="811" y="119" on="1"/>
        <pt x="849" y="227" on="1"/>
        <pt x="964" y="218" on="1"/>
        <pt x="965" y="196" on="0"/>
        <pt x="963" y="140" on="0"/>
        <pt x="960" y="82" on="0"/>
        <pt x="955" y="24" on="0"/>
        <pt x="952" y="0" on="1"/>
        <pt x="486" y="0" on="1"/>
        <pt x="457" y="-10" on="0"/>
        <pt x="396" y="-18" on="0"/>
      </contour>
      <contour>
        <pt x="215" y="340" on="1"/>
        <pt x="215" y="291" on="0"/>
        <pt x="234" y="199" on="0"/>
        <pt x="272" y="129" on="0"/>
        <pt x="331" y="87" on="0"/>
        <pt x="371" y="87" on="1"/>
        <pt x="387" y="87" on="0"/>
        <pt x="420" y="94" on="0"/>
        <pt x="436" y="101" on="1"/>
        <pt x="436" y="557" on="1"/>
        <pt x="417" y="567" on="0"/>
        <pt x="371" y="575" on="0"/>
        <pt x="351" y="575" on="1"/>
        <pt x="335" y="575" on="0"/>
        <pt x="303" y="571" on="0"/>
        <pt x="287" y="566" on="1"/>
        <pt x="253" y="536" on="0"/>
        <pt x="215" y="412" on="0"/>
      </contour>
    </TTGlyph>
    <TTGlyph name="Oacute" xMin="8" yMin="-20" xMax="690" yMax="922">
      <component glyphName="O" x="0" y="0" flags="0x204"/>
      <component glyphName="acutecomb.case" x="349" y="0" flags="0x4"/>
    </TTGlyph>
    <TTGlyph name="Ocircumflex" xMin="8" yMin="-20" xMax="690" yMax="944">
      <component glyphName="O" x="0" y="0" flags="0x204"/>
      <component glyphName="uni0302.case" x="350" y="140" flags="0x4"/>
    </TTGlyph>
    <TTGlyph name="Odieresis" xMin="8" yMin="-20" xMax="690" yMax="936">
      <component glyphName="O" x="0" y="0" flags="0x204"/>
      <component glyphName="uni0308.case" x="350" y="176" flags="0x4"/>
    </TTGlyph>
    <TTGlyph name="Ograve" xMin="8" yMin="-20" xMax="690" yMax="922">
      <component glyphName="O" x="0" y="0" flags="0x204"/>
      <component glyphName="gravecomb.case" x="350" y="0" flags="0x4"/>
    </TTGlyph>
    <TTGlyph name="Ohungarumlaut" xMin="8" yMin="-20" xMax="690" yMax="941">
      <component glyphName="O" x="0" y="0" flags="0x204"/>
      <component glyphName="uni030B.case" x="351" y="176" flags="0x4"/>
    </TTGlyph>
    <TTGlyph name="Omacron" xMin="8" yMin="-20" xMax="690" yMax="851">
      <component glyphName="O" x="0" y="0" flags="0x204"/>
      <component glyphName="uni0304.case" x="349" y="0" flags="0x4"/>
    </TTGlyph>
    <TTGlyph name="Omega" xMin="9" yMin="0" xMax="814" yMax="686">
      <contour>
        <pt x="22" y="0" on="1"/>
        <pt x="19" y="26" on="0"/>
        <pt x="13" y="86" on="0"/>
        <pt x="10" y="144" on="0"/>
        <pt x="9" y="197" on="0"/>
        <pt x="10" y="218" on="1"/>
        <pt x="95" y="227" on="1"/>
        <pt x="133" y="116" on="1"/>
        <pt x="250" y="105" on="1"/>
        <pt x="169" y="146" on="0"/>
        <pt x="69" y="295" on="0"/>
        <pt x="69" y="379" on="1"/>
        <pt x="69" y="446" on="0"/>
        <pt x="120" y="560" on="0"/>
        <pt x="209" y="640" on="0"/>
        <pt x="335" y="686" on="0"/>
        <pt x="410" y="686" on="1"/>
        <pt x="484" y="686" on="0"/>
        <pt x="610" y="641" on="0"/>
        <pt x="702" y="563" on="0"/>
        <pt x="754" y="455" on="0"/>
        <pt x="754" y="392" on="1"/>
        <pt x="754" y="309" on="0"/>
        <pt x="657" y="159" on="0"/>
        <pt x="577" y="104" on="1"/>
        <pt x="690" y="116" on="1"/>
        <pt x="729" y="227" on="1"/>
        <pt x="814" y="218" on="1"/>
        <pt x="815" y="197" on="0"/>
        <pt x="814" y="144" on="0"/>
        <pt x="811" y="86" on="0"/>
        <pt x="805" y="26" on="0"/>
        <pt x="802" y="0" on="1"/>
        <pt x="801" y="0" on="1"/>
        <pt x="801" y="0" on="1"/>
        <pt x="455" y="0" on="1"/>
        <pt x="430" y="76" on="1"/>
        <pt x="480" y="137" on="0"/>
        <pt x="533" y="281" on="0"/>
        <pt x="533" y="367" on="1"/>
        <pt x="533" y="460" on="0"/>
        <pt x="456" y="579" on="0"/>
        <pt x="394" y="579" on="1"/>
        <pt x="381" y="579" on="0"/>
        <pt x="355" y="573" on="0"/>
        <pt x="343" y="568" on="1"/>
        <pt x="320" y="540" on="0"/>
        <pt x="290" y="448" on="0"/>
        <pt x="290" y="383" on="1"/>
        <pt x="290" y="298" on="0"/>
        <pt x="341" y="142" on="0"/>
        <pt x="394" y="76" on="1"/>
        <pt x="369" y="0" on="1"/>
        <pt x="23" y="0" on="1"/>
        <pt x="23" y="0" on="1"/>
      </contour>
    </TTGlyph>
    <TTGlyph name="Omegaacute" xMin="-129" yMin="0" xMax="814" yMax="686">
      <component glyphName="Omega" x="0" y="0" flags="0x204"/>
      <component glyphName="grAcute.case" x="-109" y="0" flags="0x4"/>
    </TTGlyph>
    <TTGlyph name="Omegaasper" xMin="-118" yMin="0" xMax="814" yMax="686">
      <component glyphName="Omega" x="0" y="0" flags="0x204"/>
      <component glyphName="asper.case" x="-156" y="0" flags="0x4"/>
    </TTGlyph>
    <TTGlyph name="Omegaasperacute" xMin="-315" yMin="0" xMax="814" yMax="686">
      <component glyphName="Omega" x="0" y="0" flags="0x204"/>
      <component glyphName="asperacute.case" x="-305" y="0" flags="0x4"/>
    </TTGlyph>
    <TTGlyph name="Omegaasperacuteiotasub" xMin="-315" yMin="-222" xMax="814" yMax="686">
      <component glyphName="Omega" x="0" y="0" flags="0x204"/>
      <component glyphName="asperacute.case" x="-305" y="0" flags="0x4"/>
      <component glyphName="iotaadscript.case" x="296" y="0" flags="0x4"/>
    </TTGlyph>
    <TTGlyph name="Omegaaspergrave" xMin="-323" yMin="0" xMax="814" yMax="686">
      <component glyphName="Omega" x="0" y="0" flags="0x204"/>
      <component glyphName="aspergrave.case" x="-313" y="0" flags="0x4"/>
    </TTGlyph>
    <TTGlyph name="Omegaaspergraveiotasub" xMin="-323" yMin="-222" xMax="814" yMax="686">
      <component glyphName="Omega" x="0" y="0" flags="0x204"/>
      <component glyphName="aspergrave.case" x="-313" y="0" flags="0x4"/>
      <component glyphName="iotaadscript.case" x="296" y="0" flags="0x4"/>
    </TTGlyph>
    <TTGlyph name="Omegaasperiotasub" xMin="-118" yMin="-222" xMax="814" yMax="686">
      <component glyphName="Omega" x="0" y="0" flags="0x204"/>
      <component glyphName="asper.case" x="-156" y="0" flags="0x4"/>
      <component glyphName="iotaadscript.case" x="296" y="0" flags="0x4"/>
    </TTGlyph>
    <TTGlyph name="Omegaaspertilde" xMin="-400" yMin="0" xMax="814" yMax="686">
      <component glyphName="Omega" x="0" y="0" flags="0x204"/>
      <component glyphName="aspertilde.case" x="-180" y="0" flags="0x4"/>
    </TTGlyph>
    <TTGlyph name="Omegaaspertildeiotasub" xMin="-400" yMin="-222" xMax="814" yMax="686">
      <component glyphName="Omega" x="0" y="0" flags="0x204"/>
      <component glyphName="aspertilde.case" x="-180" y="0" flags="0x4"/>
      <component glyphName="iotaadscript.case" x="296" y="0" flags="0x4"/>
    </TTGlyph>
    <TTGlyph name="Omegagrave" xMin="-131" yMin="0" xMax="814" yMax="686">
      <component glyphName="Omega" x="0" y="0" flags="0x204"/>
      <component glyphName="grGrave.case" x="-171" y="0" flags="0x4"/>
    </TTGlyph>
    <TTGlyph name="Omegaiotasub" xMin="9" yMin="-222" xMax="814" yMax="686">
      <component glyphName="Omega" x="0" y="0" flags="0x204"/>
      <component glyphName="iotaadscript.case" x="296" y="0" flags="0x4"/>
    </TTGlyph>
    <TTGlyph name="Omegalenis" xMin="-122" yMin="0" xMax="814" yMax="686">
      <component glyphName="Omega" x="0" y="0" flags="0x204"/>
      <component glyphName="lenis.case" x="-109" y="0" flags="0x4"/>
    </TTGlyph>
    <TTGlyph name="Omegalenisacute" xMin="-301" yMin="0" xMax="814" yMax="686">
      <component glyphName="Omega" x="0" y="0" flags="0x204"/>
      <component glyphName="lenisacute.case" x="-183" y="0" flags="0x4"/>
    </TTGlyph>
    <TTGlyph name="Omegalenisacuteiotasub" xMin="-301" yMin="-222" xMax="814" yMax="686">
      <component glyphName="Omega" x="0" y="0" flags="0x204"/>
      <component glyphName="lenisacute.case" x="-183" y="0" flags="0x4"/>
      <component glyphName="iotaadscript.case" x="296" y="0" flags="0x4"/>
    </TTGlyph>
    <TTGlyph name="Omegalenisgrave" xMin="-331" yMin="0" xMax="814" yMax="686">
      <component glyphName="Omega" x="0" y="0" flags="0x204"/>
      <component glyphName="lenisgrave.case" x="-209" y="0" flags="0x4"/>
    </TTGlyph>
    <TTGlyph name="Omegalenisgraveiotasub" xMin="-331" yMin="-222" xMax="814" yMax="686">
      <component glyphName="Omega" x="0" y="0" flags="0x204"/>
      <component glyphName="lenisgrave.case" x="-209" y="0" flags="0x4"/>
      <component glyphName="iotaadscript.case" x="296" y="0" flags="0x4"/>
    </TTGlyph>
    <TTGlyph name="Omegalenisiotasub" xMin="-122" yMin="-222" xMax="814" yMax="686">
      <component glyphName="Omega" x="0" y="0" flags="0x204"/>
      <component glyphName="lenis.case" x="-109" y="0" flags="0x4"/>
      <component glyphName="iotaadscript.case" x="296" y="0" flags="0x4"/>
    </TTGlyph>
    <TTGlyph name="Omegalenistilde" xMin="-400" yMin="0" xMax="814" yMax="686">
      <component glyphName="Omega" x="0" y="0" flags="0x204"/>
      <component glyphName="lenistilde.case" x="-180" y="0" flags="0x4"/>
    </TTGlyph>
    <TTGlyph name="Omegalenistildeiotasub" xMin="-400" yMin="-222" xMax="814" yMax="686">
      <component glyphName="Omega" x="0" y="0" flags="0x204"/>
      <component glyphName="lenistilde.case" x="-180" y="0" flags="0x4"/>
      <component glyphName="iotaadscript.case" x="296" y="0" flags="0x4"/>
    </TTGlyph>
    <TTGlyph name="Omegawithtonos" xMin="-129" yMin="0" xMax="814" yMax="686">
      <component glyphName="Omega" x="0" y="0" flags="0x204"/>
      <component glyphName="tonos.case" x="-109" y="0" flags="0x4"/>
    </TTGlyph>
    <TTGlyph name="Omicron" xMin="8" yMin="-20" xMax="690" yMax="686">
      <component glyphName="O" x="0" y="0" flags="0x204"/>
    </TTGlyph>
    <TTGlyph name="Omicronacute" xMin="-180" yMin="-20" xMax="690" yMax="686">
      <component glyphName="Omicron" x="0" y="0" flags="0x204"/>
      <component glyphName="grAcute.case" x="-160" y="0" flags="0x4"/>
    </TTGlyph>
    <TTGlyph name="Omicronasper" xMin="-169" yMin="-20" xMax="690" yMax="686">
      <component glyphName="Omicron" x="0" y="0" flags="0x204"/>
      <component glyphName="asper.case" x="-207" y="0" flags="0x4"/>
    </TTGlyph>
    <TTGlyph name="Omicronasperacute" xMin="-366" yMin="-20" xMax="690" yMax="686">
      <component glyphName="Omicron" x="0" y="0" flags="0x204"/>
      <component glyphName="asperacute.case" x="-356" y="0" flags="0x4"/>
    </TTGlyph>
    <TTGlyph name="Omicronaspergrave" xMin="-384" yMin="-20" xMax="690" yMax="686">
      <component glyphName="Omicron" x="0" y="0" flags="0x204"/>
      <component glyphName="aspergrave.case" x="-374" y="0" flags="0x4"/>
    </TTGlyph>
    <TTGlyph name="Omicrongrave" xMin="-182" yMin="-20" xMax="690" yMax="686">
      <component glyphName="Omicron" x="0" y="0" flags="0x204"/>
      <component glyphName="grGrave.case" x="-222" y="0" flags="0x4"/>
    </TTGlyph>
    <TTGlyph name="Omicronlenis" xMin="-173" yMin="-20" xMax="690" yMax="686">
      <component glyphName="Omicron" x="0" y="0" flags="0x204"/>
      <component glyphName="lenis.case" x="-160" y="0" flags="0x4"/>
    </TTGlyph>
    <TTGlyph name="Omicronlenisacute" xMin="-352" yMin="-20" xMax="690" yMax="686">
      <component glyphName="Omicron" x="0" y="0" flags="0x204"/>
      <component glyphName="lenisacute.case" x="-234" y="0" flags="0x4"/>
    </TTGlyph>
    <TTGlyph name="Omicronlenisgrave" xMin="-382" yMin="-20" xMax="690" yMax="686">
      <component glyphName="Omicron" x="0" y="0" flags="0x204"/>
      <component glyphName="lenisgrave.case" x="-260" y="0" flags="0x4"/>
    </TTGlyph>
    <TTGlyph name="Omicronwithtonos" xMin="-180" yMin="-20" xMax="690" yMax="686">
      <component glyphName="Omicron" x="0" y="0" flags="0x204"/>
      <component glyphName="tonos.case" x="-160" y="0" flags="0x4"/>
    </TTGlyph>
    <TTGlyph name="Oslash" xMin="8" yMin="-93" xMax="690" yMax="751">
      <contour>
        <pt x="96" y="-50" on="1"/>
        <pt x="147" y="41" on="1"/>
        <pt x="85" y="84" on="0"/>
        <pt x="8" y="228" on="0"/>
        <pt x="8" y="328" on="1"/>
        <pt x="8" y="410" on="0"/>
        <pt x="61" y="543" on="0"/>
        <pt x="153" y="636" on="0"/>
        <pt x="277" y="686" on="0"/>
        <pt x="347" y="686" on="1"/>
        <pt x="385" y="686" on="0"/>
        <pt x="458" y="671" on="0"/>
        <pt x="491" y="656" on="1"/>
        <pt x="544" y="751" on="1"/>
        <pt x="623" y="706" on="1"/>
        <pt x="568" y="609" on="1"/>
        <pt x="623" y="563" on="0"/>
        <pt x="690" y="418" on="0"/>
        <pt x="690" y="323" on="1"/>
        <pt x="690" y="238" on="0"/>
        <pt x="635" y="108" on="0"/>
        <pt x="543" y="23" on="0"/>
        <pt x="420" y="-20" on="0"/>
        <pt x="354" y="-20" on="1"/>
        <pt x="321" y="-20" on="0"/>
        <pt x="257" y="-9" on="0"/>
        <pt x="227" y="1" on="1"/>
        <pt x="175" y="-93" on="1"/>
      </contour>
      <contour>
        <pt x="227" y="350" on="1"/>
        <pt x="227" y="311" on="0"/>
        <pt x="236" y="242" on="0"/>
        <pt x="243" y="213" on="1"/>
        <pt x="421" y="530" on="1"/>
        <pt x="405" y="552" on="0"/>
        <pt x="361" y="579" on="0"/>
        <pt x="334" y="579" on="1"/>
        <pt x="321" y="579" on="0"/>
        <pt x="294" y="572" on="0"/>
        <pt x="283" y="568" on="1"/>
        <pt x="260" y="544" on="0"/>
        <pt x="227" y="432" on="0"/>
      </contour>
      <contour>
        <pt x="372" y="85" on="1"/>
        <pt x="385" y="85" on="0"/>
        <pt x="402" y="90" on="0"/>
        <pt x="409" y="93" on="1"/>
        <pt x="437" y="123" on="0"/>
        <pt x="471" y="246" on="0"/>
        <pt x="471" y="321" on="1"/>
        <pt x="471" y="346" on="0"/>
        <pt x="466" y="397" on="0"/>
        <pt x="462" y="420" on="1"/>
        <pt x="293" y="118" on="1"/>
        <pt x="309" y="102" on="0"/>
        <pt x="350" y="85" on="0"/>
      </contour>
    </TTGlyph>
    <TTGlyph name="Otilde" xMin="8" yMin="-20" xMax="690" yMax="915">
      <component glyphName="O" x="0" y="0" flags="0x204"/>
      <component glyphName="tildecomb.case" x="350" y="0" flags="0x4"/>
    </TTGlyph>
    <TTGlyph name="P" xMin="22" yMin="0" xMax="671" yMax="674">
      <contour>
        <pt x="22" y="32" on="1"/>
        <pt x="38" y="45" on="0"/>
        <pt x="77" y="69" on="0"/>
        <pt x="99" y="80" on="1"/>
        <pt x="99" y="598" on="1"/>
        <pt x="23" y="611" on="1"/>
        <pt x="24" y="666" on="1"/>
        <pt x="391" y="674" on="1"/>
        <pt x="459" y="675" on="0"/>
        <pt x="564" y="636" on="0"/>
        <pt x="635" y="573" on="0"/>
        <pt x="671" y="490" on="0"/>
        <pt x="671" y="446" on="1"/>
        <pt x="671" y="399" on="0"/>
        <pt x="631" y="320" on="0"/>
        <pt x="559" y="263" on="0"/>
        <pt x="459" y="230" on="0"/>
        <pt x="400" y="230" on="1"/>
        <pt x="309" y="229" on="1"/>
        <pt x="309" y="77" on="1"/>
        <pt x="433" y="55" on="1"/>
        <pt x="432" y="0" on="1"/>
        <pt x="28" y="0" on="1"/>
      </contour>
      <contour>
        <pt x="416" y="577" on="1"/>
        <pt x="309" y="562" on="1"/>
        <pt x="309" y="341" on="1"/>
        <pt x="324" y="337" on="0"/>
        <pt x="353" y="333" on="0"/>
        <pt x="363" y="333" on="1"/>
        <pt x="413" y="333" on="0"/>
        <pt x="460" y="402" on="0"/>
        <pt x="460" y="448" on="1"/>
        <pt x="460" y="482" on="0"/>
        <pt x="438" y="561" on="0"/>
      </contour>
    </TTGlyph>
    <TTGlyph name="Phi" xMin="8" yMin="-20" xMax="794" yMax="686">
      <contour>
        <pt x="218" y="12" on="1"/>
        <pt x="236" y="26" on="0"/>
        <pt x="280" y="54" on="0"/>
        <pt x="308" y="67" on="1"/>
        <pt x="308" y="87" on="1"/>
        <pt x="168" y="92" on="0"/>
        <pt x="8" y="222" on="0"/>
        <pt x="8" y="331" on="1"/>
        <pt x="8" y="443" on="0"/>
        <pt x="166" y="576" on="0"/>
        <pt x="308" y="583" on="1"/>
        <pt x="308" y="617" on="1"/>
        <pt x="226" y="631" on="1"/>
        <pt x="227" y="686" on="1"/>
        <pt x="578" y="686" on="1"/>
        <pt x="584" y="654" on="1"/>
        <pt x="566" y="640" on="0"/>
        <pt x="522" y="612" on="0"/>
        <pt x="494" y="599" on="1"/>
        <pt x="494" y="584" on="1"/>
        <pt x="634" y="579" on="0"/>
        <pt x="794" y="449" on="0"/>
        <pt x="794" y="340" on="1"/>
        <pt x="794" y="228" on="0"/>
        <pt x="636" y="95" on="0"/>
        <pt x="494" y="88" on="1"/>
        <pt x="494" y="51" on="1"/>
        <pt x="588" y="35" on="1"/>
        <pt x="587" y="-20" on="1"/>
        <pt x="224" y="-20" on="1"/>
      </contour>
      <contour>
        <pt x="208" y="339" on="1"/>
        <pt x="208" y="267" on="0"/>
        <pt x="259" y="180" on="0"/>
        <pt x="308" y="168" on="1"/>
        <pt x="308" y="506" on="1"/>
        <pt x="298" y="505" on="0"/>
        <pt x="276" y="499" on="0"/>
        <pt x="266" y="496" on="1"/>
        <pt x="240" y="473" on="0"/>
        <pt x="208" y="387" on="0"/>
      </contour>
      <contour>
        <pt x="594" y="332" on="1"/>
        <pt x="594" y="404" on="0"/>
        <pt x="543" y="491" on="0"/>
        <pt x="494" y="503" on="1"/>
        <pt x="494" y="165" on="1"/>
        <pt x="504" y="166" on="0"/>
        <pt x="526" y="171" on="0"/>
        <pt x="536" y="175" on="1"/>
        <pt x="562" y="198" on="0"/>
        <pt x="594" y="284" on="0"/>
      </contour>
    </TTGlyph>
    <TTGlyph name="Pi" xMin="22" yMin="0" xMax="825" yMax="666">
      <contour>
        <pt x="22" y="32" on="1"/>
        <pt x="41" y="46" on="0"/>
        <pt x="83" y="72" on="0"/>
        <pt x="107" y="84" on="1"/>
        <pt x="107" y="598" on="1"/>
        <pt x="30" y="611" on="1"/>
        <pt x="31" y="666" on="1"/>
        <pt x="815" y="666" on="1"/>
        <pt x="821" y="634" on="1"/>
        <pt x="802" y="620" on="0"/>
        <pt x="760" y="594" on="0"/>
        <pt x="736" y="582" on="1"/>
        <pt x="736" y="70" on="1"/>
        <pt x="825" y="55" on="1"/>
        <pt x="824" y="0" on="1"/>
        <pt x="447" y="0" on="1"/>
        <pt x="441" y="32" on="1"/>
        <pt x="460" y="46" on="0"/>
        <pt x="502" y="72" on="0"/>
        <pt x="526" y="84" on="1"/>
        <pt x="526" y="566" on="1"/>
        <pt x="317" y="566" on="1"/>
        <pt x="317" y="70" on="1"/>
        <pt x="406" y="55" on="1"/>
        <pt x="405" y="0" on="1"/>
        <pt x="28" y="0" on="1"/>
      </contour>
    </TTGlyph>
    <TTGlyph name="Psi" xMin="-5" yMin="0" xMax="1005" yMax="677">
      <contour>
        <pt x="307" y="32" on="1"/>
        <pt x="325" y="46" on="0"/>
        <pt x="368" y="73" on="0"/>
        <pt x="395" y="86" on="1"/>
        <pt x="395" y="198" on="1"/>
        <pt x="280" y="211" on="0"/>
        <pt x="146" y="321" on="0"/>
        <pt x="124" y="420" on="1"/>
        <pt x="90" y="573" on="1"/>
        <pt x="6" y="573" on="1"/>
        <pt x="-5" y="625" on="1"/>
        <pt x="29" y="650" on="0"/>
        <pt x="108" y="677" on="0"/>
        <pt x="145" y="677" on="1"/>
        <pt x="199" y="677" on="0"/>
        <pt x="270" y="626" on="0"/>
        <pt x="281" y="577" on="1"/>
        <pt x="304" y="474" on="1"/>
        <pt x="321" y="396" on="0"/>
        <pt x="361" y="310" on="0"/>
        <pt x="395" y="292" on="1"/>
        <pt x="395" y="598" on="1"/>
        <pt x="318" y="611" on="1"/>
        <pt x="319" y="666" on="1"/>
        <pt x="684" y="666" on="1"/>
        <pt x="690" y="634" on="1"/>
        <pt x="673" y="620" on="0"/>
        <pt x="630" y="594" on="0"/>
        <pt x="605" y="582" on="1"/>
        <pt x="605" y="282" on="1"/>
        <pt x="615" y="284" on="0"/>
        <pt x="633" y="292" on="0"/>
        <pt x="641" y="297" on="1"/>
        <pt x="647" y="303" on="0"/>
        <pt x="663" y="338" on="0"/>
        <pt x="679" y="387" on="0"/>
        <pt x="694" y="445" on="0"/>
        <pt x="701" y="474" on="1"/>
        <pt x="725" y="577" on="1"/>
        <pt x="736" y="626" on="0"/>
        <pt x="803" y="677" on="0"/>
        <pt x="855" y="677" on="1"/>
        <pt x="892" y="677" on="0"/>
        <pt x="971" y="650" on="0"/>
        <pt x="1005" y="625" on="1"/>
        <pt x="994" y="573" on="1"/>
        <pt x="910" y="573" on="1"/>
        <pt x="876" y="420" on="1"/>
        <pt x="854" y="323" on="0"/>
        <pt x="720" y="213" on="0"/>
        <pt x="605" y="199" on="1"/>
        <pt x="605" y="70" on="1"/>
        <pt x="694" y="55" on="1"/>
        <pt x="693" y="0" on="1"/>
        <pt x="313" y="0" on="1"/>
      </contour>
    </TTGlyph>
    <TTGlyph name="Q" xMin="8" yMin="-202" xMax="735" yMax="686">
      <contour>
        <pt x="354" y="-20" on="1"/>
        <pt x="286" y="-20" on="0"/>
        <pt x="160" y="25" on="0"/>
        <pt x="65" y="112" on="0"/>
        <pt x="8" y="243" on="0"/>
        <pt x="8" y="328" on="1"/>
        <pt x="8" y="410" on="0"/>
        <pt x="61" y="543" on="0"/>
        <pt x="153" y="636" on="0"/>
        <pt x="277" y="686" on="0"/>
        <pt x="347" y="686" on="1"/>
        <pt x="416" y="686" on="0"/>
        <pt x="541" y="637" on="0"/>
        <pt x="634" y="545" on="0"/>
        <pt x="690" y="409" on="0"/>
        <pt x="690" y="323" on="1"/>
        <pt x="690" y="208" on="0"/>
        <pt x="593" y="54" on="0"/>
        <pt x="518" y="17" on="1"/>
        <pt x="735" y="-32" on="1"/>
        <pt x="640" y="-202" on="1"/>
        <pt x="362" y="-20" on="1"/>
        <pt x="360" y="-20" on="0"/>
        <pt x="356" y="-20" on="0"/>
      </contour>
      <contour>
        <pt x="372" y="85" on="1"/>
        <pt x="385" y="85" on="0"/>
        <pt x="402" y="90" on="0"/>
        <pt x="409" y="93" on="1"/>
        <pt x="437" y="123" on="0"/>
        <pt x="471" y="246" on="0"/>
        <pt x="471" y="321" on="1"/>
        <pt x="471" y="370" on="0"/>
        <pt x="455" y="464" on="0"/>
        <pt x="421" y="535" on="0"/>
        <pt x="369" y="579" on="0"/>
        <pt x="334" y="579" on="1"/>
        <pt x="321" y="579" on="0"/>
        <pt x="294" y="572" on="0"/>
        <pt x="283" y="568" on="1"/>
        <pt x="260" y="544" on="0"/>
        <pt x="227" y="432" on="0"/>
        <pt x="227" y="350" on="1"/>
        <pt x="227" y="228" on="0"/>
        <pt x="305" y="85" on="0"/>
      </contour>
    </TTGlyph>
    <TTGlyph name="R" xMin="22" yMin="0" xMax="743" yMax="674">
      <contour>
        <pt x="22" y="32" on="1"/>
        <pt x="41" y="46" on="0"/>
        <pt x="83" y="72" on="0"/>
        <pt x="107" y="84" on="1"/>
        <pt x="107" y="598" on="1"/>
        <pt x="31" y="611" on="1"/>
        <pt x="32" y="666" on="1"/>
        <pt x="391" y="674" on="1"/>
        <pt x="456" y="674" on="0"/>
        <pt x="563" y="640" on="0"/>
        <pt x="637" y="582" on="0"/>
        <pt x="678" y="504" on="0"/>
        <pt x="678" y="460" on="1"/>
        <pt x="678" y="401" on="0"/>
        <pt x="609" y="306" on="0"/>
        <pt x="552" y="278" on="1"/>
        <pt x="684" y="65" on="1"/>
        <pt x="743" y="55" on="1"/>
        <pt x="742" y="0" on="1"/>
        <pt x="494" y="0" on="1"/>
        <pt x="365" y="249" on="1"/>
        <pt x="317" y="248" on="1"/>
        <pt x="317" y="68" on="1"/>
        <pt x="392" y="55" on="1"/>
        <pt x="391" y="0" on="1"/>
        <pt x="28" y="0" on="1"/>
      </contour>
      <contour>
        <pt x="424" y="577" on="1"/>
        <pt x="317" y="562" on="1"/>
        <pt x="317" y="350" on="1"/>
        <pt x="330" y="346" on="0"/>
        <pt x="354" y="343" on="0"/>
        <pt x="364" y="343" on="1"/>
        <pt x="414" y="343" on="0"/>
        <pt x="466" y="403" on="0"/>
        <pt x="466" y="455" on="1"/>
        <pt x="466" y="488" on="0"/>
        <pt x="445" y="555" on="0"/>
      </contour>
    </TTGlyph>
    <TTGlyph name="Racute" xMin="22" yMin="0" xMax="743" yMax="922">
      <component glyphName="R" x="0" y="0" flags="0x204"/>
      <component glyphName="acutecomb.case" x="356" y="0" flags="0x4"/>
    </TTGlyph>
    <TTGlyph name="Rcaron" xMin="22" yMin="0" xMax="743" yMax="937">
      <component glyphName="R" x="0" y="0" flags="0x204"/>
      <component glyphName="uni030C.case" x="357" y="140" flags="0x4"/>
    </TTGlyph>
    <TTGlyph name="Rcommaaccent" xMin="22" yMin="-331" xMax="743" yMax="674">
      <component glyphName="R" x="0" y="0" flags="0x204"/>
      <component glyphName="uni0326.case" x="370" y="0" flags="0x4"/>
    </TTGlyph>
    <TTGlyph name="Rho" xMin="22" yMin="0" xMax="671" yMax="674">
      <component glyphName="P" x="0" y="0" flags="0x204"/>
    </TTGlyph>
    <TTGlyph name="Rhoasper" xMin="-192" yMin="0" xMax="671" yMax="678">
      <component glyphName="Rho" x="0" y="0" flags="0x204"/>
      <component glyphName="asper.case" x="-230" y="0" flags="0x4"/>
    </TTGlyph>
    <TTGlyph name="S" xMin="48" yMin="-19" xMax="589" yMax="686">
      <contour>
        <pt x="315" y="-19" on="1"/>
        <pt x="285" y="-19" on="0"/>
        <pt x="216" y="-11" on="0"/>
        <pt x="146" y="3" on="0"/>
        <pt x="78" y="25" on="0"/>
        <pt x="50" y="39" on="1"/>
        <pt x="51" y="41" on="1"/>
        <pt x="49" y="59" on="0"/>
        <pt x="51" y="112" on="0"/>
        <pt x="57" y="168" on="0"/>
        <pt x="66" y="222" on="0"/>
        <pt x="71" y="241" on="1"/>
        <pt x="161" y="241" on="1"/>
        <pt x="242" y="92" on="1"/>
        <pt x="264" y="85" on="0"/>
        <pt x="309" y="76" on="0"/>
        <pt x="331" y="74" on="1"/>
        <pt x="359" y="87" on="0"/>
        <pt x="383" y="123" on="0"/>
        <pt x="383" y="140" on="1"/>
        <pt x="383" y="182" on="0"/>
        <pt x="297" y="231" on="0"/>
        <pt x="238" y="258" on="1"/>
        <pt x="204" y="274" on="0"/>
        <pt x="136" y="312" on="0"/>
        <pt x="82" y="362" on="0"/>
        <pt x="48" y="429" on="0"/>
        <pt x="48" y="473" on="1"/>
        <pt x="48" y="566" on="0"/>
        <pt x="202" y="686" on="0"/>
        <pt x="329" y="686" on="1"/>
        <pt x="357" y="686" on="0"/>
        <pt x="420" y="680" on="0"/>
        <pt x="481" y="669" on="0"/>
        <pt x="537" y="654" on="0"/>
        <pt x="559" y="645" on="1"/>
        <pt x="557" y="599" on="0"/>
        <pt x="546" y="491" on="0"/>
        <pt x="535" y="447" on="1"/>
        <pt x="430" y="447" on="1"/>
        <pt x="381" y="577" on="1"/>
        <pt x="359" y="585" on="0"/>
        <pt x="312" y="595" on="0"/>
        <pt x="287" y="596" on="1"/>
        <pt x="264" y="583" on="0"/>
        <pt x="243" y="542" on="0"/>
        <pt x="243" y="526" on="1"/>
        <pt x="243" y="507" on="0"/>
        <pt x="270" y="477" on="0"/>
        <pt x="314" y="451" on="0"/>
        <pt x="373" y="426" on="0"/>
        <pt x="404" y="411" on="1"/>
        <pt x="438" y="395" on="0"/>
        <pt x="504" y="357" on="0"/>
        <pt x="556" y="306" on="0"/>
        <pt x="589" y="237" on="0"/>
        <pt x="589" y="190" on="1"/>
        <pt x="589" y="140" on="0"/>
        <pt x="545" y="61" on="0"/>
        <pt x="471" y="8" on="0"/>
        <pt x="371" y="-19" on="0"/>
      </contour>
    </TTGlyph>
    <TTGlyph name="Sacute" xMin="48" yMin="-19" xMax="589" yMax="922">
      <component glyphName="S" x="0" y="0" flags="0x204"/>
      <component glyphName="acutecomb.case" x="322" y="0" flags="0x4"/>
    </TTGlyph>
    <TTGlyph name="Scaron" xMin="48" yMin="-19" xMax="589" yMax="937">
      <component glyphName="S" x="0" y="0" flags="0x204"/>
      <component glyphName="uni030C.case" x="323" y="140" flags="0x4"/>
    </TTGlyph>
    <TTGlyph name="Scedilla" xMin="48" yMin="-273" xMax="589" yMax="686">
      <component glyphName="S" x="0" y="0" flags="0x204"/>
      <component glyphName="uni0327.case" x="312" y="0" flags="0x4"/>
    </TTGlyph>
    <TTGlyph name="Scommaaccent" xMin="48" yMin="-331" xMax="589" yMax="686">
      <component glyphName="S" x="0" y="0" flags="0x204"/>
      <component glyphName="uni0326.case" x="312" y="0" flags="0x4"/>
    </TTGlyph>
    <TTGlyph name="Sigma" xMin="23" yMin="0" xMax="618" yMax="666">
      <contour>
        <pt x="23" y="86" on="1"/>
        <pt x="229" y="319" on="1"/>
        <pt x="24" y="580" on="1"/>
        <pt x="71" y="666" on="1"/>
        <pt x="609" y="666" on="1"/>
        <pt x="610" y="649" on="0"/>
        <pt x="608" y="597" on="0"/>
        <pt x="602" y="538" on="0"/>
        <pt x="594" y="477" on="0"/>
        <pt x="588" y="451" on="1"/>
        <pt x="473" y="451" on="1"/>
        <pt x="453" y="554" on="1"/>
        <pt x="274" y="569" on="1"/>
        <pt x="438" y="351" on="1"/>
        <pt x="230" y="118" on="1"/>
        <pt x="459" y="123" on="1"/>
        <pt x="503" y="254" on="1"/>
        <pt x="618" y="245" on="1"/>
        <pt x="619" y="223" on="0"/>
        <pt x="616" y="158" on="0"/>
        <pt x="611" y="89" on="0"/>
        <pt x="604" y="23" on="0"/>
        <pt x="600" y="0" on="1"/>
        <pt x="56" y="0" on="1"/>
      </contour>
    </TTGlyph>
    <TTGlyph name="T" xMin="5" yMin="0" xMax="686" yMax="672">
      <contour>
        <pt x="147" y="32" on="1"/>
        <pt x="166" y="48" on="0"/>
        <pt x="216" y="75" on="0"/>
        <pt x="242" y="88" on="1"/>
        <pt x="242" y="583" on="1"/>
        <pt x="151" y="573" on="1"/>
        <pt x="135" y="419" on="1"/>
        <pt x="29" y="419" on="1"/>
        <pt x="23" y="444" on="0"/>
        <pt x="14" y="517" on="0"/>
        <pt x="7" y="590" on="0"/>
        <pt x="5" y="655" on="0"/>
        <pt x="7" y="672" on="1"/>
        <pt x="117" y="670" on="0"/>
        <pt x="276" y="668" on="0"/>
        <pt x="420" y="668" on="0"/>
        <pt x="577" y="670" on="0"/>
        <pt x="685" y="672" on="1"/>
        <pt x="685" y="672" on="1"/>
        <pt x="686" y="672" on="1"/>
        <pt x="687" y="655" on="0"/>
        <pt x="685" y="590" on="0"/>
        <pt x="679" y="517" on="0"/>
        <pt x="669" y="444" on="0"/>
        <pt x="664" y="419" on="1"/>
        <pt x="557" y="419" on="1"/>
        <pt x="541" y="573" on="1"/>
        <pt x="452" y="583" on="1"/>
        <pt x="452" y="71" on="1"/>
        <pt x="544" y="55" on="1"/>
        <pt x="543" y="0" on="1"/>
        <pt x="153" y="0" on="1"/>
      </contour>
    </TTGlyph>
    <TTGlyph name="Tau" xMin="5" yMin="0" xMax="686" yMax="672">
      <component glyphName="T" x="0" y="0" flags="0x204"/>
    </TTGlyph>
    <TTGlyph name="Tcaron" xMin="5" yMin="0" xMax="686" yMax="937">
      <component glyphName="T" x="0" y="0" flags="0x204"/>
      <component glyphName="uni030C.case" x="346" y="140" flags="0x4"/>
    </TTGlyph>
    <TTGlyph name="Theta" xMin="8" yMin="-20" xMax="690" yMax="686">
      <contour>
        <pt x="354" y="-20" on="1"/>
        <pt x="286" y="-20" on="0"/>
        <pt x="160" y="25" on="0"/>
        <pt x="65" y="112" on="0"/>
        <pt x="8" y="243" on="0"/>
        <pt x="8" y="328" on="1"/>
        <pt x="8" y="410" on="0"/>
        <pt x="61" y="543" on="0"/>
        <pt x="153" y="636" on="0"/>
        <pt x="277" y="686" on="0"/>
        <pt x="347" y="686" on="1"/>
        <pt x="416" y="686" on="0"/>
        <pt x="541" y="637" on="0"/>
        <pt x="634" y="545" on="0"/>
        <pt x="690" y="409" on="0"/>
        <pt x="690" y="323" on="1"/>
        <pt x="690" y="238" on="0"/>
        <pt x="635" y="108" on="0"/>
        <pt x="543" y="23" on="0"/>
        <pt x="420" y="-20" on="0"/>
      </contour>
      <contour>
        <pt x="372" y="85" on="1"/>
        <pt x="385" y="85" on="0"/>
        <pt x="402" y="90" on="0"/>
        <pt x="409" y="93" on="1"/>
        <pt x="437" y="123" on="0"/>
        <pt x="471" y="246" on="0"/>
        <pt x="471" y="321" on="1"/>
        <pt x="471" y="370" on="0"/>
        <pt x="455" y="464" on="0"/>
        <pt x="421" y="535" on="0"/>
        <pt x="369" y="579" on="0"/>
        <pt x="334" y="579" on="1"/>
        <pt x="321" y="579" on="0"/>
        <pt x="294" y="572" on="0"/>
        <pt x="283" y="568" on="1"/>
        <pt x="260" y="544" on="0"/>
        <pt x="227" y="432" on="0"/>
        <pt x="227" y="350" on="1"/>
        <pt x="227" y="228" on="0"/>
        <pt x="305" y="85" on="0"/>
      </contour>
      <contour>
        <pt x="258" y="264" on="1"/>
        <pt x="258" y="396" on="1"/>
        <pt x="439" y="412" on="1"/>
        <pt x="439" y="253" on="1"/>
      </contour>
    </TTGlyph>
    <TTGlyph name="Thorn" xMin="22" yMin="0" xMax="645" yMax="650">
      <contour>
        <pt x="22" y="33" on="1"/>
        <pt x="39" y="47" on="0"/>
        <pt x="86" y="74" on="0"/>
        <pt x="108" y="85" on="1"/>
        <pt x="108" y="581" on="1"/>
        <pt x="30" y="595" on="1"/>
        <pt x="31" y="650" on="1"/>
        <pt x="390" y="650" on="1"/>
        <pt x="396" y="617" on="1"/>
        <pt x="380" y="604" on="0"/>
        <pt x="338" y="579" on="0"/>
        <pt x="318" y="569" on="1"/>
        <pt x="318" y="526" on="1"/>
        <pt x="392" y="526" on="1"/>
        <pt x="454" y="526" on="0"/>
        <pt x="550" y="492" on="0"/>
        <pt x="613" y="437" on="0"/>
        <pt x="645" y="366" on="0"/>
        <pt x="645" y="329" on="1"/>
        <pt x="645" y="294" on="0"/>
        <pt x="615" y="226" on="0"/>
        <pt x="555" y="173" on="0"/>
        <pt x="464" y="140" on="0"/>
        <pt x="404" y="140" on="1"/>
        <pt x="318" y="139" on="1"/>
        <pt x="318" y="70" on="1"/>
        <pt x="407" y="55" on="1"/>
        <pt x="406" y="0" on="1"/>
        <pt x="28" y="0" on="1"/>
      </contour>
      <contour>
        <pt x="392" y="422" on="1"/>
        <pt x="318" y="413" on="1"/>
        <pt x="318" y="236" on="1"/>
        <pt x="327" y="234" on="0"/>
        <pt x="344" y="231" on="0"/>
        <pt x="353" y="231" on="1"/>
        <pt x="394" y="231" on="0"/>
        <pt x="442" y="286" on="0"/>
        <pt x="442" y="324" on="1"/>
        <pt x="442" y="349" on="0"/>
        <pt x="417" y="401" on="0"/>
      </contour>
    </TTGlyph>
    <TTGlyph name="U" xMin="6" yMin="-20" xMax="767" yMax="666">
      <contour>
        <pt x="404" y="-20" on="1"/>
        <pt x="337" y="-20" on="0"/>
        <pt x="220" y="19" on="0"/>
        <pt x="133" y="99" on="0"/>
        <pt x="83" y="223" on="0"/>
        <pt x="83" y="307" on="1"/>
        <pt x="83" y="598" on="1"/>
        <pt x="6" y="611" on="1"/>
        <pt x="7" y="666" on="1"/>
        <pt x="372" y="666" on="1"/>
        <pt x="378" y="634" on="1"/>
        <pt x="359" y="620" on="0"/>
        <pt x="317" y="594" on="0"/>
        <pt x="293" y="582" on="1"/>
        <pt x="293" y="257" on="1"/>
        <pt x="293" y="165" on="0"/>
        <pt x="372" y="87" on="0"/>
        <pt x="427" y="87" on="1"/>
        <pt x="452" y="87" on="0"/>
        <pt x="491" y="101" on="0"/>
        <pt x="506" y="114" on="1"/>
        <pt x="523" y="138" on="0"/>
        <pt x="540" y="232" on="0"/>
        <pt x="540" y="295" on="1"/>
        <pt x="540" y="597" on="1"/>
        <pt x="460" y="611" on="1"/>
        <pt x="461" y="666" on="1"/>
        <pt x="761" y="666" on="1"/>
        <pt x="767" y="634" on="1"/>
        <pt x="748" y="620" on="0"/>
        <pt x="706" y="594" on="0"/>
        <pt x="682" y="582" on="1"/>
        <pt x="682" y="289" on="1"/>
        <pt x="682" y="200" on="0"/>
        <pt x="637" y="81" on="0"/>
        <pt x="560" y="10" on="0"/>
        <pt x="459" y="-20" on="0"/>
      </contour>
    </TTGlyph>
    <TTGlyph name="Uacute" xMin="6" yMin="-20" xMax="767" yMax="922">
      <component glyphName="U" x="0" y="0" flags="0x204"/>
      <component glyphName="acutecomb.case" x="384" y="0" flags="0x4"/>
    </TTGlyph>
    <TTGlyph name="Ucircumflex" xMin="6" yMin="-20" xMax="767" yMax="944">
      <component glyphName="U" x="0" y="0" flags="0x204"/>
      <component glyphName="uni0302.case" x="385" y="140" flags="0x4"/>
    </TTGlyph>
    <TTGlyph name="Udieresis" xMin="6" yMin="-20" xMax="767" yMax="936">
      <component glyphName="U" x="0" y="0" flags="0x204"/>
      <component glyphName="uni0308.case" x="385" y="176" flags="0x4"/>
    </TTGlyph>
    <TTGlyph name="Ugrave" xMin="6" yMin="-20" xMax="767" yMax="922">
      <component glyphName="U" x="0" y="0" flags="0x204"/>
      <component glyphName="gravecomb.case" x="385" y="0" flags="0x4"/>
    </TTGlyph>
    <TTGlyph name="Uhungarumlaut" xMin="6" yMin="-20" xMax="767" yMax="941">
      <component glyphName="U" x="0" y="0" flags="0x204"/>
      <component glyphName="uni030B.case" x="386" y="176" flags="0x4"/>
    </TTGlyph>
    <TTGlyph name="Umacron" xMin="6" yMin="-20" xMax="767" yMax="851">
      <component glyphName="U" x="0" y="0" flags="0x204"/>
      <component glyphName="uni0304.case" x="384" y="0" flags="0x4"/>
    </TTGlyph>
    <TTGlyph name="Uogonek" xMin="6" yMin="-295" xMax="767" yMax="666">
      <component glyphName="U" x="0" y="0" flags="0x204"/>
      <component glyphName="uni0328.case" x="551" y="-9" flags="0x4"/>
    </TTGlyph>
    <TTGlyph name="Upsilon" xMin="-4" yMin="0" xMax="728" yMax="676">
      <contour>
        <pt x="157" y="32" on="1"/>
        <pt x="176" y="47" on="0"/>
        <pt x="220" y="73" on="0"/>
        <pt x="245" y="86" on="1"/>
        <pt x="245" y="168" on="1"/>
        <pt x="245" y="236" on="0"/>
        <pt x="221" y="371" on="0"/>
        <pt x="180" y="482" on="0"/>
        <pt x="124" y="559" on="0"/>
        <pt x="93" y="571" on="1"/>
        <pt x="11" y="564" on="1"/>
        <pt x="-4" y="614" on="1"/>
        <pt x="34" y="642" on="0"/>
        <pt x="125" y="676" on="0"/>
        <pt x="170" y="676" on="1"/>
        <pt x="241" y="676" on="0"/>
        <pt x="341" y="588" on="0"/>
        <pt x="375" y="491" on="1"/>
        <pt x="380" y="382" on="1"/>
        <pt x="382" y="382" on="1"/>
        <pt x="410" y="533" on="0"/>
        <pt x="532" y="676" on="0"/>
        <pt x="601" y="676" on="1"/>
        <pt x="632" y="676" on="0"/>
        <pt x="705" y="648" on="0"/>
        <pt x="728" y="627" on="1"/>
        <pt x="713" y="577" on="1"/>
        <pt x="627" y="577" on="1"/>
        <pt x="595" y="568" on="0"/>
        <pt x="532" y="502" on="0"/>
        <pt x="484" y="400" on="0"/>
        <pt x="455" y="269" on="0"/>
        <pt x="455" y="196" on="1"/>
        <pt x="455" y="70" on="1"/>
        <pt x="544" y="55" on="1"/>
        <pt x="543" y="0" on="1"/>
        <pt x="163" y="0" on="1"/>
      </contour>
      <contour>
        <pt x="637" y="579" on="1"/>
        <pt x="636" y="579" on="0"/>
        <pt x="632" y="578" on="0"/>
        <pt x="631" y="578" on="1"/>
      </contour>
    </TTGlyph>
    <TTGlyph name="Upsilonacute" xMin="-239" yMin="0" xMax="728" yMax="676">
      <component glyphName="Upsilon" x="0" y="0" flags="0x204"/>
      <component glyphName="grAcute.case" x="-219" y="0" flags="0x4"/>
    </TTGlyph>
    <TTGlyph name="Upsilonasper" xMin="-228" yMin="0" xMax="728" yMax="678">
      <component glyphName="Upsilon" x="0" y="0" flags="0x204"/>
      <component glyphName="asper.case" x="-266" y="0" flags="0x4"/>
    </TTGlyph>
    <TTGlyph name="Upsilonasperacute" xMin="-425" yMin="0" xMax="728" yMax="678">
      <component glyphName="Upsilon" x="0" y="0" flags="0x204"/>
      <component glyphName="asperacute.case" x="-415" y="0" flags="0x4"/>
    </TTGlyph>
    <TTGlyph name="Upsilonaspergrave" xMin="-393" yMin="0" xMax="728" yMax="678">
      <component glyphName="Upsilon" x="0" y="0" flags="0x204"/>
      <component glyphName="aspergrave.case" x="-383" y="0" flags="0x4"/>
    </TTGlyph>
    <TTGlyph name="Upsilonaspertilde" xMin="-510" yMin="0" xMax="728" yMax="678">
      <component glyphName="Upsilon" x="0" y="0" flags="0x204"/>
      <component glyphName="aspertilde.case" x="-290" y="0" flags="0x4"/>
    </TTGlyph>
    <TTGlyph name="Upsilonbreve" xMin="-4" yMin="0" xMax="728" yMax="895">
      <component glyphName="Upsilon" x="0" y="0" flags="0x204"/>
      <component glyphName="uni0306.case" x="370" y="0" flags="0x4"/>
    </TTGlyph>
    <TTGlyph name="Upsilondieresis" xMin="-4" yMin="0" xMax="728" yMax="936">
      <component glyphName="Upsilon" x="0" y="0" flags="0x204"/>
      <component glyphName="uni0308" x="369" y="176" flags="0x4"/>
    </TTGlyph>
    <TTGlyph name="Upsilongrave" xMin="-241" yMin="0" xMax="728" yMax="676">
      <component glyphName="Upsilon" x="0" y="0" flags="0x204"/>
      <component glyphName="grGrave.case" x="-281" y="0" flags="0x4"/>
    </TTGlyph>
    <TTGlyph name="Upsilonwithmacron" xMin="-4" yMin="0" xMax="728" yMax="851">
      <component glyphName="Upsilon" x="0" y="0" flags="0x204"/>
      <component glyphName="uni0304.case" x="368" y="0" flags="0x4"/>
    </TTGlyph>
    <TTGlyph name="Upsilonwithtonos" xMin="-239" yMin="0" xMax="728" yMax="676">
      <component glyphName="Upsilon" x="0" y="0" flags="0x204"/>
      <component glyphName="tonos.case" x="-219" y="0" flags="0x4"/>
    </TTGlyph>
    <TTGlyph name="Uring" xMin="6" yMin="-20" xMax="767" yMax="965">
      <component glyphName="U" x="0" y="0" flags="0x204"/>
      <component glyphName="uni030A.case" x="385" y="0" flags="0x4"/>
    </TTGlyph>
    <TTGlyph name="V" xMin="-4" yMin="-18" xMax="742" yMax="666">
      <contour>
        <pt x="-4" y="611" on="1"/>
        <pt x="-3" y="666" on="1"/>
        <pt x="350" y="666" on="1"/>
        <pt x="356" y="634" on="1"/>
        <pt x="340" y="621" on="0"/>
        <pt x="301" y="597" on="0"/>
        <pt x="279" y="586" on="1"/>
        <pt x="371" y="287" on="1"/>
        <pt x="383" y="144" on="1"/>
        <pt x="392" y="144" on="1"/>
        <pt x="538" y="596" on="1"/>
        <pt x="452" y="611" on="1"/>
        <pt x="453" y="666" on="1"/>
        <pt x="736" y="666" on="1"/>
        <pt x="742" y="634" on="1"/>
        <pt x="725" y="621" on="0"/>
        <pt x="687" y="597" on="0"/>
        <pt x="665" y="586" on="1"/>
        <pt x="467" y="3" on="1"/>
        <pt x="468" y="2" on="1"/>
        <pt x="431" y="-4" on="0"/>
        <pt x="335" y="-14" on="0"/>
        <pt x="286" y="-18" on="1"/>
        <pt x="66" y="599" on="1"/>
      </contour>
    </TTGlyph>
    <TTGlyph name="W" xMin="-4" yMin="-18" xMax="1045" yMax="666">
      <contour>
        <pt x="-4" y="611" on="1"/>
        <pt x="-3" y="666" on="1"/>
        <pt x="348" y="666" on="1"/>
        <pt x="354" y="634" on="1"/>
        <pt x="337" y="621" on="0"/>
        <pt x="298" y="596" on="0"/>
        <pt x="276" y="585" on="1"/>
        <pt x="355" y="294" on="1"/>
        <pt x="360" y="144" on="1"/>
        <pt x="366" y="144" on="1"/>
        <pt x="464" y="487" on="1"/>
        <pt x="420" y="623" on="1"/>
        <pt x="615" y="664" on="1"/>
        <pt x="715" y="315" on="1"/>
        <pt x="723" y="144" on="1"/>
        <pt x="724" y="144" on="1"/>
        <pt x="846" y="595" on="1"/>
        <pt x="753" y="611" on="1"/>
        <pt x="754" y="666" on="1"/>
        <pt x="1039" y="666" on="1"/>
        <pt x="1045" y="634" on="1"/>
        <pt x="1029" y="621" on="0"/>
        <pt x="993" y="598" on="0"/>
        <pt x="972" y="588" on="1"/>
        <pt x="803" y="2" on="1"/>
        <pt x="766" y="-5" on="0"/>
        <pt x="678" y="-14" on="0"/>
        <pt x="628" y="-18" on="1"/>
        <pt x="524" y="303" on="1"/>
        <pt x="499" y="185" on="1"/>
        <pt x="443" y="2" on="1"/>
        <pt x="406" y="-5" on="0"/>
        <pt x="318" y="-14" on="0"/>
        <pt x="268" y="-18" on="1"/>
        <pt x="63" y="599" on="1"/>
      </contour>
    </TTGlyph>
    <TTGlyph name="X" xMin="-6" yMin="0" xMax="749" yMax="666">
      <contour>
        <pt x="-6" y="32" on="1"/>
        <pt x="13" y="47" on="0"/>
        <pt x="58" y="74" on="0"/>
        <pt x="83" y="86" on="1"/>
        <pt x="259" y="338" on="1"/>
        <pt x="80" y="600" on="1"/>
        <pt x="16" y="611" on="1"/>
        <pt x="17" y="666" on="1"/>
        <pt x="354" y="666" on="1"/>
        <pt x="360" y="634" on="1"/>
        <pt x="349" y="625" on="0"/>
        <pt x="324" y="609" on="0"/>
        <pt x="311" y="601" on="1"/>
        <pt x="414" y="451" on="1"/>
        <pt x="506" y="598" on="1"/>
        <pt x="430" y="611" on="1"/>
        <pt x="431" y="666" on="1"/>
        <pt x="713" y="666" on="1"/>
        <pt x="719" y="634" on="1"/>
        <pt x="700" y="619" on="0"/>
        <pt x="657" y="593" on="0"/>
        <pt x="632" y="581" on="1"/>
        <pt x="482" y="352" on="1"/>
        <pt x="677" y="67" on="1"/>
        <pt x="749" y="55" on="1"/>
        <pt x="748" y="0" on="1"/>
        <pt x="398" y="0" on="1"/>
        <pt x="392" y="32" on="1"/>
        <pt x="404" y="41" on="0"/>
        <pt x="430" y="59" on="0"/>
        <pt x="444" y="67" on="1"/>
        <pt x="332" y="232" on="1"/>
        <pt x="225" y="68" on="1"/>
        <pt x="301" y="55" on="1"/>
        <pt x="300" y="0" on="1"/>
        <pt x="0" y="0" on="1"/>
      </contour>
    </TTGlyph>
    <TTGlyph name="Xi" xMin="50" yMin="0" xMax="673" yMax="672">
      <contour>
        <pt x="85" y="419" on="1"/>
        <pt x="79" y="444" on="0"/>
        <pt x="69" y="517" on="0"/>
        <pt x="63" y="590" on="0"/>
        <pt x="61" y="655" on="0"/>
        <pt x="63" y="672" on="1"/>
        <pt x="160" y="670" on="0"/>
        <pt x="301" y="668" on="0"/>
        <pt x="429" y="668" on="0"/>
        <pt x="567" y="670" on="0"/>
        <pt x="661" y="672" on="1"/>
        <pt x="662" y="655" on="0"/>
        <pt x="659" y="590" on="0"/>
        <pt x="653" y="517" on="0"/>
        <pt x="644" y="444" on="0"/>
        <pt x="639" y="419" on="1"/>
        <pt x="532" y="419" on="1"/>
        <pt x="519" y="546" on="1"/>
        <pt x="361" y="555" on="1"/>
        <pt x="204" y="546" on="1"/>
        <pt x="191" y="419" on="1"/>
      </contour>
      <contour>
        <pt x="209" y="276" on="1"/>
        <pt x="209" y="388" on="1"/>
        <pt x="515" y="407" on="1"/>
        <pt x="515" y="267" on="1"/>
      </contour>
      <contour>
        <pt x="63" y="0" on="1"/>
        <pt x="59" y="27" on="0"/>
        <pt x="54" y="93" on="0"/>
        <pt x="51" y="159" on="0"/>
        <pt x="50" y="223" on="0"/>
        <pt x="51" y="248" on="1"/>
        <pt x="166" y="257" on="1"/>
        <pt x="205" y="129" on="1"/>
        <pt x="362" y="120" on="1"/>
        <pt x="519" y="129" on="1"/>
        <pt x="558" y="257" on="1"/>
        <pt x="673" y="248" on="1"/>
        <pt x="674" y="223" on="0"/>
        <pt x="673" y="159" on="0"/>
        <pt x="670" y="93" on="0"/>
        <pt x="664" y="27" on="0"/>
        <pt x="661" y="0" on="1"/>
      </contour>
    </TTGlyph>
    <TTGlyph name="Y" xMin="-4" yMin="0" xMax="706" yMax="666">
      <contour>
        <pt x="166" y="32" on="1"/>
        <pt x="184" y="46" on="0"/>
        <pt x="226" y="72" on="0"/>
        <pt x="250" y="84" on="1"/>
        <pt x="250" y="242" on="1"/>
        <pt x="60" y="600" on="1"/>
        <pt x="-4" y="611" on="1"/>
        <pt x="-3" y="666" on="1"/>
        <pt x="305" y="666" on="1"/>
        <pt x="311" y="634" on="1"/>
        <pt x="301" y="626" on="0"/>
        <pt x="277" y="609" on="0"/>
        <pt x="264" y="602" on="1"/>
        <pt x="344" y="452" on="1"/>
        <pt x="372" y="363" on="1"/>
        <pt x="379" y="363" on="1"/>
        <pt x="498" y="599" on="1"/>
        <pt x="430" y="611" on="1"/>
        <pt x="431" y="666" on="1"/>
        <pt x="700" y="666" on="1"/>
        <pt x="706" y="634" on="1"/>
        <pt x="687" y="618" on="0"/>
        <pt x="640" y="591" on="0"/>
        <pt x="614" y="578" on="1"/>
        <pt x="452" y="276" on="1"/>
        <pt x="452" y="70" on="1"/>
        <pt x="537" y="55" on="1"/>
        <pt x="536" y="0" on="1"/>
        <pt x="172" y="0" on="1"/>
      </contour>
    </TTGlyph>
    <TTGlyph name="Yacute" xMin="-4" yMin="0" xMax="706" yMax="922">
      <component glyphName="Y" x="0" y="0" flags="0x204"/>
      <component glyphName="acutecomb.case" x="369" y="0" flags="0x4"/>
    </TTGlyph>
    <TTGlyph name="Ydieresis" xMin="-4" yMin="0" xMax="706" yMax="936">
      <component glyphName="Y" x="0" y="0" flags="0x204"/>
      <component glyphName="uni0308.case" x="370" y="176" flags="0x4"/>
    </TTGlyph>
    <TTGlyph name="Z" xMin="31" yMin="-1" xMax="653" yMax="666">
      <contour>
        <pt x="31" y="90" on="1"/>
        <pt x="403" y="573" on="1"/>
        <pt x="236" y="559" on="1"/>
        <pt x="187" y="416" on="1"/>
        <pt x="73" y="416" on="1"/>
        <pt x="63" y="472" on="0"/>
        <pt x="62" y="608" on="0"/>
        <pt x="67" y="666" on="1"/>
        <pt x="603" y="666" on="1"/>
        <pt x="648" y="578" on="1"/>
        <pt x="284" y="103" on="1"/>
        <pt x="472" y="112" on="1"/>
        <pt x="531" y="252" on="1"/>
        <pt x="653" y="235" on="1"/>
        <pt x="651" y="172" on="0"/>
        <pt x="637" y="64" on="0"/>
        <pt x="627" y="0" on="1"/>
        <pt x="89" y="-1" on="1"/>
      </contour>
    </TTGlyph>
    <TTGlyph name="Zacute" xMin="31" yMin="-1" xMax="653" yMax="922">
      <component glyphName="Z" x="0" y="0" flags="0x204"/>
      <component glyphName="acutecomb.case" x="354" y="0" flags="0x4"/>
    </TTGlyph>
    <TTGlyph name="Zcaron" xMin="31" yMin="-1" xMax="653" yMax="937">
      <component glyphName="Z" x="0" y="0" flags="0x204"/>
      <component glyphName="uni030C.case" x="355" y="140" flags="0x4"/>
    </TTGlyph>
    <TTGlyph name="Zdotaccent" xMin="31" yMin="-1" xMax="653" yMax="936">
      <component glyphName="Z" x="0" y="0" flags="0x204"/>
      <component glyphName="uni0307.case" x="355" y="176" flags="0x4"/>
    </TTGlyph>
    <TTGlyph name="Zeta" xMin="31" yMin="-1" xMax="653" yMax="666">
      <component glyphName="Z" x="0" y="0" flags="0x204"/>
    </TTGlyph>
    <TTGlyph name="a" xMin="24" yMin="-17" xMax="578" yMax="505">
      <contour>
        <pt x="219" y="-12" on="1"/>
        <pt x="173" y="-19" on="0"/>
        <pt x="100" y="-1" on="0"/>
        <pt x="50" y="38" on="0"/>
        <pt x="24" y="91" on="0"/>
        <pt x="24" y="117" on="1"/>
        <pt x="24" y="148" on="0"/>
        <pt x="64" y="217" on="0"/>
        <pt x="109" y="239" on="1"/>
        <pt x="297" y="243" on="1"/>
        <pt x="297" y="318" on="1"/>
        <pt x="297" y="365" on="0"/>
        <pt x="268" y="408" on="0"/>
        <pt x="252" y="416" on="1"/>
        <pt x="242" y="415" on="0"/>
        <pt x="222" y="410" on="0"/>
        <pt x="215" y="406" on="1"/>
        <pt x="186" y="294" on="1"/>
        <pt x="72" y="293" on="1"/>
        <pt x="61" y="330" on="0"/>
        <pt x="53" y="415" on="0"/>
        <pt x="59" y="454" on="1"/>
        <pt x="93" y="466" on="0"/>
        <pt x="171" y="485" on="0"/>
        <pt x="245" y="498" on="0"/>
        <pt x="311" y="505" on="0"/>
        <pt x="333" y="505" on="1"/>
        <pt x="377" y="505" on="0"/>
        <pt x="455" y="471" on="0"/>
        <pt x="486" y="431" on="1"/>
        <pt x="493" y="419" on="0"/>
        <pt x="498" y="371" on="0"/>
        <pt x="498" y="329" on="1"/>
        <pt x="498" y="134" on="1"/>
        <pt x="498" y="124" on="0"/>
        <pt x="510" y="108" on="0"/>
        <pt x="522" y="108" on="1"/>
        <pt x="534" y="108" on="0"/>
        <pt x="557" y="109" on="0"/>
        <pt x="575" y="110" on="1"/>
        <pt x="578" y="65" on="1"/>
        <pt x="435" y="-17" on="1"/>
        <pt x="404" y="-17" on="0"/>
        <pt x="344" y="21" on="0"/>
        <pt x="323" y="57" on="1"/>
      </contour>
      <contour>
        <pt x="220" y="132" on="1"/>
        <pt x="220" y="122" on="0"/>
        <pt x="228" y="98" on="0"/>
        <pt x="235" y="90" on="1"/>
        <pt x="251" y="92" on="0"/>
        <pt x="282" y="99" on="0"/>
        <pt x="297" y="103" on="1"/>
        <pt x="297" y="178" on="1"/>
        <pt x="267" y="178" on="0"/>
        <pt x="220" y="157" on="0"/>
      </contour>
    </TTGlyph>
    <TTGlyph name="aacute" xMin="24" yMin="-17" xMax="578" yMax="802">
      <component glyphName="a" x="0" y="0" flags="0x204"/>
      <component glyphName="acutecomb" x="271" y="-6" flags="0x4"/>
    </TTGlyph>
    <TTGlyph name="abreve" xMin="24" yMin="-17" xMax="578" yMax="715">
      <component glyphName="a" x="0" y="0" flags="0x204"/>
      <component glyphName="uni0306" x="271" y="-6" flags="0x4"/>
    </TTGlyph>
    <TTGlyph name="acircumflex" xMin="24" yMin="-17" xMax="578" yMax="745">
      <component glyphName="a" x="0" y="0" flags="0x204"/>
      <component glyphName="uni0302" x="271" y="-6" flags="0x4"/>
    </TTGlyph>
    <TTGlyph name="acute" xMin="14" yMin="535" xMax="291" yMax="808">
      <component glyphName="acutecomb" x="118" y="0" flags="0x4"/>
    </TTGlyph>
    <TTGlyph name="acutecomb" xMin="-104" yMin="535" xMax="173" yMax="808">
      <contour>
        <pt x="-104" y="611" on="1"/>
        <pt x="53" y="808" on="1"/>
        <pt x="173" y="702" on="1"/>
        <pt x="128" y="666" on="0"/>
        <pt x="36" y="575" on="0"/>
        <pt x="-6" y="535" on="1"/>
      </contour>
    </TTGlyph>
    <TTGlyph name="acutecomb.case" xMin="-150" yMin="684" xMax="165" yMax="922">
      <contour>
        <pt x="-150" y="773" on="1"/>
        <pt x="99" y="922" on="1"/>
        <pt x="165" y="784" on="1"/>
        <pt x="102" y="760" on="0"/>
        <pt x="-37" y="710" on="0"/>
        <pt x="-99" y="684" on="1"/>
      </contour>
    </TTGlyph>
    <TTGlyph name="adieresis" xMin="24" yMin="-17" xMax="578" yMax="754">
      <component glyphName="a" x="0" y="0" flags="0x204"/>
      <component glyphName="uni0308" x="271" y="-6" flags="0x4"/>
    </TTGlyph>
    <TTGlyph name="ae" xMin="24" yMin="-16" xMax="796" yMax="504">
      <contour>
        <pt x="219" y="-12" on="1"/>
        <pt x="173" y="-19" on="0"/>
        <pt x="100" y="-1" on="0"/>
        <pt x="50" y="38" on="0"/>
        <pt x="24" y="91" on="0"/>
        <pt x="24" y="117" on="1"/>
        <pt x="24" y="148" on="0"/>
        <pt x="64" y="217" on="0"/>
        <pt x="109" y="239" on="1"/>
        <pt x="299" y="243" on="1"/>
        <pt x="298" y="312" on="1"/>
        <pt x="297" y="359" on="0"/>
        <pt x="269" y="401" on="0"/>
        <pt x="253" y="409" on="1"/>
        <pt x="243" y="408" on="0"/>
        <pt x="223" y="403" on="0"/>
        <pt x="216" y="399" on="1"/>
        <pt x="187" y="287" on="1"/>
        <pt x="65" y="293" on="1"/>
        <pt x="57" y="330" on="0"/>
        <pt x="54" y="409" on="0"/>
        <pt x="60" y="447" on="1"/>
        <pt x="130" y="472" on="0"/>
        <pt x="284" y="500" on="0"/>
        <pt x="351" y="500" on="1"/>
        <pt x="371" y="499" on="0"/>
        <pt x="408" y="478" on="0"/>
        <pt x="424" y="462" on="1"/>
        <pt x="455" y="482" on="0"/>
        <pt x="528" y="504" on="0"/>
        <pt x="565" y="504" on="1"/>
        <pt x="602" y="504" on="0"/>
        <pt x="684" y="481" on="0"/>
        <pt x="752" y="428" on="0"/>
        <pt x="796" y="341" on="0"/>
        <pt x="796" y="278" on="1"/>
        <pt x="788" y="278" on="1"/>
        <pt x="729" y="219" on="1"/>
        <pt x="487" y="220" on="1"/>
        <pt x="497" y="163" on="0"/>
        <pt x="573" y="108" on="0"/>
        <pt x="626" y="108" on="1"/>
        <pt x="659" y="108" on="0"/>
        <pt x="718" y="128" on="0"/>
        <pt x="754" y="147" on="1"/>
        <pt x="782" y="85" on="1"/>
        <pt x="624" y="-11" on="1"/>
        <pt x="548" y="-25" on="0"/>
        <pt x="407" y="18" on="0"/>
        <pt x="361" y="69" on="1"/>
      </contour>
      <contour>
        <pt x="545" y="413" on="1"/>
        <pt x="522" y="397" on="0"/>
        <pt x="494" y="338" on="0"/>
        <pt x="488" y="305" on="1"/>
        <pt x="617" y="314" on="1"/>
        <pt x="613" y="350" on="0"/>
        <pt x="574" y="409" on="0"/>
      </contour>
      <contour>
        <pt x="235" y="90" on="1"/>
        <pt x="253" y="92" on="0"/>
        <pt x="308" y="107" on="0"/>
        <pt x="330" y="114" on="1"/>
        <pt x="322" y="129" on="0"/>
        <pt x="311" y="161" on="0"/>
        <pt x="307" y="178" on="1"/>
        <pt x="299" y="178" on="1"/>
        <pt x="268" y="178" on="0"/>
        <pt x="220" y="158" on="0"/>
        <pt x="220" y="132" on="1"/>
        <pt x="220" y="122" on="0"/>
        <pt x="228" y="98" on="0"/>
      </contour>
    </TTGlyph>
    <TTGlyph name="agrave" xMin="24" yMin="-17" xMax="578" yMax="802">
      <component glyphName="a" x="0" y="0" flags="0x204"/>
      <component glyphName="gravecomb" x="271" y="-6" flags="0x4"/>
    </TTGlyph>
    <TTGlyph name="alpha" xMin="15" yMin="-14" xMax="620" yMax="506">
      <contour>
        <pt x="202" y="-14" on="1"/>
        <pt x="162" y="-14" on="0"/>
        <pt x="94" y="25" on="0"/>
        <pt x="44" y="93" on="0"/>
        <pt x="15" y="185" on="0"/>
        <pt x="15" y="238" on="1"/>
        <pt x="15" y="292" on="0"/>
        <pt x="45" y="389" on="0"/>
        <pt x="96" y="462" on="0"/>
        <pt x="165" y="505" on="0"/>
        <pt x="203" y="505" on="1"/>
        <pt x="258" y="505" on="0"/>
        <pt x="341" y="431" on="0"/>
        <pt x="359" y="367" on="1"/>
        <pt x="367" y="471" on="1"/>
        <pt x="411" y="506" on="1"/>
        <pt x="454" y="506" on="0"/>
        <pt x="546" y="475" on="0"/>
        <pt x="568" y="453" on="1"/>
        <pt x="471" y="140" on="1"/>
        <pt x="599" y="154" on="1"/>
        <pt x="620" y="108" on="1"/>
        <pt x="607" y="60" on="0"/>
        <pt x="531" y="-14" on="0"/>
        <pt x="495" y="-14" on="1"/>
        <pt x="458" y="-14" on="0"/>
        <pt x="399" y="53" on="0"/>
        <pt x="384" y="108" on="1"/>
        <pt x="378" y="108" on="1"/>
        <pt x="335" y="45" on="0"/>
        <pt x="249" y="-14" on="0"/>
      </contour>
      <contour>
        <pt x="118" y="199" on="1"/>
        <pt x="139" y="193" on="0"/>
        <pt x="178" y="187" on="0"/>
        <pt x="200" y="187" on="1"/>
        <pt x="261" y="187" on="0"/>
        <pt x="345" y="237" on="0"/>
        <pt x="353" y="279" on="1"/>
        <pt x="354" y="282" on="1"/>
        <pt x="331" y="292" on="0"/>
        <pt x="278" y="302" on="0"/>
        <pt x="245" y="302" on="1"/>
        <pt x="185" y="302" on="0"/>
        <pt x="109" y="259" on="0"/>
        <pt x="109" y="224" on="1"/>
        <pt x="109" y="216" on="0"/>
        <pt x="113" y="204" on="0"/>
      </contour>
    </TTGlyph>
    <TTGlyph name="alphaacute" xMin="15" yMin="-14" xMax="620" yMax="804">
      <component glyphName="alpha" x="0" y="0" flags="0x204"/>
      <component glyphName="grAcute" x="165" y="0" flags="0x4"/>
    </TTGlyph>
    <TTGlyph name="alphaacuteiotasub" xMin="15" yMin="-227" xMax="620" yMax="804">
      <component glyphName="alpha" x="0" y="0" flags="0x204"/>
      <component glyphName="grAcute" x="165" y="0" flags="0x4"/>
      <component glyphName="iotaadscript" x="127" y="0" flags="0x4"/>
    </TTGlyph>
    <TTGlyph name="alphaasper" xMin="15" yMin="-14" xMax="620" yMax="806">
      <component glyphName="alpha" x="0" y="0" flags="0x204"/>
      <component glyphName="asper" x="107" y="0" flags="0x4"/>
    </TTGlyph>
    <TTGlyph name="alphaasperacute" xMin="15" yMin="-14" xMax="620" yMax="806">
      <component glyphName="alpha" x="0" y="0" flags="0x204"/>
      <component glyphName="asperacute" x="131" y="0" flags="0x4"/>
    </TTGlyph>
    <TTGlyph name="alphaasperacuteiotasub" xMin="15" yMin="-227" xMax="620" yMax="806">
      <component glyphName="alpha" x="0" y="0" flags="0x204"/>
      <component glyphName="asperacute" x="131" y="0" flags="0x4"/>
      <component glyphName="iotaadscript" x="127" y="0" flags="0x4"/>
    </TTGlyph>
    <TTGlyph name="alphaaspergrave" xMin="15" yMin="-14" xMax="620" yMax="806">
      <component glyphName="alpha" x="0" y="0" flags="0x204"/>
      <component glyphName="aspergrave" x="117" y="0" flags="0x4"/>
    </TTGlyph>
    <TTGlyph name="alphaaspergraveiotasub" xMin="15" yMin="-227" xMax="620" yMax="806">
      <component glyphName="alpha" x="0" y="0" flags="0x204"/>
      <component glyphName="aspergrave" x="117" y="0" flags="0x4"/>
      <component glyphName="iotaadscript" x="127" y="0" flags="0x4"/>
    </TTGlyph>
    <TTGlyph name="alphaasperiotasub" xMin="15" yMin="-227" xMax="620" yMax="806">
      <component glyphName="alpha" x="0" y="0" flags="0x204"/>
      <component glyphName="asper" x="107" y="0" flags="0x4"/>
      <component glyphName="iotaadscript" x="127" y="0" flags="0x4"/>
    </TTGlyph>
    <TTGlyph name="alphaaspertilde" xMin="15" yMin="-14" xMax="620" yMax="998">
      <component glyphName="alpha" x="0" y="0" flags="0x204"/>
      <component glyphName="aspertilde" x="117" y="0" flags="0x4"/>
    </TTGlyph>
    <TTGlyph name="alphaaspertildeiotasub" xMin="15" yMin="-227" xMax="620" yMax="998">
      <component glyphName="alpha" x="0" y="0" flags="0x204"/>
      <component glyphName="aspertilde" x="117" y="0" flags="0x4"/>
      <component glyphName="iotaadscript" x="127" y="0" flags="0x4"/>
    </TTGlyph>
    <TTGlyph name="alphabreve" xMin="15" yMin="-14" xMax="620" yMax="721">
      <component glyphName="alpha" x="0" y="0" flags="0x204"/>
      <component glyphName="uni0306" x="315" y="0" flags="0x4"/>
    </TTGlyph>
    <TTGlyph name="alphagrave" xMin="15" yMin="-14" xMax="620" yMax="804">
      <component glyphName="alpha" x="0" y="0" flags="0x204"/>
      <component glyphName="grGrave" x="165" y="0" flags="0x4"/>
    </TTGlyph>
    <TTGlyph name="alphagraveiotasub" xMin="15" yMin="-227" xMax="620" yMax="804">
      <component glyphName="alpha" x="0" y="0" flags="0x204"/>
      <component glyphName="grGrave" x="165" y="0" flags="0x4"/>
      <component glyphName="iotaadscript" x="127" y="0" flags="0x4"/>
    </TTGlyph>
    <TTGlyph name="alphaiotasub" xMin="15" yMin="-227" xMax="620" yMax="506">
      <component glyphName="alpha" x="0" y="0" flags="0x204"/>
      <component glyphName="iotaadscript" x="127" y="0" flags="0x4"/>
    </TTGlyph>
    <TTGlyph name="alphalenis" xMin="15" yMin="-14" xMax="620" yMax="806">
      <component glyphName="alpha" x="0" y="0" flags="0x204"/>
      <component glyphName="lenis" x="142" y="0" flags="0x4"/>
    </TTGlyph>
    <TTGlyph name="alphalenisacute" xMin="15" yMin="-14" xMax="620" yMax="806">
      <component glyphName="alpha" x="0" y="0" flags="0x204"/>
      <component glyphName="lenisacute" x="157" y="0" flags="0x4"/>
    </TTGlyph>
    <TTGlyph name="alphalenisacuteiotasub" xMin="15" yMin="-227" xMax="620" yMax="806">
      <component glyphName="alpha" x="0" y="0" flags="0x204"/>
      <component glyphName="lenisacute" x="157" y="0" flags="0x4"/>
      <component glyphName="iotaadscript" x="127" y="0" flags="0x4"/>
    </TTGlyph>
    <TTGlyph name="alphalenisgrave" xMin="15" yMin="-14" xMax="620" yMax="806">
      <component glyphName="alpha" x="0" y="0" flags="0x204"/>
      <component glyphName="lenisgrave" x="125" y="0" flags="0x4"/>
    </TTGlyph>
    <TTGlyph name="alphalenisgraveiotasub" xMin="15" yMin="-227" xMax="620" yMax="806">
      <component glyphName="alpha" x="0" y="0" flags="0x204"/>
      <component glyphName="lenisgrave" x="125" y="0" flags="0x4"/>
      <component glyphName="iotaadscript" x="127" y="0" flags="0x4"/>
    </TTGlyph>
    <TTGlyph name="alphalenisiotasub" xMin="15" yMin="-227" xMax="620" yMax="806">
      <component glyphName="alpha" x="0" y="0" flags="0x204"/>
      <component glyphName="lenis" x="142" y="0" flags="0x4"/>
      <component glyphName="iotaadscript" x="127" y="0" flags="0x4"/>
    </TTGlyph>
    <TTGlyph name="alphalenistilde" xMin="15" yMin="-14" xMax="620" yMax="998">
      <component glyphName="alpha" x="0" y="0" flags="0x204"/>
      <component glyphName="lenistilde" x="132" y="0" flags="0x4"/>
    </TTGlyph>
    <TTGlyph name="alphalenistildeiotasub" xMin="15" yMin="-227" xMax="620" yMax="998">
      <component glyphName="alpha" x="0" y="0" flags="0x204"/>
      <component glyphName="lenistilde" x="132" y="0" flags="0x4"/>
      <component glyphName="iotaadscript" x="127" y="0" flags="0x4"/>
    </TTGlyph>
    <TTGlyph name="alphatilde" xMin="15" yMin="-14" xMax="620" yMax="756">
      <component glyphName="alpha" x="0" y="0" flags="0x204"/>
      <component glyphName="grTilde" x="167" y="0" flags="0x4"/>
    </TTGlyph>
    <TTGlyph name="alphatildeiotasub" xMin="15" yMin="-227" xMax="620" yMax="756">
      <component glyphName="alpha" x="0" y="0" flags="0x204"/>
      <component glyphName="grTilde" x="167" y="0" flags="0x4"/>
      <component glyphName="iotaadscript" x="127" y="0" flags="0x4"/>
    </TTGlyph>
    <TTGlyph name="alphawithmacron" xMin="15" yMin="-14" xMax="620" yMax="677">
      <component glyphName="alpha" x="0" y="0" flags="0x204"/>
      <component glyphName="uni0304" x="302" y="0" flags="0x4"/>
    </TTGlyph>
    <TTGlyph name="alphawithtonos" xMin="15" yMin="-14" xMax="620" yMax="804">
      <component glyphName="alpha" x="0" y="0" flags="0x204"/>
      <component glyphName="tonos" x="165" y="0" flags="0x4"/>
    </TTGlyph>
    <TTGlyph name="amacron" xMin="24" yMin="-17" xMax="578" yMax="671">
      <component glyphName="a" x="0" y="0" flags="0x204"/>
      <component glyphName="uni0304" x="270" y="-6" flags="0x4"/>
    </TTGlyph>
    <TTGlyph name="ampersand" xMin="9" yMin="-29" xMax="756" yMax="668">
      <contour>
        <pt x="327" y="-29" on="1"/>
        <pt x="260" y="-29" on="0"/>
        <pt x="144" y="6" on="0"/>
        <pt x="58" y="67" on="0"/>
        <pt x="9" y="155" on="0"/>
        <pt x="9" y="207" on="1"/>
        <pt x="9" y="267" on="0"/>
        <pt x="70" y="347" on="0"/>
        <pt x="113" y="367" on="1"/>
        <pt x="71" y="389" on="0"/>
        <pt x="30" y="455" on="0"/>
        <pt x="30" y="491" on="1"/>
        <pt x="30" y="523" on="0"/>
        <pt x="62" y="587" on="0"/>
        <pt x="125" y="637" on="0"/>
        <pt x="221" y="668" on="0"/>
        <pt x="283" y="668" on="1"/>
        <pt x="334" y="668" on="0"/>
        <pt x="453" y="645" on="0"/>
        <pt x="502" y="622" on="1"/>
        <pt x="441" y="469" on="1"/>
        <pt x="263" y="550" on="1"/>
        <pt x="241" y="542" on="0"/>
        <pt x="207" y="494" on="0"/>
        <pt x="207" y="466" on="1"/>
        <pt x="207" y="450" on="0"/>
        <pt x="220" y="416" on="0"/>
        <pt x="233" y="400" on="1"/>
        <pt x="335" y="360" on="1"/>
        <pt x="316" y="278" on="1"/>
        <pt x="258" y="279" on="0"/>
        <pt x="190" y="227" on="0"/>
        <pt x="190" y="184" on="1"/>
        <pt x="190" y="159" on="0"/>
        <pt x="213" y="120" on="0"/>
        <pt x="251" y="94" on="0"/>
        <pt x="300" y="81" on="0"/>
        <pt x="326" y="81" on="1"/>
        <pt x="350" y="81" on="0"/>
        <pt x="406" y="93" on="0"/>
        <pt x="425" y="105" on="1"/>
        <pt x="450" y="126" on="0"/>
        <pt x="473" y="186" on="0"/>
        <pt x="473" y="220" on="1"/>
        <pt x="473" y="244" on="0"/>
        <pt x="462" y="291" on="0"/>
        <pt x="451" y="312" on="1"/>
        <pt x="439" y="306" on="0"/>
        <pt x="414" y="290" on="0"/>
        <pt x="401" y="281" on="1"/>
        <pt x="359" y="359" on="1"/>
        <pt x="427" y="402" on="0"/>
        <pt x="546" y="461" on="0"/>
        <pt x="644" y="483" on="0"/>
        <pt x="725" y="466" on="0"/>
        <pt x="756" y="433" on="1"/>
        <pt x="707" y="300" on="1"/>
        <pt x="682" y="317" on="0"/>
        <pt x="631" y="344" on="0"/>
        <pt x="603" y="349" on="1"/>
        <pt x="617" y="319" on="0"/>
        <pt x="631" y="256" on="0"/>
        <pt x="631" y="226" on="1"/>
        <pt x="631" y="173" on="0"/>
        <pt x="590" y="79" on="0"/>
        <pt x="512" y="11" on="0"/>
        <pt x="399" y="-29" on="0"/>
      </contour>
    </TTGlyph>
    <TTGlyph name="anoteleia" xMin="40" yMin="235" xMax="259" yMax="453">
      <component glyphName="period" x="-61" y="280" flags="0x4"/>
    </TTGlyph>
    <TTGlyph name="aogonek" xMin="24" yMin="-259" xMax="578" yMax="505">
      <component glyphName="a" x="0" y="0" flags="0x204"/>
      <component glyphName="uni0328" x="515" y="1" flags="0x4"/>
    </TTGlyph>
    <TTGlyph name="approxequal" xMin="53" yMin="45" xMax="537" yMax="462">
      <component glyphName="tildecomb.case" x="286" y="-453" flags="0x4"/>
      <component glyphName="tildecomb.case" x="286" y="-655" flags="0x4"/>
    </TTGlyph>
    <TTGlyph name="aring" xMin="24" yMin="-17" xMax="578" yMax="783">
      <component glyphName="a" x="0" y="0" flags="0x204"/>
      <component glyphName="uni030A" x="271" y="-182" flags="0x4"/>
    </TTGlyph>
    <TTGlyph name="asciicircum" xMin="8" yMin="319" xMax="477" yMax="650">
      <contour>
        <pt x="8" y="379" on="1"/>
        <pt x="191" y="650" on="1"/>
        <pt x="289" y="650" on="1"/>
        <pt x="477" y="380" on="1"/>
        <pt x="384" y="320" on="1"/>
        <pt x="245" y="520" on="1"/>
        <pt x="238" y="520" on="1"/>
        <pt x="106" y="319" on="1"/>
      </contour>
    </TTGlyph>
    <TTGlyph name="asciitilde" xMin="63" yMin="162" xMax="547" yMax="377">
      <component glyphName="tildecomb.case" x="296" y="-538" flags="0x4"/>
    </TTGlyph>
    <TTGlyph name="asper" xMin="72" yMin="531" xMax="248" yMax="806">
      <contour>
        <pt x="248" y="585" on="1"/>
        <pt x="208" y="531" on="1"/>
        <pt x="148" y="556" on="0"/>
        <pt x="72" y="653" on="0"/>
        <pt x="72" y="704" on="1"/>
        <pt x="72" y="734" on="0"/>
        <pt x="111" y="794" on="0"/>
        <pt x="159" y="806" on="1"/>
        <pt x="189" y="794" on="0"/>
        <pt x="235" y="738" on="0"/>
        <pt x="240" y="702" on="1"/>
        <pt x="189" y="663" on="1"/>
        <pt x="190" y="644" on="0"/>
        <pt x="220" y="607" on="0"/>
      </contour>
    </TTGlyph>
    <TTGlyph name="asper.case" xMin="38" yMin="403" xMax="214" yMax="678">
      <contour>
        <pt x="174" y="403" on="1"/>
        <pt x="114" y="428" on="0"/>
        <pt x="38" y="525" on="0"/>
        <pt x="38" y="576" on="1"/>
        <pt x="38" y="606" on="0"/>
        <pt x="77" y="666" on="0"/>
        <pt x="125" y="678" on="1"/>
        <pt x="155" y="666" on="0"/>
        <pt x="201" y="610" on="0"/>
        <pt x="206" y="574" on="1"/>
        <pt x="155" y="535" on="1"/>
        <pt x="156" y="516" on="0"/>
        <pt x="186" y="479" on="0"/>
        <pt x="214" y="457" on="1"/>
      </contour>
    </TTGlyph>
    <TTGlyph name="asperacute" xMin="-37" yMin="531" xMax="346" yMax="806">
      <contour>
        <pt x="99" y="531" on="1"/>
        <pt x="39" y="556" on="0"/>
        <pt x="-37" y="653" on="0"/>
        <pt x="-37" y="704" on="1"/>
        <pt x="-37" y="734" on="0"/>
        <pt x="2" y="794" on="0"/>
        <pt x="50" y="806" on="1"/>
        <pt x="80" y="794" on="0"/>
        <pt x="126" y="738" on="0"/>
        <pt x="131" y="702" on="1"/>
        <pt x="80" y="663" on="1"/>
        <pt x="81" y="644" on="0"/>
        <pt x="111" y="607" on="0"/>
        <pt x="139" y="585" on="1"/>
      </contour>
      <contour>
        <pt x="166" y="557" on="1"/>
        <pt x="215" y="803" on="1"/>
        <pt x="248" y="809" on="0"/>
        <pt x="324" y="784" on="0"/>
        <pt x="342" y="770" on="1"/>
        <pt x="346" y="732" on="1"/>
        <pt x="235" y="531" on="1"/>
      </contour>
    </TTGlyph>
    <TTGlyph name="asperacute.case" xMin="-10" yMin="403" xMax="373" yMax="678">
      <contour>
        <pt x="126" y="403" on="1"/>
        <pt x="66" y="428" on="0"/>
        <pt x="-10" y="525" on="0"/>
        <pt x="-10" y="576" on="1"/>
        <pt x="-10" y="606" on="0"/>
        <pt x="29" y="666" on="0"/>
        <pt x="77" y="678" on="1"/>
        <pt x="107" y="666" on="0"/>
        <pt x="153" y="610" on="0"/>
        <pt x="158" y="574" on="1"/>
        <pt x="107" y="535" on="1"/>
        <pt x="108" y="516" on="0"/>
        <pt x="138" y="479" on="0"/>
        <pt x="166" y="457" on="1"/>
      </contour>
      <contour>
        <pt x="193" y="429" on="1"/>
        <pt x="242" y="675" on="1"/>
        <pt x="275" y="681" on="0"/>
        <pt x="351" y="656" on="0"/>
        <pt x="369" y="642" on="1"/>
        <pt x="373" y="604" on="1"/>
        <pt x="262" y="403" on="1"/>
      </contour>
    </TTGlyph>
    <TTGlyph name="aspergrave" xMin="-37" yMin="531" xMax="334" yMax="806">
      <contour>
        <pt x="99" y="531" on="1"/>
        <pt x="39" y="556" on="0"/>
        <pt x="-37" y="653" on="0"/>
        <pt x="-37" y="704" on="1"/>
        <pt x="-37" y="734" on="0"/>
        <pt x="2" y="794" on="0"/>
        <pt x="50" y="806" on="1"/>
        <pt x="80" y="794" on="0"/>
        <pt x="126" y="738" on="0"/>
        <pt x="131" y="702" on="1"/>
        <pt x="80" y="663" on="1"/>
        <pt x="81" y="644" on="0"/>
        <pt x="111" y="607" on="0"/>
        <pt x="139" y="585" on="1"/>
      </contour>
      <contour>
        <pt x="154" y="732" on="1"/>
        <pt x="158" y="770" on="1"/>
        <pt x="176" y="784" on="0"/>
        <pt x="252" y="809" on="0"/>
        <pt x="285" y="803" on="1"/>
        <pt x="334" y="557" on="1"/>
        <pt x="265" y="531" on="1"/>
      </contour>
    </TTGlyph>
    <TTGlyph name="aspergrave.case" xMin="-10" yMin="403" xMax="361" yMax="678">
      <contour>
        <pt x="126" y="403" on="1"/>
        <pt x="66" y="428" on="0"/>
        <pt x="-10" y="525" on="0"/>
        <pt x="-10" y="576" on="1"/>
        <pt x="-10" y="606" on="0"/>
        <pt x="29" y="666" on="0"/>
        <pt x="77" y="678" on="1"/>
        <pt x="107" y="666" on="0"/>
        <pt x="153" y="610" on="0"/>
        <pt x="158" y="574" on="1"/>
        <pt x="107" y="535" on="1"/>
        <pt x="108" y="516" on="0"/>
        <pt x="138" y="479" on="0"/>
        <pt x="166" y="457" on="1"/>
      </contour>
      <contour>
        <pt x="181" y="604" on="1"/>
        <pt x="185" y="642" on="1"/>
        <pt x="203" y="656" on="0"/>
        <pt x="279" y="681" on="0"/>
        <pt x="312" y="675" on="1"/>
        <pt x="361" y="429" on="1"/>
        <pt x="292" y="403" on="1"/>
      </contour>
    </TTGlyph>
    <TTGlyph name="aspertilde" xMin="-69" yMin="531" xMax="401" yMax="998">
      <component glyphName="grTilde" x="33" y="242" flags="0x4"/>
    </TTGlyph>
    <TTGlyph name="aspertilde.case" xMin="-220" yMin="211" xMax="250" yMax="678">
      <contour>
        <pt x="132" y="490" on="1"/>
        <pt x="98" y="490" on="0"/>
        <pt x="22" y="518" on="0"/>
        <pt x="-50" y="546" on="0"/>
        <pt x="-113" y="563" on="0"/>
        <pt x="-134" y="553" on="1"/>
        <pt x="-163" y="501" on="1"/>
        <pt x="-220" y="524" on="1"/>
        <pt x="-212" y="602" on="0"/>
        <pt x="-157" y="678" on="0"/>
        <pt x="-109" y="678" on="1"/>
        <pt x="-74" y="678" on="0"/>
        <pt x="2" y="651" on="0"/>
        <pt x="73" y="622" on="0"/>
        <pt x="135" y="603" on="0"/>
        <pt x="156" y="611" on="1"/>
        <pt x="189" y="670" on="1"/>
        <pt x="250" y="646" on="1"/>
        <pt x="239" y="566" on="0"/>
        <pt x="183" y="490" on="0"/>
      </contour>
      <contour>
        <pt x="48" y="211" on="1"/>
        <pt x="-12" y="236" on="0"/>
        <pt x="-88" y="333" on="0"/>
        <pt x="-88" y="384" on="1"/>
        <pt x="-88" y="414" on="0"/>
        <pt x="-49" y="474" on="0"/>
        <pt x="-1" y="486" on="1"/>
        <pt x="29" y="474" on="0"/>
        <pt x="75" y="418" on="0"/>
        <pt x="80" y="382" on="1"/>
        <pt x="29" y="343" on="1"/>
        <pt x="30" y="324" on="0"/>
        <pt x="60" y="287" on="0"/>
        <pt x="88" y="265" on="1"/>
      </contour>
    </TTGlyph>
    <TTGlyph name="asterisk" xMin="-19" yMin="379" xMax="429" yMax="821">
      <contour>
        <pt x="-19" y="622" on="1"/>
        <pt x="25" y="781" on="1"/>
        <pt x="137" y="666" on="1"/>
        <pt x="138" y="818" on="1"/>
        <pt x="302" y="821" on="1"/>
        <pt x="214" y="660" on="1"/>
        <pt x="138" y="665" on="1"/>
        <pt x="154" y="649" on="1"/>
        <pt x="127" y="577" on="1"/>
      </contour>
      <contour>
        <pt x="250" y="607" on="1"/>
        <pt x="228" y="680" on="1"/>
        <pt x="373" y="730" on="1"/>
        <pt x="429" y="577" on="1"/>
      </contour>
      <contour>
        <pt x="211" y="560" on="1"/>
        <pt x="275" y="602" on="1"/>
        <pt x="365" y="479" on="1"/>
        <pt x="235" y="379" on="1"/>
      </contour>
      <contour>
        <pt x="-11" y="513" on="1"/>
        <pt x="153" y="589" on="1"/>
        <pt x="213" y="541" on="1"/>
        <pt x="122" y="416" on="1"/>
      </contour>
    </TTGlyph>
    <TTGlyph name="at" xMin="33" yMin="-56" xMax="1078" yMax="750">
      <contour>
        <pt x="209" y="-56" on="1"/>
        <pt x="120" y="24" on="0"/>
        <pt x="33" y="216" on="0"/>
        <pt x="33" y="311" on="1"/>
        <pt x="33" y="396" on="0"/>
        <pt x="102" y="556" on="0"/>
        <pt x="236" y="677" on="0"/>
        <pt x="435" y="750" on="0"/>
        <pt x="563" y="750" on="1"/>
        <pt x="694" y="750" on="0"/>
        <pt x="889" y="674" on="0"/>
        <pt x="1016" y="553" on="0"/>
        <pt x="1078" y="399" on="0"/>
        <pt x="1078" y="322" on="1"/>
        <pt x="1078" y="263" on="0"/>
        <pt x="1043" y="152" on="0"/>
        <pt x="974" y="60" on="0"/>
        <pt x="871" y="-5" on="0"/>
        <pt x="804" y="-17" on="1"/>
        <pt x="718" y="-22" on="0"/>
        <pt x="636" y="19" on="0"/>
        <pt x="614" y="56" on="1"/>
        <pt x="510" y="-12" on="1"/>
        <pt x="464" y="-19" on="0"/>
        <pt x="391" y="-1" on="0"/>
        <pt x="341" y="37" on="0"/>
        <pt x="315" y="90" on="0"/>
        <pt x="315" y="116" on="1"/>
        <pt x="315" y="147" on="0"/>
        <pt x="355" y="216" on="0"/>
        <pt x="400" y="238" on="1"/>
        <pt x="588" y="242" on="1"/>
        <pt x="588" y="311" on="1"/>
        <pt x="588" y="358" on="0"/>
        <pt x="558" y="401" on="0"/>
        <pt x="543" y="408" on="1"/>
        <pt x="533" y="407" on="0"/>
        <pt x="513" y="403" on="0"/>
        <pt x="506" y="399" on="1"/>
        <pt x="477" y="285" on="1"/>
        <pt x="363" y="284" on="1"/>
        <pt x="353" y="323" on="0"/>
        <pt x="344" y="408" on="0"/>
        <pt x="349" y="447" on="1"/>
        <pt x="383" y="459" on="0"/>
        <pt x="460" y="477" on="0"/>
        <pt x="533" y="490" on="0"/>
        <pt x="599" y="497" on="0"/>
        <pt x="623" y="497" on="1"/>
        <pt x="667" y="497" on="0"/>
        <pt x="753" y="459" on="0"/>
        <pt x="777" y="424" on="1"/>
        <pt x="784" y="412" on="0"/>
        <pt x="789" y="364" on="0"/>
        <pt x="789" y="322" on="1"/>
        <pt x="789" y="135" on="1"/>
        <pt x="789" y="109" on="0"/>
        <pt x="820" y="111" on="0"/>
        <pt x="834" y="126" on="1"/>
        <pt x="860" y="153" on="0"/>
        <pt x="890" y="261" on="0"/>
        <pt x="890" y="313" on="1"/>
        <pt x="890" y="376" on="0"/>
        <pt x="845" y="481" on="0"/>
        <pt x="763" y="557" on="0"/>
        <pt x="643" y="599" on="0"/>
        <pt x="569" y="599" on="1"/>
        <pt x="485" y="599" on="0"/>
        <pt x="354" y="546" on="0"/>
        <pt x="267" y="456" on="0"/>
        <pt x="222" y="336" on="0"/>
        <pt x="222" y="270" on="1"/>
        <pt x="222" y="205" on="0"/>
        <pt x="267" y="69" on="0"/>
        <pt x="311" y="6" on="1"/>
      </contour>
      <contour>
        <pt x="511" y="131" on="1"/>
        <pt x="511" y="121" on="0"/>
        <pt x="519" y="97" on="0"/>
        <pt x="526" y="89" on="1"/>
        <pt x="542" y="91" on="0"/>
        <pt x="573" y="98" on="0"/>
        <pt x="588" y="102" on="1"/>
        <pt x="588" y="177" on="1"/>
        <pt x="558" y="177" on="0"/>
        <pt x="511" y="156" on="0"/>
      </contour>
    </TTGlyph>
    <TTGlyph name="atilde" xMin="24" yMin="-17" xMax="578" yMax="749">
      <component glyphName="a" x="0" y="0" flags="0x204"/>
      <component glyphName="tildecomb" x="271" y="-6" flags="0x4"/>
    </TTGlyph>
    <TTGlyph name="b" xMin="-24" yMin="-18" xMax="576" yMax="737">
      <contour>
        <pt x="274" y="-18" on="1"/>
        <pt x="225" y="-18" on="0"/>
        <pt x="106" y="2" on="0"/>
        <pt x="52" y="19" on="1"/>
        <pt x="53" y="20" on="1"/>
        <pt x="53" y="629" on="1"/>
        <pt x="-22" y="648" on="1"/>
        <pt x="-24" y="698" on="1"/>
        <pt x="24" y="714" on="0"/>
        <pt x="135" y="734" on="0"/>
        <pt x="195" y="737" on="1"/>
        <pt x="254" y="683" on="1"/>
        <pt x="254" y="417" on="1"/>
        <pt x="356" y="494" on="1"/>
        <pt x="408" y="502" on="0"/>
        <pt x="491" y="470" on="0"/>
        <pt x="546" y="405" on="0"/>
        <pt x="576" y="315" on="0"/>
        <pt x="576" y="266" on="1"/>
        <pt x="576" y="213" on="0"/>
        <pt x="541" y="111" on="0"/>
        <pt x="467" y="31" on="0"/>
        <pt x="352" y="-18" on="0"/>
      </contour>
      <contour>
        <pt x="278" y="363" on="1"/>
        <pt x="272" y="363" on="0"/>
        <pt x="260" y="361" on="0"/>
        <pt x="254" y="360" on="1"/>
        <pt x="254" y="86" on="1"/>
        <pt x="269" y="83" on="0"/>
        <pt x="300" y="82" on="0"/>
        <pt x="316" y="84" on="1"/>
        <pt x="341" y="110" on="0"/>
        <pt x="369" y="191" on="0"/>
        <pt x="369" y="232" on="1"/>
        <pt x="369" y="284" on="0"/>
        <pt x="322" y="363" on="0"/>
      </contour>
    </TTGlyph>
    <TTGlyph name="backslash" xMin="-39" yMin="-126" xMax="415" yMax="739">
      <contour>
        <pt x="-39" y="681" on="1"/>
        <pt x="107" y="739" on="1"/>
        <pt x="415" y="-70" on="1"/>
        <pt x="267" y="-126" on="1"/>
      </contour>
    </TTGlyph>
    <TTGlyph name="bar" xMin="93" yMin="-225" xMax="239" yMax="735">
      <contour>
        <pt x="93" y="735" on="1"/>
        <pt x="238" y="735" on="1"/>
        <pt x="239" y="-225" on="1"/>
        <pt x="93" y="-225" on="1"/>
      </contour>
    </TTGlyph>
    <TTGlyph name="beta" xMin="22" yMin="-223" xMax="526" yMax="735">
      <contour>
        <pt x="22" y="-195" on="1"/>
        <pt x="28" y="10" on="1"/>
        <pt x="30" y="61" on="0"/>
        <pt x="31" y="168" on="0"/>
        <pt x="31" y="238" on="1"/>
        <pt x="31" y="438" on="1"/>
        <pt x="31" y="575" on="0"/>
        <pt x="159" y="735" on="0"/>
        <pt x="267" y="735" on="1"/>
        <pt x="315" y="735" on="0"/>
        <pt x="398" y="699" on="0"/>
        <pt x="458" y="635" on="0"/>
        <pt x="492" y="548" on="0"/>
        <pt x="492" y="497" on="1"/>
        <pt x="492" y="455" on="0"/>
        <pt x="443" y="393" on="0"/>
        <pt x="400" y="376" on="1"/>
        <pt x="462" y="353" on="0"/>
        <pt x="526" y="265" on="0"/>
        <pt x="526" y="202" on="1"/>
        <pt x="526" y="156" on="0"/>
        <pt x="494" y="75" on="0"/>
        <pt x="438" y="15" on="0"/>
        <pt x="363" y="-20" on="0"/>
        <pt x="320" y="-20" on="1"/>
        <pt x="262" y="-20" on="0"/>
        <pt x="157" y="45" on="0"/>
        <pt x="125" y="100" on="1"/>
        <pt x="229" y="-182" on="1"/>
        <pt x="201" y="-198" on="0"/>
        <pt x="102" y="-222" on="0"/>
        <pt x="56" y="-223" on="1"/>
      </contour>
      <contour>
        <pt x="196" y="299" on="1"/>
        <pt x="188" y="327" on="0"/>
        <pt x="184" y="398" on="0"/>
        <pt x="188" y="426" on="1"/>
        <pt x="310" y="418" on="1"/>
        <pt x="345" y="426" on="0"/>
        <pt x="390" y="468" on="0"/>
        <pt x="390" y="496" on="1"/>
        <pt x="390" y="503" on="0"/>
        <pt x="386" y="515" on="0"/>
        <pt x="383" y="519" on="1"/>
        <pt x="369" y="526" on="0"/>
        <pt x="327" y="535" on="0"/>
        <pt x="302" y="535" on="1"/>
        <pt x="219" y="535" on="0"/>
        <pt x="137" y="450" on="0"/>
        <pt x="137" y="365" on="1"/>
        <pt x="137" y="232" on="1"/>
        <pt x="137" y="222" on="0"/>
        <pt x="137" y="203" on="0"/>
        <pt x="138" y="195" on="1"/>
        <pt x="160" y="189" on="0"/>
        <pt x="226" y="183" on="0"/>
        <pt x="257" y="183" on="1"/>
        <pt x="330" y="183" on="0"/>
        <pt x="422" y="211" on="0"/>
        <pt x="428" y="235" on="1"/>
        <pt x="420" y="255" on="0"/>
        <pt x="354" y="286" on="0"/>
        <pt x="305" y="293" on="1"/>
        <pt x="232" y="273" on="1"/>
      </contour>
    </TTGlyph>
    <TTGlyph name="braceleft" xMin="62" yMin="-145" xMax="484" yMax="729">
      <contour>
        <pt x="471" y="-145" on="1"/>
        <pt x="395" y="-141" on="0"/>
        <pt x="278" y="-104" on="0"/>
        <pt x="201" y="-52" on="0"/>
        <pt x="161" y="8" on="0"/>
        <pt x="161" y="34" on="1"/>
        <pt x="161" y="142" on="1"/>
        <pt x="161" y="172" on="0"/>
        <pt x="156" y="218" on="0"/>
        <pt x="137" y="249" on="0"/>
        <pt x="97" y="266" on="0"/>
        <pt x="62" y="268" on="1"/>
        <pt x="68" y="327" on="1"/>
        <pt x="100" y="329" on="0"/>
        <pt x="137" y="347" on="0"/>
        <pt x="156" y="376" on="0"/>
        <pt x="161" y="417" on="0"/>
        <pt x="161" y="443" on="1"/>
        <pt x="161" y="537" on="1"/>
        <pt x="161" y="566" on="0"/>
        <pt x="197" y="630" on="0"/>
        <pt x="273" y="685" on="0"/>
        <pt x="394" y="724" on="0"/>
        <pt x="478" y="729" on="1"/>
        <pt x="484" y="608" on="1"/>
        <pt x="359" y="608" on="1"/>
        <pt x="375" y="449" on="1"/>
        <pt x="379" y="410" on="0"/>
        <pt x="347" y="334" on="0"/>
        <pt x="317" y="304" on="1"/>
        <pt x="317" y="295" on="1"/>
        <pt x="347" y="264" on="0"/>
        <pt x="379" y="189" on="0"/>
        <pt x="375" y="149" on="1"/>
        <pt x="359" y="-12" on="1"/>
        <pt x="481" y="-24" on="1"/>
      </contour>
    </TTGlyph>
    <TTGlyph name="braceright" xMin="82" yMin="-145" xMax="504" yMax="729">
      <contour>
        <pt x="85" y="-24" on="1"/>
        <pt x="207" y="-12" on="1"/>
        <pt x="191" y="149" on="1"/>
        <pt x="187" y="189" on="0"/>
        <pt x="220" y="264" on="0"/>
        <pt x="249" y="295" on="1"/>
        <pt x="249" y="304" on="1"/>
        <pt x="220" y="334" on="0"/>
        <pt x="187" y="410" on="0"/>
        <pt x="191" y="449" on="1"/>
        <pt x="207" y="608" on="1"/>
        <pt x="82" y="608" on="1"/>
        <pt x="88" y="729" on="1"/>
        <pt x="172" y="724" on="0"/>
        <pt x="293" y="685" on="0"/>
        <pt x="369" y="630" on="0"/>
        <pt x="405" y="566" on="0"/>
        <pt x="405" y="537" on="1"/>
        <pt x="405" y="443" on="1"/>
        <pt x="405" y="417" on="0"/>
        <pt x="410" y="376" on="0"/>
        <pt x="429" y="347" on="0"/>
        <pt x="466" y="329" on="0"/>
        <pt x="498" y="327" on="1"/>
        <pt x="504" y="268" on="1"/>
        <pt x="469" y="266" on="0"/>
        <pt x="429" y="249" on="0"/>
        <pt x="410" y="218" on="0"/>
        <pt x="405" y="172" on="0"/>
        <pt x="405" y="142" on="1"/>
        <pt x="405" y="34" on="1"/>
        <pt x="405" y="8" on="0"/>
        <pt x="365" y="-52" on="0"/>
        <pt x="288" y="-104" on="0"/>
        <pt x="171" y="-141" on="0"/>
        <pt x="95" y="-145" on="1"/>
      </contour>
    </TTGlyph>
    <TTGlyph name="bracketleft" xMin="84" yMin="-122" xMax="414" yMax="712">
      <contour>
        <pt x="84" y="712" on="1"/>
        <pt x="408" y="712" on="1"/>
        <pt x="414" y="648" on="1"/>
        <pt x="284" y="610" on="1"/>
        <pt x="284" y="-20" on="1"/>
        <pt x="414" y="-58" on="1"/>
        <pt x="408" y="-122" on="1"/>
        <pt x="84" y="-122" on="1"/>
      </contour>
    </TTGlyph>
    <TTGlyph name="bracketright" xMin="26" yMin="-122" xMax="356" yMax="712">
      <contour>
        <pt x="26" y="-58" on="1"/>
        <pt x="156" y="-20" on="1"/>
        <pt x="156" y="610" on="1"/>
        <pt x="26" y="648" on="1"/>
        <pt x="32" y="712" on="1"/>
        <pt x="356" y="712" on="1"/>
        <pt x="356" y="-122" on="1"/>
        <pt x="32" y="-122" on="1"/>
      </contour>
    </TTGlyph>
    <TTGlyph name="breve" xMin="24" yMin="549" xMax="378" yMax="721">
      <component glyphName="uni0306" x="200" y="0" flags="0x4"/>
    </TTGlyph>
    <TTGlyph name="brokenbar" xMin="93" yMin="-76" xMax="238" yMax="616">
      <contour>
        <pt x="93" y="616" on="1"/>
        <pt x="238" y="616" on="1"/>
        <pt x="238" y="358" on="1"/>
        <pt x="93" y="358" on="1"/>
      </contour>
      <contour>
        <pt x="93" y="182" on="1"/>
        <pt x="238" y="182" on="1"/>
        <pt x="238" y="-76" on="1"/>
        <pt x="93" y="-76" on="1"/>
      </contour>
    </TTGlyph>
    <TTGlyph name="bullet" xMin="49" yMin="81" xMax="370" yMax="422">
      <contour>
        <pt x="226" y="81" on="1"/>
        <pt x="166" y="102" on="0"/>
        <pt x="77" y="173" on="0"/>
        <pt x="49" y="224" on="1"/>
        <pt x="59" y="292" on="0"/>
        <pt x="141" y="389" on="0"/>
        <pt x="199" y="422" on="1"/>
        <pt x="257" y="397" on="0"/>
        <pt x="351" y="308" on="0"/>
        <pt x="370" y="251" on="1"/>
        <pt x="352" y="196" on="0"/>
        <pt x="280" y="109" on="0"/>
      </contour>
    </TTGlyph>
    <TTGlyph name="bulletoperator" xMin="30" yMin="166" xMax="249" yMax="384">
      <contour>
        <pt x="154" y="166" on="1"/>
        <pt x="125" y="178" on="0"/>
        <pt x="49" y="235" on="0"/>
        <pt x="30" y="262" on="1"/>
        <pt x="48" y="298" on="0"/>
        <pt x="102" y="368" on="0"/>
        <pt x="130" y="384" on="1"/>
        <pt x="163" y="371" on="0"/>
        <pt x="231" y="312" on="0"/>
        <pt x="249" y="288" on="1"/>
        <pt x="236" y="255" on="0"/>
        <pt x="182" y="185" on="0"/>
      </contour>
    </TTGlyph>
    <TTGlyph name="c" xMin="8" yMin="-17" xMax="484" yMax="504">
      <contour>
        <pt x="322" y="-12" on="1"/>
        <pt x="264" y="-24" on="0"/>
        <pt x="151" y="0" on="0"/>
        <pt x="63" y="66" on="0"/>
        <pt x="8" y="171" on="0"/>
        <pt x="8" y="240" on="1"/>
        <pt x="8" y="299" on="0"/>
        <pt x="49" y="397" on="0"/>
        <pt x="119" y="466" on="0"/>
        <pt x="215" y="504" on="0"/>
        <pt x="269" y="504" on="1"/>
        <pt x="306" y="504" on="0"/>
        <pt x="377" y="485" on="0"/>
        <pt x="435" y="448" on="0"/>
        <pt x="477" y="391" on="0"/>
        <pt x="484" y="353" on="1"/>
        <pt x="319" y="274" on="1"/>
        <pt x="303" y="318" on="0"/>
        <pt x="268" y="383" on="0"/>
        <pt x="243" y="403" on="1"/>
        <pt x="216" y="375" on="0"/>
        <pt x="199" y="297" on="0"/>
        <pt x="199" y="269" on="1"/>
        <pt x="199" y="200" on="0"/>
        <pt x="267" y="108" on="0"/>
        <pt x="333" y="108" on="1"/>
        <pt x="360" y="108" on="0"/>
        <pt x="414" y="125" on="0"/>
        <pt x="444" y="140" on="1"/>
        <pt x="470" y="81" on="1"/>
      </contour>
    </TTGlyph>
    <TTGlyph name="cacute" xMin="8" yMin="-17" xMax="484" yMax="802">
      <component glyphName="c" x="0" y="0" flags="0x204"/>
      <component glyphName="acutecomb" x="271" y="-6" flags="0x4"/>
    </TTGlyph>
    <TTGlyph name="caron" xMin="29" yMin="541" xMax="455" yMax="785">
      <component glyphName="uni030C" x="246" y="0" flags="0x4"/>
    </TTGlyph>
    <TTGlyph name="ccaron" xMin="8" yMin="-17" xMax="484" yMax="779">
      <component glyphName="c" x="0" y="0" flags="0x204"/>
      <component glyphName="uni030C" x="271" y="-6" flags="0x4"/>
    </TTGlyph>
    <TTGlyph name="ccedilla" xMin="8" yMin="-273" xMax="484" yMax="504">
      <component glyphName="c" x="0" y="0" flags="0x204"/>
      <component glyphName="uni0327" x="255" y="0" flags="0x4"/>
    </TTGlyph>
    <TTGlyph name="cedilla" xMin="31" yMin="-273" xMax="268" yMax="6">
      <component glyphName="uni0327" x="138" y="0" flags="0x4"/>
    </TTGlyph>
    <TTGlyph name="cent" xMin="8" yMin="-117" xMax="484" yMax="597">
      <contour>
        <pt x="218" y="597" on="1"/>
        <pt x="328" y="597" on="1"/>
        <pt x="328" y="486" on="1"/>
        <pt x="384" y="474" on="0"/>
        <pt x="472" y="406" on="0"/>
        <pt x="484" y="349" on="1"/>
        <pt x="319" y="274" on="1"/>
        <pt x="303" y="316" on="0"/>
        <pt x="268" y="377" on="0"/>
        <pt x="243" y="396" on="1"/>
        <pt x="216" y="370" on="0"/>
        <pt x="199" y="295" on="0"/>
        <pt x="199" y="269" on="1"/>
        <pt x="199" y="203" on="0"/>
        <pt x="267" y="117" on="0"/>
        <pt x="333" y="117" on="1"/>
        <pt x="360" y="117" on="0"/>
        <pt x="414" y="133" on="0"/>
        <pt x="444" y="147" on="1"/>
        <pt x="470" y="92" on="1"/>
        <pt x="328" y="7" on="1"/>
        <pt x="328" y="-117" on="1"/>
        <pt x="218" y="-117" on="1"/>
        <pt x="218" y="2" on="1"/>
        <pt x="175" y="9" on="0"/>
        <pt x="98" y="48" on="0"/>
        <pt x="41" y="109" on="0"/>
        <pt x="8" y="192" on="0"/>
        <pt x="8" y="242" on="1"/>
        <pt x="8" y="291" on="0"/>
        <pt x="40" y="375" on="0"/>
        <pt x="96" y="438" on="0"/>
        <pt x="173" y="480" on="0"/>
        <pt x="218" y="487" on="1"/>
      </contour>
    </TTGlyph>
    <TTGlyph name="chi" xMin="-5" yMin="-226" xMax="615" yMax="507">
      <contour>
        <pt x="161" y="-226" on="1"/>
        <pt x="142" y="-223" on="0"/>
        <pt x="100" y="-200" on="0"/>
        <pt x="65" y="-170" on="0"/>
        <pt x="39" y="-136" on="0"/>
        <pt x="36" y="-120" on="1"/>
        <pt x="247" y="165" on="1"/>
        <pt x="235" y="187" on="0"/>
        <pt x="209" y="234" on="0"/>
        <pt x="190" y="268" on="1"/>
        <pt x="177" y="290" on="0"/>
        <pt x="158" y="323" on="0"/>
        <pt x="146" y="340" on="1"/>
        <pt x="89" y="309" on="1"/>
        <pt x="49" y="320" on="1"/>
        <pt x="26" y="361" on="0"/>
        <pt x="-2" y="441" on="0"/>
        <pt x="-5" y="475" on="1"/>
        <pt x="26" y="488" on="0"/>
        <pt x="78" y="501" on="0"/>
        <pt x="103" y="501" on="1"/>
        <pt x="169" y="501" on="0"/>
        <pt x="283" y="399" on="0"/>
        <pt x="305" y="318" on="1"/>
        <pt x="301" y="219" on="1"/>
        <pt x="310" y="216" on="1"/>
        <pt x="430" y="489" on="1"/>
        <pt x="467" y="507" on="1"/>
        <pt x="485" y="502" on="0"/>
        <pt x="525" y="478" on="0"/>
        <pt x="562" y="447" on="0"/>
        <pt x="592" y="412" on="0"/>
        <pt x="598" y="397" on="1"/>
        <pt x="393" y="141" on="1"/>
        <pt x="469" y="-63" on="1"/>
        <pt x="593" y="-51" on="1"/>
        <pt x="615" y="-99" on="1"/>
        <pt x="594" y="-158" on="0"/>
        <pt x="534" y="-223" on="0"/>
        <pt x="500" y="-223" on="1"/>
        <pt x="472" y="-223" on="0"/>
        <pt x="422" y="-180" on="0"/>
        <pt x="399" y="-134" on="1"/>
        <pt x="309" y="45" on="1"/>
        <pt x="201" y="-201" on="1"/>
      </contour>
    </TTGlyph>
    <TTGlyph name="circumflex" xMin="27" yMin="527" xMax="423" yMax="751">
      <component glyphName="uni0302" x="221" y="0" flags="0x4"/>
    </TTGlyph>
    <TTGlyph name="colon" xMin="101" yMin="-20" xMax="309" yMax="511">
      <contour>
        <pt x="216" y="289" on="1"/>
        <pt x="176" y="302" on="0"/>
        <pt x="119" y="348" on="0"/>
        <pt x="101" y="382" on="1"/>
        <pt x="107" y="426" on="0"/>
        <pt x="160" y="490" on="0"/>
        <pt x="199" y="511" on="1"/>
        <pt x="237" y="494" on="0"/>
        <pt x="298" y="437" on="0"/>
        <pt x="309" y="400" on="1"/>
        <pt x="298" y="363" on="0"/>
        <pt x="251" y="308" on="0"/>
      </contour>
      <contour>
        <pt x="216" y="-20" on="1"/>
        <pt x="176" y="-7" on="0"/>
        <pt x="119" y="39" on="0"/>
        <pt x="101" y="73" on="1"/>
        <pt x="107" y="117" on="0"/>
        <pt x="160" y="180" on="0"/>
        <pt x="199" y="202" on="1"/>
        <pt x="237" y="185" on="0"/>
        <pt x="298" y="127" on="0"/>
        <pt x="309" y="90" on="1"/>
        <pt x="298" y="54" on="0"/>
        <pt x="251" y="-2" on="0"/>
      </contour>
    </TTGlyph>
    <TTGlyph name="comma" xMin="51" yMin="-140" xMax="270" yMax="201">
      <contour>
        <pt x="51" y="-85" on="1"/>
        <pt x="80" y="-60" on="0"/>
        <pt x="119" y="3" on="0"/>
        <pt x="120" y="27" on="1"/>
        <pt x="66" y="74" on="1"/>
        <pt x="73" y="118" on="0"/>
        <pt x="126" y="181" on="0"/>
        <pt x="163" y="201" on="1"/>
        <pt x="218" y="179" on="0"/>
        <pt x="270" y="110" on="0"/>
        <pt x="270" y="70" on="1"/>
        <pt x="270" y="39" on="0"/>
        <pt x="241" y="-24" on="0"/>
        <pt x="193" y="-80" on="0"/>
        <pt x="131" y="-127" on="0"/>
        <pt x="98" y="-140" on="1"/>
      </contour>
    </TTGlyph>
    <TTGlyph name="copyright" xMin="24" yMin="-26" xMax="745" yMax="692">
      <contour>
        <pt x="385" y="-26" on="1"/>
        <pt x="310" y="-26" on="0"/>
        <pt x="178" y="29" on="0"/>
        <pt x="81" y="125" on="0"/>
        <pt x="24" y="256" on="0"/>
        <pt x="24" y="332" on="1"/>
        <pt x="24" y="407" on="0"/>
        <pt x="80" y="539" on="0"/>
        <pt x="176" y="636" on="0"/>
        <pt x="307" y="692" on="0"/>
        <pt x="381" y="692" on="1"/>
        <pt x="455" y="692" on="0"/>
        <pt x="588" y="636" on="0"/>
        <pt x="687" y="539" on="0"/>
        <pt x="745" y="406" on="0"/>
        <pt x="745" y="330" on="1"/>
        <pt x="745" y="255" on="0"/>
        <pt x="688" y="124" on="0"/>
        <pt x="591" y="29" on="0"/>
        <pt x="459" y="-26" on="0"/>
      </contour>
      <contour>
        <pt x="382" y="57" on="1"/>
        <pt x="442" y="57" on="0"/>
        <pt x="544" y="101" on="0"/>
        <pt x="619" y="175" on="0"/>
        <pt x="661" y="276" on="0"/>
        <pt x="661" y="332" on="1"/>
        <pt x="661" y="389" on="0"/>
        <pt x="617" y="491" on="0"/>
        <pt x="543" y="566" on="0"/>
        <pt x="442" y="609" on="0"/>
        <pt x="385" y="609" on="1"/>
        <pt x="328" y="609" on="0"/>
        <pt x="227" y="566" on="0"/>
        <pt x="153" y="491" on="0"/>
        <pt x="109" y="388" on="0"/>
        <pt x="109" y="329" on="1"/>
        <pt x="109" y="272" on="0"/>
        <pt x="151" y="172" on="0"/>
        <pt x="223" y="99" on="0"/>
        <pt x="324" y="57" on="0"/>
      </contour>
      <contour>
        <pt x="431" y="137" on="1"/>
        <pt x="386" y="131" on="0"/>
        <pt x="299" y="151" on="0"/>
        <pt x="231" y="199" on="0"/>
        <pt x="190" y="277" on="0"/>
        <pt x="190" y="330" on="1"/>
        <pt x="190" y="376" on="0"/>
        <pt x="223" y="450" on="0"/>
        <pt x="279" y="502" on="0"/>
        <pt x="355" y="529" on="0"/>
        <pt x="398" y="529" on="1"/>
        <pt x="451" y="529" on="0"/>
        <pt x="542" y="477" on="0"/>
        <pt x="568" y="407" on="1"/>
        <pt x="441" y="346" on="1"/>
        <pt x="430" y="383" on="0"/>
        <pt x="402" y="434" on="0"/>
        <pt x="376" y="453" on="1"/>
        <pt x="357" y="433" on="0"/>
        <pt x="339" y="375" on="0"/>
        <pt x="339" y="351" on="1"/>
        <pt x="339" y="305" on="0"/>
        <pt x="405" y="242" on="0"/>
        <pt x="468" y="242" on="1"/>
        <pt x="488" y="242" on="0"/>
        <pt x="519" y="249" on="0"/>
        <pt x="538" y="255" on="1"/>
        <pt x="556" y="208" on="1"/>
      </contour>
    </TTGlyph>
    <TTGlyph name="currency" xMin="44" yMin="121" xMax="466" yMax="587">
      <contour>
        <pt x="50" y="170" on="1"/>
        <pt x="105" y="230" on="1"/>
        <pt x="86" y="255" on="0"/>
        <pt x="65" y="320" on="0"/>
        <pt x="65" y="357" on="1"/>
        <pt x="65" y="391" on="0"/>
        <pt x="85" y="450" on="0"/>
        <pt x="102" y="473" on="1"/>
        <pt x="44" y="538" on="1"/>
        <pt x="99" y="587" on="1"/>
        <pt x="156" y="524" on="1"/>
        <pt x="178" y="538" on="0"/>
        <pt x="231" y="554" on="0"/>
        <pt x="257" y="554" on="1"/>
        <pt x="285" y="554" on="0"/>
        <pt x="337" y="540" on="0"/>
        <pt x="359" y="526" on="1"/>
        <pt x="410" y="586" on="1"/>
        <pt x="466" y="539" on="1"/>
        <pt x="409" y="478" on="1"/>
        <pt x="425" y="455" on="0"/>
        <pt x="443" y="394" on="0"/>
        <pt x="443" y="357" on="1"/>
        <pt x="443" y="320" on="0"/>
        <pt x="423" y="259" on="0"/>
        <pt x="407" y="236" on="1"/>
        <pt x="464" y="174" on="1"/>
        <pt x="412" y="123" on="1"/>
        <pt x="355" y="185" on="1"/>
        <pt x="332" y="171" on="0"/>
        <pt x="280" y="156" on="0"/>
        <pt x="255" y="156" on="1"/>
        <pt x="227" y="156" on="0"/>
        <pt x="177" y="170" on="0"/>
        <pt x="156" y="183" on="1"/>
        <pt x="104" y="121" on="1"/>
      </contour>
      <contour>
        <pt x="270" y="259" on="1"/>
        <pt x="276" y="259" on="0"/>
        <pt x="294" y="261" on="0"/>
        <pt x="302" y="263" on="1"/>
        <pt x="315" y="276" on="0"/>
        <pt x="331" y="323" on="0"/>
        <pt x="331" y="348" on="1"/>
        <pt x="331" y="386" on="0"/>
        <pt x="289" y="450" on="0"/>
        <pt x="239" y="450" on="1"/>
        <pt x="232" y="450" on="0"/>
        <pt x="217" y="448" on="0"/>
        <pt x="208" y="447" on="1"/>
        <pt x="194" y="434" on="0"/>
        <pt x="177" y="389" on="0"/>
        <pt x="177" y="364" on="1"/>
        <pt x="177" y="325" on="0"/>
        <pt x="222" y="259" on="0"/>
      </contour>
    </TTGlyph>
    <TTGlyph name="d" xMin="8" yMin="-17" xMax="607" yMax="737">
      <contour>
        <pt x="229" y="-17" on="1"/>
        <pt x="177" y="-18" on="0"/>
        <pt x="94" y="24" on="0"/>
        <pt x="38" y="93" on="0"/>
        <pt x="8" y="185" on="0"/>
        <pt x="8" y="234" on="1"/>
        <pt x="8" y="284" on="0"/>
        <pt x="41" y="379" on="0"/>
        <pt x="107" y="453" on="0"/>
        <pt x="210" y="499" on="0"/>
        <pt x="279" y="499" on="1"/>
        <pt x="291" y="499" on="0"/>
        <pt x="314" y="497" on="0"/>
        <pt x="326" y="496" on="1"/>
        <pt x="326" y="629" on="1"/>
        <pt x="251" y="648" on="1"/>
        <pt x="249" y="698" on="1"/>
        <pt x="297" y="714" on="0"/>
        <pt x="408" y="734" on="0"/>
        <pt x="468" y="737" on="1"/>
        <pt x="527" y="683" on="1"/>
        <pt x="527" y="134" on="1"/>
        <pt x="527" y="124" on="0"/>
        <pt x="540" y="108" on="0"/>
        <pt x="551" y="108" on="1"/>
        <pt x="563" y="108" on="0"/>
        <pt x="586" y="109" on="0"/>
        <pt x="604" y="110" on="1"/>
        <pt x="607" y="65" on="1"/>
        <pt x="463" y="-17" on="1"/>
        <pt x="429" y="-17" on="0"/>
        <pt x="365" y="28" on="0"/>
        <pt x="345" y="70" on="1"/>
        <pt x="343" y="70" on="1"/>
      </contour>
      <contour>
        <pt x="217" y="254" on="1"/>
        <pt x="217" y="202" on="0"/>
        <pt x="260" y="124" on="0"/>
        <pt x="303" y="124" on="1"/>
        <pt x="308" y="124" on="0"/>
        <pt x="320" y="126" on="0"/>
        <pt x="326" y="127" on="1"/>
        <pt x="326" y="389" on="1"/>
        <pt x="313" y="394" on="0"/>
        <pt x="283" y="400" on="0"/>
        <pt x="268" y="401" on="1"/>
        <pt x="243" y="377" on="0"/>
        <pt x="217" y="296" on="0"/>
      </contour>
    </TTGlyph>
    <TTGlyph name="dagger" xMin="34" yMin="-180" xMax="545" yMax="689">
      <contour>
        <pt x="34" y="408" on="1"/>
        <pt x="77" y="469" on="1"/>
        <pt x="185" y="469" on="1"/>
        <pt x="178" y="641" on="1"/>
        <pt x="220" y="689" on="1"/>
        <pt x="400" y="685" on="1"/>
        <pt x="389" y="469" on="1"/>
        <pt x="539" y="469" on="1"/>
        <pt x="545" y="432" on="1"/>
        <pt x="502" y="371" on="1"/>
        <pt x="383" y="371" on="1"/>
        <pt x="354" y="-180" on="1"/>
        <pt x="213" y="-180" on="1"/>
        <pt x="190" y="371" on="1"/>
        <pt x="40" y="371" on="1"/>
      </contour>
    </TTGlyph>
    <TTGlyph name="daggerdbl" xMin="34" yMin="-180" xMax="547" yMax="689">
      <contour>
        <pt x="34" y="177" on="1"/>
        <pt x="77" y="237" on="1"/>
        <pt x="197" y="237" on="1"/>
        <pt x="192" y="371" on="1"/>
        <pt x="42" y="371" on="1"/>
        <pt x="36" y="408" on="1"/>
        <pt x="79" y="469" on="1"/>
        <pt x="187" y="469" on="1"/>
        <pt x="180" y="641" on="1"/>
        <pt x="222" y="689" on="1"/>
        <pt x="402" y="685" on="1"/>
        <pt x="391" y="469" on="1"/>
        <pt x="541" y="469" on="1"/>
        <pt x="547" y="432" on="1"/>
        <pt x="504" y="371" on="1"/>
        <pt x="385" y="371" on="1"/>
        <pt x="378" y="237" on="1"/>
        <pt x="539" y="237" on="1"/>
        <pt x="545" y="200" on="1"/>
        <pt x="502" y="140" on="1"/>
        <pt x="373" y="140" on="1"/>
        <pt x="356" y="-180" on="1"/>
        <pt x="215" y="-180" on="1"/>
        <pt x="201" y="140" on="1"/>
        <pt x="40" y="140" on="1"/>
      </contour>
    </TTGlyph>
    <TTGlyph name="dcaron" xMin="8" yMin="-17" xMax="782" yMax="812">
      <component glyphName="d" x="0" y="0" flags="0x204"/>
      <component glyphName="uni030C.calt" x="605" y="57" flags="0x4"/>
    </TTGlyph>
    <TTGlyph name="dcroat" xMin="8" yMin="-17" xMax="617" yMax="737">
      <contour>
        <pt x="229" y="-17" on="1"/>
        <pt x="177" y="-18" on="0"/>
        <pt x="94" y="24" on="0"/>
        <pt x="38" y="93" on="0"/>
        <pt x="8" y="185" on="0"/>
        <pt x="8" y="234" on="1"/>
        <pt x="8" y="284" on="0"/>
        <pt x="41" y="379" on="0"/>
        <pt x="107" y="453" on="0"/>
        <pt x="210" y="499" on="0"/>
        <pt x="279" y="499" on="1"/>
        <pt x="291" y="499" on="0"/>
        <pt x="314" y="497" on="0"/>
        <pt x="326" y="496" on="1"/>
        <pt x="326" y="526" on="1"/>
        <pt x="222" y="526" on="1"/>
        <pt x="216" y="563" on="1"/>
        <pt x="259" y="603" on="1"/>
        <pt x="326" y="603" on="1"/>
        <pt x="326" y="629" on="1"/>
        <pt x="251" y="648" on="1"/>
        <pt x="249" y="698" on="1"/>
        <pt x="297" y="714" on="0"/>
        <pt x="408" y="734" on="0"/>
        <pt x="468" y="737" on="1"/>
        <pt x="527" y="683" on="1"/>
        <pt x="527" y="603" on="1"/>
        <pt x="611" y="603" on="1"/>
        <pt x="617" y="566" on="1"/>
        <pt x="574" y="526" on="1"/>
        <pt x="527" y="526" on="1"/>
        <pt x="527" y="134" on="1"/>
        <pt x="527" y="124" on="0"/>
        <pt x="540" y="108" on="0"/>
        <pt x="551" y="108" on="1"/>
        <pt x="563" y="108" on="0"/>
        <pt x="586" y="109" on="0"/>
        <pt x="604" y="110" on="1"/>
        <pt x="607" y="65" on="1"/>
        <pt x="463" y="-17" on="1"/>
        <pt x="429" y="-17" on="0"/>
        <pt x="365" y="28" on="0"/>
        <pt x="345" y="70" on="1"/>
        <pt x="343" y="70" on="1"/>
      </contour>
      <contour>
        <pt x="217" y="254" on="1"/>
        <pt x="217" y="202" on="0"/>
        <pt x="260" y="124" on="0"/>
        <pt x="303" y="124" on="1"/>
        <pt x="308" y="124" on="0"/>
        <pt x="320" y="126" on="0"/>
        <pt x="326" y="127" on="1"/>
        <pt x="326" y="389" on="1"/>
        <pt x="313" y="394" on="0"/>
        <pt x="283" y="400" on="0"/>
        <pt x="268" y="401" on="1"/>
        <pt x="243" y="377" on="0"/>
        <pt x="217" y="296" on="0"/>
      </contour>
    </TTGlyph>
    <TTGlyph name="degree" xMin="30" yMin="380" xMax="314" yMax="663">
      <contour>
        <pt x="174" y="380" on="1"/>
        <pt x="117" y="380" on="0"/>
        <pt x="30" y="458" on="0"/>
        <pt x="30" y="521" on="1"/>
        <pt x="30" y="581" on="0"/>
        <pt x="111" y="663" on="0"/>
        <pt x="170" y="663" on="1"/>
        <pt x="231" y="663" on="0"/>
        <pt x="314" y="581" on="0"/>
        <pt x="314" y="521" on="1"/>
        <pt x="314" y="457" on="0"/>
        <pt x="235" y="380" on="0"/>
      </contour>
      <contour>
        <pt x="177" y="466" on="1"/>
        <pt x="182" y="466" on="0"/>
        <pt x="194" y="468" on="0"/>
        <pt x="200" y="469" on="1"/>
        <pt x="207" y="478" on="0"/>
        <pt x="215" y="501" on="0"/>
        <pt x="215" y="514" on="1"/>
        <pt x="215" y="536" on="0"/>
        <pt x="190" y="575" on="0"/>
        <pt x="165" y="575" on="1"/>
        <pt x="159" y="575" on="0"/>
        <pt x="146" y="572" on="0"/>
        <pt x="139" y="569" on="1"/>
        <pt x="133" y="560" on="0"/>
        <pt x="126" y="537" on="0"/>
        <pt x="126" y="525" on="1"/>
        <pt x="126" y="503" on="0"/>
        <pt x="151" y="466" on="0"/>
      </contour>
    </TTGlyph>
    <TTGlyph name="delta" xMin="15" yMin="-20" xMax="496" yMax="735">
      <contour>
        <pt x="252" y="-20" on="1"/>
        <pt x="202" y="-20" on="0"/>
        <pt x="115" y="17" on="0"/>
        <pt x="52" y="80" on="0"/>
        <pt x="15" y="168" on="0"/>
        <pt x="15" y="219" on="1"/>
        <pt x="15" y="289" on="0"/>
        <pt x="87" y="384" on="0"/>
        <pt x="153" y="406" on="1"/>
        <pt x="108" y="437" on="0"/>
        <pt x="59" y="526" on="0"/>
        <pt x="59" y="577" on="1"/>
        <pt x="59" y="648" on="0"/>
        <pt x="161" y="735" on="0"/>
        <pt x="245" y="735" on="1"/>
        <pt x="276" y="735" on="0"/>
        <pt x="346" y="723" on="0"/>
        <pt x="376" y="713" on="1"/>
        <pt x="409" y="703" on="0"/>
        <pt x="473" y="671" on="0"/>
        <pt x="495" y="655" on="1"/>
        <pt x="495" y="641" on="0"/>
        <pt x="489" y="602" on="0"/>
        <pt x="480" y="562" on="0"/>
        <pt x="468" y="525" on="0"/>
        <pt x="462" y="512" on="1"/>
        <pt x="423" y="500" on="1"/>
        <pt x="360" y="539" on="0"/>
        <pt x="248" y="580" on="0"/>
        <pt x="205" y="580" on="1"/>
        <pt x="180" y="580" on="0"/>
        <pt x="144" y="567" on="0"/>
        <pt x="140" y="556" on="1"/>
        <pt x="153" y="537" on="0"/>
        <pt x="268" y="501" on="0"/>
        <pt x="394" y="439" on="0"/>
        <pt x="496" y="333" on="0"/>
        <pt x="496" y="244" on="1"/>
        <pt x="496" y="186" on="0"/>
        <pt x="460" y="88" on="0"/>
        <pt x="396" y="19" on="0"/>
        <pt x="306" y="-20" on="0"/>
      </contour>
      <contour>
        <pt x="118" y="195" on="1"/>
        <pt x="139" y="189" on="0"/>
        <pt x="185" y="183" on="0"/>
        <pt x="209" y="183" on="1"/>
        <pt x="287" y="183" on="0"/>
        <pt x="399" y="225" on="0"/>
        <pt x="407" y="258" on="1"/>
        <pt x="400" y="266" on="0"/>
        <pt x="379" y="282" on="0"/>
        <pt x="366" y="289" on="1"/>
        <pt x="236" y="288" on="0"/>
        <pt x="107" y="254" on="0"/>
        <pt x="107" y="221" on="1"/>
        <pt x="107" y="213" on="0"/>
        <pt x="113" y="199" on="0"/>
      </contour>
    </TTGlyph>
    <TTGlyph name="dieresis" xMin="52" yMin="548" xMax="509" yMax="760">
      <component glyphName="uni0308" x="280" y="0" flags="0x4"/>
    </TTGlyph>
    <TTGlyph name="dieresisacute" xMin="-169" yMin="531" xMax="434" yMax="804">
      <component glyphName="dieresistonos" x="-26" y="0" flags="0x4"/>
    </TTGlyph>
    <TTGlyph name="dieresisgrave" xMin="-169" yMin="531" xMax="434" yMax="804">
      <contour>
        <pt x="45" y="735" on="1"/>
        <pt x="49" y="773" on="1"/>
        <pt x="67" y="787" on="0"/>
        <pt x="145" y="809" on="0"/>
        <pt x="182" y="803" on="1"/>
        <pt x="208" y="551" on="1"/>
        <pt x="132" y="531" on="1"/>
      </contour>
      <contour>
        <pt x="-59" y="548" on="1"/>
        <pt x="-97" y="561" on="0"/>
        <pt x="-151" y="605" on="0"/>
        <pt x="-169" y="637" on="1"/>
        <pt x="-162" y="680" on="0"/>
        <pt x="-112" y="740" on="0"/>
        <pt x="-76" y="760" on="1"/>
        <pt x="-39" y="744" on="0"/>
        <pt x="21" y="689" on="0"/>
        <pt x="31" y="654" on="1"/>
        <pt x="19" y="619" on="0"/>
        <pt x="-25" y="566" on="0"/>
      </contour>
      <contour>
        <pt x="344" y="548" on="1"/>
        <pt x="306" y="561" on="0"/>
        <pt x="252" y="605" on="0"/>
        <pt x="234" y="637" on="1"/>
        <pt x="241" y="680" on="0"/>
        <pt x="291" y="740" on="0"/>
        <pt x="327" y="760" on="1"/>
        <pt x="364" y="744" on="0"/>
        <pt x="424" y="689" on="0"/>
        <pt x="434" y="654" on="1"/>
        <pt x="422" y="619" on="0"/>
        <pt x="378" y="566" on="0"/>
      </contour>
    </TTGlyph>
    <TTGlyph name="dieresistilde" xMin="-69" yMin="564" xMax="403" yMax="998">
      <component glyphName="grTilde" x="33" y="242" flags="0x4"/>
      <component glyphName="uni0308" x="174" y="16" flags="0x4"/>
    </TTGlyph>
    <TTGlyph name="dieresistonos" xMin="-143" yMin="531" xMax="460" yMax="804">
      <contour>
        <pt x="88" y="551" on="1"/>
        <pt x="114" y="803" on="1"/>
        <pt x="151" y="809" on="0"/>
        <pt x="229" y="787" on="0"/>
        <pt x="247" y="773" on="1"/>
        <pt x="251" y="735" on="1"/>
        <pt x="164" y="531" on="1"/>
      </contour>
      <contour>
        <pt x="-33" y="548" on="1"/>
        <pt x="-71" y="561" on="0"/>
        <pt x="-125" y="605" on="0"/>
        <pt x="-143" y="637" on="1"/>
        <pt x="-136" y="680" on="0"/>
        <pt x="-86" y="740" on="0"/>
        <pt x="-50" y="760" on="1"/>
        <pt x="-13" y="744" on="0"/>
        <pt x="47" y="689" on="0"/>
        <pt x="57" y="654" on="1"/>
        <pt x="45" y="619" on="0"/>
        <pt x="1" y="566" on="0"/>
      </contour>
      <contour>
        <pt x="370" y="548" on="1"/>
        <pt x="332" y="561" on="0"/>
        <pt x="278" y="605" on="0"/>
        <pt x="260" y="637" on="1"/>
        <pt x="267" y="680" on="0"/>
        <pt x="317" y="740" on="0"/>
        <pt x="353" y="760" on="1"/>
        <pt x="390" y="744" on="0"/>
        <pt x="450" y="689" on="0"/>
        <pt x="460" y="654" on="1"/>
        <pt x="448" y="619" on="0"/>
        <pt x="404" y="566" on="0"/>
      </contour>
    </TTGlyph>
    <TTGlyph name="divide" xMin="52" yMin="-20" xMax="542" yMax="547">
      <contour>
        <pt x="308" y="349" on="1"/>
        <pt x="269" y="361" on="0"/>
        <pt x="219" y="406" on="0"/>
        <pt x="205" y="432" on="1"/>
        <pt x="211" y="474" on="0"/>
        <pt x="263" y="531" on="0"/>
        <pt x="292" y="547" on="1"/>
        <pt x="331" y="530" on="0"/>
        <pt x="382" y="475" on="0"/>
        <pt x="391" y="447" on="1"/>
        <pt x="382" y="419" on="0"/>
        <pt x="342" y="366" on="0"/>
      </contour>
      <contour>
        <pt x="52" y="320" on="1"/>
        <pt x="542" y="320" on="1"/>
        <pt x="542" y="210" on="1"/>
        <pt x="52" y="210" on="1"/>
      </contour>
      <contour>
        <pt x="308" y="-20" on="1"/>
        <pt x="269" y="-8" on="0"/>
        <pt x="219" y="37" on="0"/>
        <pt x="205" y="63" on="1"/>
        <pt x="211" y="106" on="0"/>
        <pt x="263" y="162" on="0"/>
        <pt x="292" y="178" on="1"/>
        <pt x="331" y="161" on="0"/>
        <pt x="382" y="106" on="0"/>
        <pt x="391" y="78" on="1"/>
        <pt x="382" y="51" on="0"/>
        <pt x="342" y="-3" on="0"/>
      </contour>
    </TTGlyph>
    <TTGlyph name="dollar" xMin="48" yMin="-145" xMax="589" yMax="785">
      <contour>
        <pt x="248" y="785" on="1"/>
        <pt x="390" y="785" on="1"/>
        <pt x="390" y="683" on="1"/>
        <pt x="436" y="679" on="0"/>
        <pt x="527" y="658" on="0"/>
        <pt x="559" y="645" on="1"/>
        <pt x="557" y="599" on="0"/>
        <pt x="546" y="491" on="0"/>
        <pt x="535" y="447" on="1"/>
        <pt x="430" y="447" on="1"/>
        <pt x="381" y="577" on="1"/>
        <pt x="359" y="585" on="0"/>
        <pt x="312" y="595" on="0"/>
        <pt x="287" y="596" on="1"/>
        <pt x="264" y="583" on="0"/>
        <pt x="243" y="542" on="0"/>
        <pt x="243" y="526" on="1"/>
        <pt x="243" y="507" on="0"/>
        <pt x="270" y="477" on="0"/>
        <pt x="314" y="451" on="0"/>
        <pt x="373" y="426" on="0"/>
        <pt x="404" y="411" on="1"/>
        <pt x="438" y="395" on="0"/>
        <pt x="504" y="357" on="0"/>
        <pt x="556" y="306" on="0"/>
        <pt x="589" y="237" on="0"/>
        <pt x="589" y="190" on="1"/>
        <pt x="589" y="107" on="0"/>
        <pt x="475" y="4" on="0"/>
        <pt x="391" y="-12" on="1"/>
        <pt x="391" y="-145" on="1"/>
        <pt x="248" y="-145" on="1"/>
        <pt x="248" y="-15" on="1"/>
        <pt x="198" y="-9" on="0"/>
        <pt x="92" y="19" on="0"/>
        <pt x="50" y="39" on="1"/>
        <pt x="51" y="41" on="1"/>
        <pt x="49" y="59" on="0"/>
        <pt x="51" y="112" on="0"/>
        <pt x="57" y="168" on="0"/>
        <pt x="66" y="222" on="0"/>
        <pt x="71" y="241" on="1"/>
        <pt x="161" y="241" on="1"/>
        <pt x="242" y="92" on="1"/>
        <pt x="264" y="85" on="0"/>
        <pt x="309" y="76" on="0"/>
        <pt x="331" y="74" on="1"/>
        <pt x="359" y="87" on="0"/>
        <pt x="383" y="123" on="0"/>
        <pt x="383" y="140" on="1"/>
        <pt x="383" y="182" on="0"/>
        <pt x="297" y="231" on="0"/>
        <pt x="238" y="258" on="1"/>
        <pt x="204" y="274" on="0"/>
        <pt x="136" y="312" on="0"/>
        <pt x="82" y="362" on="0"/>
        <pt x="48" y="429" on="0"/>
        <pt x="48" y="473" on="1"/>
        <pt x="48" y="550" on="0"/>
        <pt x="156" y="661" on="0"/>
        <pt x="248" y="679" on="1"/>
      </contour>
    </TTGlyph>
    <TTGlyph name="dotaccent" xMin="30" yMin="548" xMax="229" yMax="760">
      <component glyphName="uni0307" x="125" y="0" flags="0x4"/>
    </TTGlyph>
    <TTGlyph name="dotbelowcomb" xMin="-95" yMin="-310" xMax="104" yMax="-97">
      <contour>
        <pt x="15" y="-310" on="1"/>
        <pt x="-23" y="-297" on="0"/>
        <pt x="-77" y="-253" on="0"/>
        <pt x="-95" y="-221" on="1"/>
        <pt x="-89" y="-178" on="0"/>
        <pt x="-38" y="-117" on="0"/>
        <pt x="-2" y="-97" on="1"/>
        <pt x="35" y="-113" on="0"/>
        <pt x="94" y="-170" on="0"/>
        <pt x="104" y="-204" on="1"/>
        <pt x="93" y="-238" on="0"/>
        <pt x="49" y="-292" on="0"/>
      </contour>
    </TTGlyph>
    <TTGlyph name="dotbelowcomb.case" xMin="-95" yMin="-310" xMax="104" yMax="-97">
      <component glyphName="dotbelowcomb" x="0" y="0" flags="0x204"/>
    </TTGlyph>
    <TTGlyph name="dotlessi" xMin="6" yMin="0" xMax="339" yMax="495">
      <contour>
        <pt x="8" y="35" on="1"/>
        <pt x="26" y="46" on="0"/>
        <pt x="64" y="64" on="0"/>
        <pt x="83" y="71" on="1"/>
        <pt x="83" y="388" on="1"/>
        <pt x="8" y="407" on="1"/>
        <pt x="6" y="456" on="1"/>
        <pt x="54" y="473" on="0"/>
        <pt x="165" y="493" on="0"/>
        <pt x="225" y="495" on="1"/>
        <pt x="284" y="442" on="1"/>
        <pt x="284" y="84" on="1"/>
        <pt x="298" y="77" on="0"/>
        <pt x="326" y="59" on="0"/>
        <pt x="339" y="49" on="1"/>
        <pt x="338" y="0" on="1"/>
        <pt x="9" y="0" on="1"/>
      </contour>
    </TTGlyph>
    <TTGlyph name="dvKSPLa" xMin="-65" yMin="-69" xMax="2291" yMax="670">
      <component glyphName="uni0915094D" x="0" y="0" flags="0x4"/>
      <component glyphName="uni0938094D" x="630" y="0" flags="0x4"/>
      <component glyphName="uni092A094D" x="1120" y="0" flags="0x4"/>
      <component glyphName="uni0932" x="1438" y="0" flags="0x4"/>
    </TTGlyph>
    <TTGlyph name="dvKSPLa.MAR" xMin="-65" yMin="-69" xMax="2322" yMax="670">
      <component glyphName="uni0915094D" x="0" y="0" flags="0x4"/>
      <component glyphName="uni0938094D" x="658" y="0" flags="0x4"/>
      <component glyphName="uni092A094D" x="1149" y="0" flags="0x4"/>
      <component glyphName="uni0932.MAR" x="1467" y="0" flags="0x4"/>
    </TTGlyph>
    <TTGlyph name="e" xMin="8" yMin="-16" xMax="503" yMax="504">
      <contour>
        <pt x="331" y="-11" on="1"/>
        <pt x="270" y="-23" on="0"/>
        <pt x="153" y="1" on="0"/>
        <pt x="63" y="65" on="0"/>
        <pt x="8" y="168" on="0"/>
        <pt x="8" y="236" on="1"/>
        <pt x="8" y="298" on="0"/>
        <pt x="53" y="397" on="0"/>
        <pt x="127" y="466" on="0"/>
        <pt x="222" y="504" on="0"/>
        <pt x="272" y="504" on="1"/>
        <pt x="309" y="504" on="0"/>
        <pt x="391" y="481" on="0"/>
        <pt x="459" y="428" on="0"/>
        <pt x="503" y="341" on="0"/>
        <pt x="503" y="278" on="1"/>
        <pt x="444" y="219" on="1"/>
        <pt x="195" y="220" on="1"/>
        <pt x="205" y="165" on="0"/>
        <pt x="280" y="108" on="0"/>
        <pt x="334" y="108" on="1"/>
        <pt x="365" y="108" on="0"/>
        <pt x="425" y="128" on="0"/>
        <pt x="461" y="147" on="1"/>
        <pt x="489" y="85" on="1"/>
      </contour>
      <contour>
        <pt x="252" y="413" on="1"/>
        <pt x="230" y="398" on="0"/>
        <pt x="202" y="338" on="0"/>
        <pt x="196" y="304" on="1"/>
        <pt x="324" y="313" on="1"/>
        <pt x="320" y="350" on="0"/>
        <pt x="281" y="409" on="0"/>
      </contour>
    </TTGlyph>
    <TTGlyph name="eacute" xMin="8" yMin="-16" xMax="503" yMax="802">
      <component glyphName="e" x="0" y="0" flags="0x204"/>
      <component glyphName="acutecomb" x="267" y="-6" flags="0x4"/>
    </TTGlyph>
    <TTGlyph name="ecaron" xMin="8" yMin="-16" xMax="503" yMax="779">
      <component glyphName="e" x="0" y="0" flags="0x204"/>
      <component glyphName="uni030C" x="267" y="-6" flags="0x4"/>
    </TTGlyph>
    <TTGlyph name="ecircumflex" xMin="8" yMin="-16" xMax="503" yMax="745">
      <component glyphName="e" x="0" y="0" flags="0x204"/>
      <component glyphName="uni0302" x="267" y="-6" flags="0x4"/>
    </TTGlyph>
    <TTGlyph name="edieresis" xMin="8" yMin="-16" xMax="503" yMax="754">
      <component glyphName="e" x="0" y="0" flags="0x204"/>
      <component glyphName="uni0308" x="267" y="-6" flags="0x4"/>
    </TTGlyph>
    <TTGlyph name="edotaccent" xMin="8" yMin="-16" xMax="503" yMax="754">
      <component glyphName="e" x="0" y="0" flags="0x204"/>
      <component glyphName="uni0307" x="267" y="-6" flags="0x4"/>
    </TTGlyph>
    <TTGlyph name="egrave" xMin="8" yMin="-16" xMax="503" yMax="802">
      <component glyphName="e" x="0" y="0" flags="0x204"/>
      <component glyphName="gravecomb" x="267" y="-6" flags="0x4"/>
    </TTGlyph>
    <TTGlyph name="eight" xMin="36" yMin="-22" xMax="555" yMax="668">
      <contour>
        <pt x="299" y="-22" on="1"/>
        <pt x="245" y="-22" on="0"/>
        <pt x="149" y="4" on="0"/>
        <pt x="78" y="51" on="0"/>
        <pt x="36" y="121" on="0"/>
        <pt x="36" y="164" on="1"/>
        <pt x="36" y="213" on="0"/>
        <pt x="91" y="302" on="0"/>
        <pt x="142" y="331" on="1"/>
        <pt x="105" y="359" on="0"/>
        <pt x="58" y="430" on="0"/>
        <pt x="58" y="476" on="1"/>
        <pt x="58" y="513" on="0"/>
        <pt x="90" y="583" on="0"/>
        <pt x="150" y="636" on="0"/>
        <pt x="240" y="668" on="0"/>
        <pt x="298" y="668" on="1"/>
        <pt x="353" y="668" on="0"/>
        <pt x="439" y="639" on="0"/>
        <pt x="497" y="591" on="0"/>
        <pt x="528" y="529" on="0"/>
        <pt x="528" y="496" on="1"/>
        <pt x="528" y="457" on="0"/>
        <pt x="484" y="377" on="0"/>
        <pt x="437" y="352" on="1"/>
        <pt x="487" y="319" on="0"/>
        <pt x="555" y="232" on="0"/>
        <pt x="555" y="170" on="1"/>
        <pt x="555" y="124" on="0"/>
        <pt x="515" y="52" on="0"/>
        <pt x="446" y="4" on="0"/>
        <pt x="352" y="-22" on="0"/>
      </contour>
      <contour>
        <pt x="233" y="514" on="1"/>
        <pt x="233" y="480" on="0"/>
        <pt x="290" y="435" on="0"/>
        <pt x="332" y="412" on="1"/>
        <pt x="353" y="431" on="0"/>
        <pt x="369" y="476" on="0"/>
        <pt x="369" y="495" on="1"/>
        <pt x="369" y="530" on="0"/>
        <pt x="326" y="575" on="0"/>
        <pt x="292" y="575" on="1"/>
        <pt x="283" y="575" on="0"/>
        <pt x="264" y="571" on="0"/>
        <pt x="254" y="567" on="1"/>
        <pt x="243" y="555" on="0"/>
        <pt x="233" y="526" on="0"/>
      </contour>
      <contour>
        <pt x="221" y="153" on="1"/>
        <pt x="221" y="116" on="0"/>
        <pt x="268" y="63" on="0"/>
        <pt x="311" y="63" on="1"/>
        <pt x="320" y="63" on="0"/>
        <pt x="342" y="66" on="0"/>
        <pt x="354" y="70" on="1"/>
        <pt x="364" y="86" on="0"/>
        <pt x="373" y="112" on="0"/>
        <pt x="373" y="129" on="1"/>
        <pt x="373" y="169" on="0"/>
        <pt x="326" y="221" on="0"/>
        <pt x="270" y="254" on="1"/>
        <pt x="245" y="232" on="0"/>
        <pt x="221" y="178" on="0"/>
      </contour>
    </TTGlyph>
    <TTGlyph name="ellipsis" xMin="101" yMin="-20" xMax="925" yMax="202">
      <contour>
        <pt x="832" y="-20" on="1"/>
        <pt x="792" y="-7" on="0"/>
        <pt x="735" y="39" on="0"/>
        <pt x="717" y="73" on="1"/>
        <pt x="723" y="117" on="0"/>
        <pt x="776" y="181" on="0"/>
        <pt x="815" y="202" on="1"/>
        <pt x="853" y="185" on="0"/>
        <pt x="914" y="128" on="0"/>
        <pt x="925" y="91" on="1"/>
        <pt x="914" y="54" on="0"/>
        <pt x="867" y="-1" on="0"/>
      </contour>
      <contour>
        <pt x="216" y="-20" on="1"/>
        <pt x="176" y="-7" on="0"/>
        <pt x="119" y="39" on="0"/>
        <pt x="101" y="73" on="1"/>
        <pt x="107" y="117" on="0"/>
        <pt x="160" y="181" on="0"/>
        <pt x="199" y="202" on="1"/>
        <pt x="237" y="185" on="0"/>
        <pt x="298" y="128" on="0"/>
        <pt x="309" y="91" on="1"/>
        <pt x="298" y="54" on="0"/>
        <pt x="251" y="-1" on="0"/>
      </contour>
      <contour>
        <pt x="524" y="-20" on="1"/>
        <pt x="484" y="-7" on="0"/>
        <pt x="427" y="39" on="0"/>
        <pt x="409" y="73" on="1"/>
        <pt x="415" y="117" on="0"/>
        <pt x="468" y="181" on="0"/>
        <pt x="507" y="202" on="1"/>
        <pt x="545" y="185" on="0"/>
        <pt x="606" y="128" on="0"/>
        <pt x="617" y="91" on="1"/>
        <pt x="606" y="54" on="0"/>
        <pt x="559" y="-1" on="0"/>
      </contour>
    </TTGlyph>
    <TTGlyph name="emacron" xMin="8" yMin="-16" xMax="503" yMax="671">
      <component glyphName="e" x="0" y="0" flags="0x204"/>
      <component glyphName="uni0304" x="266" y="-6" flags="0x4"/>
    </TTGlyph>
    <TTGlyph name="emdash" xMin="34" yMin="217" xMax="993" yMax="328">
      <contour>
        <pt x="34" y="302" on="1"/>
        <pt x="63" y="316" on="0"/>
        <pt x="124" y="328" on="0"/>
        <pt x="147" y="328" on="1"/>
        <pt x="988" y="328" on="1"/>
        <pt x="993" y="270" on="1"/>
        <pt x="946" y="217" on="1"/>
        <pt x="40" y="217" on="1"/>
      </contour>
    </TTGlyph>
    <TTGlyph name="endash" xMin="34" yMin="217" xMax="532" yMax="328">
      <contour>
        <pt x="34" y="302" on="1"/>
        <pt x="63" y="316" on="0"/>
        <pt x="124" y="328" on="0"/>
        <pt x="147" y="328" on="1"/>
        <pt x="527" y="328" on="1"/>
        <pt x="532" y="270" on="1"/>
        <pt x="485" y="217" on="1"/>
        <pt x="40" y="217" on="1"/>
      </contour>
    </TTGlyph>
    <TTGlyph name="eogonek" xMin="8" yMin="-237" xMax="503" yMax="504">
      <contour>
        <pt x="339" y="-236" on="1"/>
        <pt x="304" y="-240" on="0"/>
        <pt x="244" y="-224" on="0"/>
        <pt x="202" y="-192" on="0"/>
        <pt x="179" y="-145" on="0"/>
        <pt x="179" y="-120" on="1"/>
        <pt x="179" y="-93" on="0"/>
        <pt x="206" y="-39" on="0"/>
        <pt x="233" y="-14" on="1"/>
        <pt x="187" y="-8" on="0"/>
        <pt x="104" y="31" on="0"/>
        <pt x="44" y="94" on="0"/>
        <pt x="8" y="182" on="0"/>
        <pt x="8" y="236" on="1"/>
        <pt x="8" y="298" on="0"/>
        <pt x="53" y="397" on="0"/>
        <pt x="127" y="466" on="0"/>
        <pt x="222" y="504" on="0"/>
        <pt x="272" y="504" on="1"/>
        <pt x="309" y="504" on="0"/>
        <pt x="391" y="481" on="0"/>
        <pt x="459" y="428" on="0"/>
        <pt x="503" y="341" on="0"/>
        <pt x="503" y="278" on="1"/>
        <pt x="444" y="219" on="1"/>
        <pt x="195" y="220" on="1"/>
        <pt x="205" y="165" on="0"/>
        <pt x="280" y="108" on="0"/>
        <pt x="334" y="108" on="1"/>
        <pt x="365" y="108" on="0"/>
        <pt x="425" y="128" on="0"/>
        <pt x="461" y="147" on="1"/>
        <pt x="489" y="85" on="1"/>
        <pt x="449" y="60" on="1"/>
        <pt x="390" y="23" on="0"/>
        <pt x="313" y="-44" on="0"/>
        <pt x="313" y="-84" on="1"/>
        <pt x="313" y="-124" on="0"/>
        <pt x="387" y="-144" on="0"/>
        <pt x="443" y="-111" on="1"/>
        <pt x="469" y="-165" on="1"/>
      </contour>
      <contour>
        <pt x="252" y="413" on="1"/>
        <pt x="230" y="398" on="0"/>
        <pt x="202" y="338" on="0"/>
        <pt x="196" y="304" on="1"/>
        <pt x="324" y="313" on="1"/>
        <pt x="320" y="350" on="0"/>
        <pt x="281" y="409" on="0"/>
      </contour>
    </TTGlyph>
    <TTGlyph name="epsilon" xMin="20" yMin="-14" xMax="496" yMax="505">
      <contour>
        <pt x="261" y="-14" on="1"/>
        <pt x="154" y="-14" on="0"/>
        <pt x="20" y="73" on="0"/>
        <pt x="20" y="142" on="1"/>
        <pt x="20" y="177" on="0"/>
        <pt x="76" y="234" on="0"/>
        <pt x="122" y="249" on="1"/>
        <pt x="80" y="261" on="0"/>
        <pt x="29" y="316" on="0"/>
        <pt x="29" y="353" on="1"/>
        <pt x="29" y="387" on="0"/>
        <pt x="66" y="443" on="0"/>
        <pt x="133" y="483" on="0"/>
        <pt x="228" y="505" on="0"/>
        <pt x="284" y="505" on="1"/>
        <pt x="344" y="505" on="0"/>
        <pt x="440" y="489" on="0"/>
        <pt x="467" y="476" on="1"/>
        <pt x="477" y="447" on="0"/>
        <pt x="483" y="376" on="0"/>
        <pt x="479" y="336" on="1"/>
        <pt x="445" y="318" on="1"/>
        <pt x="399" y="337" on="0"/>
        <pt x="330" y="350" on="0"/>
        <pt x="275" y="350" on="1"/>
        <pt x="222" y="350" on="0"/>
        <pt x="147" y="329" on="0"/>
        <pt x="129" y="310" on="1"/>
        <pt x="138" y="298" on="0"/>
        <pt x="181" y="277" on="0"/>
        <pt x="206" y="271" on="1"/>
        <pt x="348" y="312" on="1"/>
        <pt x="370" y="290" on="1"/>
        <pt x="374" y="263" on="0"/>
        <pt x="368" y="191" on="0"/>
        <pt x="361" y="173" on="1"/>
        <pt x="213" y="201" on="1"/>
        <pt x="188" y="199" on="0"/>
        <pt x="125" y="173" on="0"/>
        <pt x="115" y="160" on="1"/>
        <pt x="130" y="148" on="0"/>
        <pt x="213" y="132" on="0"/>
        <pt x="261" y="132" on="1"/>
        <pt x="296" y="132" on="0"/>
        <pt x="348" y="134" on="0"/>
        <pt x="393" y="140" on="0"/>
        <pt x="436" y="149" on="0"/>
        <pt x="461" y="156" on="1"/>
        <pt x="496" y="91" on="1"/>
        <pt x="462" y="44" on="0"/>
        <pt x="332" y="-14" on="0"/>
      </contour>
    </TTGlyph>
    <TTGlyph name="epsilonacute" xMin="20" yMin="-14" xMax="496" yMax="804">
      <component glyphName="epsilon" x="0" y="0" flags="0x204"/>
      <component glyphName="grAcute" x="140" y="0" flags="0x4"/>
    </TTGlyph>
    <TTGlyph name="epsilonasper" xMin="20" yMin="-14" xMax="496" yMax="806">
      <component glyphName="epsilon" x="0" y="0" flags="0x204"/>
      <component glyphName="asper" x="82" y="0" flags="0x4"/>
    </TTGlyph>
    <TTGlyph name="epsilonasperacute" xMin="20" yMin="-14" xMax="496" yMax="806">
      <component glyphName="epsilon" x="0" y="0" flags="0x204"/>
      <component glyphName="asperacute" x="106" y="0" flags="0x4"/>
    </TTGlyph>
    <TTGlyph name="epsilonaspergrave" xMin="20" yMin="-14" xMax="496" yMax="806">
      <component glyphName="epsilon" x="0" y="0" flags="0x204"/>
      <component glyphName="aspergrave" x="92" y="0" flags="0x4"/>
    </TTGlyph>
    <TTGlyph name="epsilongrave" xMin="20" yMin="-14" xMax="496" yMax="804">
      <component glyphName="epsilon" x="0" y="0" flags="0x204"/>
      <component glyphName="grGrave" x="140" y="0" flags="0x4"/>
    </TTGlyph>
    <TTGlyph name="epsilonlenis" xMin="20" yMin="-14" xMax="496" yMax="806">
      <component glyphName="epsilon" x="0" y="0" flags="0x204"/>
      <component glyphName="lenis" x="117" y="0" flags="0x4"/>
    </TTGlyph>
    <TTGlyph name="epsilonlenisacute" xMin="20" yMin="-14" xMax="496" yMax="806">
      <component glyphName="epsilon" x="0" y="0" flags="0x204"/>
      <component glyphName="lenisacute" x="132" y="0" flags="0x4"/>
    </TTGlyph>
    <TTGlyph name="epsilonlenisgrave" xMin="20" yMin="-14" xMax="496" yMax="806">
      <component glyphName="epsilon" x="0" y="0" flags="0x204"/>
      <component glyphName="lenisgrave" x="100" y="0" flags="0x4"/>
    </TTGlyph>
    <TTGlyph name="epsilonwithtonos" xMin="20" yMin="-14" xMax="496" yMax="804">
      <component glyphName="epsilon" x="0" y="0" flags="0x204"/>
      <component glyphName="tonos" x="140" y="0" flags="0x4"/>
    </TTGlyph>
    <TTGlyph name="equal" xMin="52" yMin="116" xMax="524" yMax="401">
      <contour>
        <pt x="52" y="401" on="1"/>
        <pt x="524" y="401" on="1"/>
        <pt x="524" y="304" on="1"/>
        <pt x="52" y="304" on="1"/>
      </contour>
      <contour>
        <pt x="52" y="213" on="1"/>
        <pt x="524" y="213" on="1"/>
        <pt x="524" y="116" on="1"/>
        <pt x="52" y="116" on="1"/>
      </contour>
    </TTGlyph>
    <TTGlyph name="eta" xMin="1" yMin="-222" xMax="542" yMax="505">
      <contour>
        <pt x="80" y="7" on="1"/>
        <pt x="138" y="347" on="1"/>
        <pt x="20" y="337" on="1"/>
        <pt x="1" y="388" on="1"/>
        <pt x="22" y="439" on="0"/>
        <pt x="96" y="505" on="0"/>
        <pt x="132" y="505" on="1"/>
        <pt x="153" y="505" on="0"/>
        <pt x="187" y="484" on="0"/>
        <pt x="200" y="465" on="1"/>
        <pt x="214" y="445" on="0"/>
        <pt x="227" y="386" on="0"/>
        <pt x="227" y="345" on="1"/>
        <pt x="250" y="424" on="0"/>
        <pt x="331" y="505" on="0"/>
        <pt x="386" y="505" on="1"/>
        <pt x="464" y="505" on="0"/>
        <pt x="543" y="357" on="0"/>
        <pt x="542" y="211" on="1"/>
        <pt x="539" y="-195" on="1"/>
        <pt x="489" y="-222" on="1"/>
        <pt x="440" y="-222" on="0"/>
        <pt x="359" y="-207" on="0"/>
        <pt x="329" y="-192" on="1"/>
        <pt x="367" y="-43" on="0"/>
        <pt x="412" y="137" on="0"/>
        <pt x="436" y="237" on="0"/>
        <pt x="443" y="279" on="0"/>
        <pt x="443" y="291" on="1"/>
        <pt x="443" y="298" on="0"/>
        <pt x="440" y="310" on="0"/>
        <pt x="439" y="312" on="1"/>
        <pt x="434" y="314" on="0"/>
        <pt x="420" y="316" on="0"/>
        <pt x="414" y="316" on="1"/>
        <pt x="389" y="316" on="0"/>
        <pt x="335" y="284" on="0"/>
        <pt x="288" y="233" on="0"/>
        <pt x="251" y="167" on="0"/>
        <pt x="242" y="133" on="1"/>
        <pt x="270" y="0" on="1"/>
        <pt x="258" y="-3" on="0"/>
        <pt x="217" y="-7" on="0"/>
        <pt x="168" y="-9" on="0"/>
        <pt x="115" y="-7" on="0"/>
        <pt x="92" y="-5" on="1"/>
      </contour>
    </TTGlyph>
    <TTGlyph name="etaacute" xMin="1" yMin="-222" xMax="542" yMax="804">
      <component glyphName="eta" x="0" y="0" flags="0x204"/>
      <component glyphName="grAcute" x="188" y="0" flags="0x4"/>
    </TTGlyph>
    <TTGlyph name="etaacuteiotasub" xMin="1" yMin="-227" xMax="542" yMax="804">
      <component glyphName="eta" x="0" y="0" flags="0x204"/>
      <component glyphName="grAcute" x="188" y="0" flags="0x4"/>
      <component glyphName="iotaadscript" x="51" y="0" flags="0x4"/>
    </TTGlyph>
    <TTGlyph name="etaasper" xMin="1" yMin="-222" xMax="542" yMax="806">
      <component glyphName="eta" x="0" y="0" flags="0x204"/>
      <component glyphName="asper" x="130" y="0" flags="0x4"/>
    </TTGlyph>
    <TTGlyph name="etaasperacute" xMin="1" yMin="-222" xMax="542" yMax="806">
      <component glyphName="eta" x="0" y="0" flags="0x204"/>
      <component glyphName="asperacute" x="154" y="0" flags="0x4"/>
    </TTGlyph>
    <TTGlyph name="etaasperacuteiotasub" xMin="1" yMin="-227" xMax="542" yMax="806">
      <component glyphName="eta" x="0" y="0" flags="0x204"/>
      <component glyphName="asperacute" x="154" y="0" flags="0x4"/>
      <component glyphName="iotaadscript" x="51" y="0" flags="0x4"/>
    </TTGlyph>
    <TTGlyph name="etaaspergrave" xMin="1" yMin="-222" xMax="542" yMax="806">
      <component glyphName="eta" x="0" y="0" flags="0x204"/>
      <component glyphName="aspergrave" x="140" y="0" flags="0x4"/>
    </TTGlyph>
    <TTGlyph name="etaaspergraveiotasub" xMin="1" yMin="-227" xMax="542" yMax="806">
      <component glyphName="eta" x="0" y="0" flags="0x204"/>
      <component glyphName="aspergrave" x="140" y="0" flags="0x4"/>
      <component glyphName="iotaadscript" x="51" y="0" flags="0x4"/>
    </TTGlyph>
    <TTGlyph name="etaasperiotasub" xMin="1" yMin="-227" xMax="542" yMax="806">
      <component glyphName="eta" x="0" y="0" flags="0x204"/>
      <component glyphName="asper" x="130" y="0" flags="0x4"/>
      <component glyphName="iotaadscript" x="51" y="0" flags="0x4"/>
    </TTGlyph>
    <TTGlyph name="etaaspertilde" xMin="1" yMin="-222" xMax="542" yMax="998">
      <component glyphName="eta" x="0" y="0" flags="0x204"/>
      <component glyphName="aspertilde" x="140" y="0" flags="0x4"/>
    </TTGlyph>
    <TTGlyph name="etaaspertildeiotasub" xMin="1" yMin="-227" xMax="542" yMax="998">
      <component glyphName="eta" x="0" y="0" flags="0x204"/>
      <component glyphName="aspertilde" x="140" y="0" flags="0x4"/>
      <component glyphName="iotaadscript" x="51" y="0" flags="0x4"/>
    </TTGlyph>
    <TTGlyph name="etagrave" xMin="1" yMin="-222" xMax="542" yMax="804">
      <component glyphName="eta" x="0" y="0" flags="0x204"/>
      <component glyphName="grGrave" x="188" y="0" flags="0x4"/>
    </TTGlyph>
    <TTGlyph name="etagraveiotasub" xMin="1" yMin="-227" xMax="542" yMax="804">
      <component glyphName="eta" x="0" y="0" flags="0x204"/>
      <component glyphName="grGrave" x="188" y="0" flags="0x4"/>
      <component glyphName="iotaadscript" x="51" y="0" flags="0x4"/>
    </TTGlyph>
    <TTGlyph name="etaiotasub" xMin="1" yMin="-227" xMax="542" yMax="505">
      <component glyphName="eta" x="0" y="0" flags="0x204"/>
      <component glyphName="iotaadscript" x="51" y="0" flags="0x4"/>
    </TTGlyph>
    <TTGlyph name="etalenis" xMin="1" yMin="-222" xMax="542" yMax="806">
      <component glyphName="eta" x="0" y="0" flags="0x204"/>
      <component glyphName="lenis" x="165" y="0" flags="0x4"/>
    </TTGlyph>
    <TTGlyph name="etalenisacute" xMin="1" yMin="-222" xMax="542" yMax="806">
      <component glyphName="eta" x="0" y="0" flags="0x204"/>
      <component glyphName="lenisacute" x="180" y="0" flags="0x4"/>
    </TTGlyph>
    <TTGlyph name="etalenisacuteiotasub" xMin="1" yMin="-227" xMax="542" yMax="806">
      <component glyphName="eta" x="0" y="0" flags="0x204"/>
      <component glyphName="lenisacute" x="180" y="0" flags="0x4"/>
      <component glyphName="iotaadscript" x="51" y="0" flags="0x4"/>
    </TTGlyph>
    <TTGlyph name="etalenisgrave" xMin="1" yMin="-222" xMax="542" yMax="806">
      <component glyphName="eta" x="0" y="0" flags="0x204"/>
      <component glyphName="lenisgrave" x="148" y="0" flags="0x4"/>
    </TTGlyph>
    <TTGlyph name="etalenisgraveiotasub" xMin="1" yMin="-227" xMax="542" yMax="806">
      <component glyphName="eta" x="0" y="0" flags="0x204"/>
      <component glyphName="lenisgrave" x="148" y="0" flags="0x4"/>
      <component glyphName="iotaadscript" x="51" y="0" flags="0x4"/>
    </TTGlyph>
    <TTGlyph name="etalenisiotasub" xMin="1" yMin="-227" xMax="542" yMax="806">
      <component glyphName="eta" x="0" y="0" flags="0x204"/>
      <component glyphName="lenis" x="165" y="0" flags="0x4"/>
      <component glyphName="iotaadscript" x="51" y="0" flags="0x4"/>
    </TTGlyph>
    <TTGlyph name="etalenistilde" xMin="1" yMin="-222" xMax="556" yMax="998">
      <component glyphName="eta" x="0" y="0" flags="0x204"/>
      <component glyphName="lenistilde" x="155" y="0" flags="0x4"/>
    </TTGlyph>
    <TTGlyph name="etalenistildeiotasub" xMin="1" yMin="-227" xMax="556" yMax="998">
      <component glyphName="eta" x="0" y="0" flags="0x204"/>
      <component glyphName="lenistilde" x="155" y="0" flags="0x4"/>
      <component glyphName="iotaadscript" x="51" y="0" flags="0x4"/>
    </TTGlyph>
    <TTGlyph name="etatilde" xMin="1" yMin="-222" xMax="558" yMax="756">
      <component glyphName="eta" x="0" y="0" flags="0x204"/>
      <component glyphName="grTilde" x="190" y="0" flags="0x4"/>
    </TTGlyph>
</ttFont>
